{
.appVersion = "3150";
.formatVersion = 3;
DisplayStrings = (
"ABCDEFGHIJ
KLMNOPQR
STUVWXYZ.,;:-!?“”  
1234567890 12 
ÁĂǍÂÄÀĀÅÃ
 
",
"HONO---- 
DIE GNU TYPOGRAPHIE 
",
"DESIGNING THE USER INTERFACE: STRATEGIES FOR EFFECTIVE HUMAN-COMPUTER INTERACTION SECOND EDITION
      
FINITE MATHEMATICS WITH APPLICATIONS GOODMAN AND RATTI 

ISSUE 8 NEW TYPE DESIGN",
"KNOWLEDGE TRIUMPHANT: 
THE CONCEPT OF KNOWLEDGE IN MEDIEVAL ISLAM BY FRANZ ROSENTHAL  ",
"01234567890 ",
" OHOn  O OHHSOOHHO 
ABCDEFGHIJKLMNOPQRSTUVWXYZ. 
DIE GNU TYPOGRAFIE
DESIGNING THE USER INTERFACE.    ",
"ABCDEFGHIJKLMNOPQRSTUVWXYZ  "
);
axes = (
{
name = Weight;
tag = wght;
},
{
name = Width;
tag = wdth;
}
);
customParameters = (
{
name = fsType;
value = (
);
},
{
name = "Write lastChange";
value = 0;
},
{
name = "Use Typo Metrics";
value = 1;
},
{
name = "Use Line Breaks";
value = 1;
},
{
name = "Enforce Compatibility Check";
value = 0;
},
{
name = "Axis Mappings";
value = {
wdth = {
75 = 75;
125 = 125;
};
wght = {
400 = 180;
500 = 200;
600 = 212;
700 = 220;
};
};
}
);
date = "2021-11-25 19:11:22 +0000";
familyName = Blocksync;
fontMaster = (
{
axesValues = (
180,
75
);
customParameters = (
{
name = hheaAscender;
value = 935;
},
{
name = hheaDescender;
value = -371;
},
{
name = hheaLineGap;
value = 0;
},
{
name = typoAscender;
value = 935;
},
{
name = typoDescender;
value = -371;
},
{
name = typoLineGap;
value = 0;
},
{
name = underlinePosition;
value = -99;
},
{
name = winAscent;
value = 1040;
},
{
name = winDescent;
value = 415;
}
);
iconName = Condensed;
id = m01;
metricValues = (
{
over = 10;
pos = 740;
},
{
over = 10;
pos = 700;
},
{
over = 10;
pos = 530;
},
{
over = -10;
},
{
over = -10;
pos = -225;
},
{
}
);
name = "Condensed Regular";
},
{
axesValues = (
220,
75
);
customParameters = (
{
name = hheaAscender;
value = 935;
},
{
name = hheaDescender;
value = -371;
},
{
name = hheaLineGap;
value = 0;
},
{
name = typoAscender;
value = 935;
},
{
name = typoDescender;
value = -371;
},
{

glyphs = (
{
color = 5;
glyphname = A;
kernLeft = A;
kernRight = A;
layers = (
{
anchors = (
{
name = bottom;
pos = (240,0);
},
{
name = top;
pos = (240,700);
}
);
layerId = m01;
shapes = (
{
closed = 1;
nodes = (
(152,0,ls),
(172,0,o),
(189,9,o),
(192,40,cs),
(200,120,ls),
(202,135,o),
(205,140,o),
(220,140,cs),
(260,140,ls),
(275,140,o),
(278,135,o),
(280,120,cs),
(288,40,ls),
(291,9,o),
(308,0,o),
(328,0,cs),
(430,0,ls),
(460,0,o),
(470,10,o),
(470,40,cs),
(470,60,o),
(463,100,o),
(460,120,cs),
(380,660,ls),
(376,690,o),
(360,700,o),
(330,700,cs),
(150,700,ls),
(120,700,o),
(104,690,o),
(100,660,cs),
(20,120,ls),
(17,100,o),
(10,60,o),
(10,40,cs),
(10,10,o),
(20,0,o),
(50,0,cs)
);
},
{
closed = 1;
nodes = (
(214,290,o),
(210,295,o),
(210,306,cs),
(210,313,o),
(211,320,o),
(212,331,cs),
(230,530,ls),
(231,543,o),
(234,550,o),
(240,550,cs),
(246,550,o),
(249,543,o),
(250,530,cs),
(268,331,ls),
(269,320,o),
(270,313,o),
(270,306,cs),
(270,295,o),
(265,290,o),
(250,290,cs),
(230,290,ls)
);
}
);
width = 480;
},
{
anchors = (
{
name = bottom;
pos = (270,0);
},
{
name = tmp;
pos = (270,290);
},
{
name = top;
pos = (270,700);
}
);
associatedMasterId = m01;
layerId = "5D24E92C-7759-4DC5-8685-4175C3E8CE77";
name = "Sep 12, 22, 19:56";
shapes = (
{
closed = 1;
nodes = (
(155,0,ls),
(175,0,o),
(189,10,o),
(195,40,cs),
(210,120,ls),
(214,141,o),
(220,150,o),
(240,150,cs),
(300,150,ls),
(320,150,o),
(326,141,o),
(330,120,cs),
(345,40,ls),
(351,10,o),
(365,0,o),
(385,0,cs),
(490,0,ls),
(520,0,o),
(530,10,o),
(530,40,cs),
(530,80,o),
(435,530,o),
(412,640,cs),
(402,690,o),
(390,700,o),
(360,700,cs),
(180,700,ls),
(150,700,o),
(138,690,o),
(128,640,cs),
(105,530,o),
(10,80,o),
(10,40,cs),
(10,10,o),
(20,0,o),
(50,0,cs)
);
},
{
closed = 1;
nodes = (
(235,290,o),
(230,295,o),
(230,310,cs),
(230,330,o),
(243,420,o),
(256,530,cs),
(257,540,o),
(260,550,o),
(270,550,cs),
(280,550,o),
(282,539,o),
(283,530,cs),
(297,419,o),
(310,330,o),
(310,310,cs),
(310,295,o),
(305,290,o),
(290,290,cs),
(250,290,ls)
);
}
);
width = 540;
},
{
anchors = (
{
name = bottom;
pos = (240,0);
},
{
name = top;
pos = (240,700);
}
);
layerId = "6ABCF30A-460E-4EED-802C-9E4699B7E7F6";
shapes = (
{
closed = 1;
nodes = (
(185,0,ls),
(205,0,o),
(225,9,o),
(225,40,cs),
(225,110,ls),
(225,125,o),
(229,130,o),
(239,130,cs),
(241,130,ls),
(251,130,o),
(255,125,o),
(255,110,cs),
(255,40,ls),
(255,9,o),
(275,0,o),
(295,0,cs),
(430,0,ls),
(460,0,o),
(470,10,o),
(470,40,cs),
(470,60,o),
(465,90,o),
(463,120,cs),
(430,660,ls),
(428,690,o),
(410,700,o),
(380,700,cs),
(100,700,ls),
(70,700,o),
(52,690,o),
(50,660,cs),
(17,120,ls),
(15,90,o),
(10,60,o),
(10,40,cs),
(10,10,o),
(20,0,o),
(50,0,cs)
);
},
{
closed = 1;
nodes = (
(229,280,o),
(225,288,o),
(225,299,cs),
(225,307,o),
(225,311,o),
(225,321,cs),
(225,530,ls),
(225,543,o),
(231,550,o),
(240,550,cs),
(249,550,o),
(255,543,o),
(255,530,cs),
(255,321,ls),
(255,311,o),
(255,307,o),
(255,299,cs),
(255,288,o),
(251,280,o),
(241,280,cs),
(239,280,ls)
);
}
);
width = 480;
},
{
anchors = (
{
name = bottom;
pos = (290,0);
},
{
name = top;
pos = (290,700);
}
);
layerId = m003;
shapes = (
{
closed = 1;
nodes = (
(157,0,ls),
(177,0,o),
(192,10,o),
(197,40,cs),
(210,120,ls),
(212,135,o),
(217,140,o),
(230,140,cs),
(350,140,ls),
(363,140,o),
(368,135,o),
(370,120,cs),
(383,40,ls),
(388,10,o),
(403,0,o),
(423,0,cs),
(520,0,ls),
(550,0,o),
(560,10,o),
(560,40,cs),
(560,60,o),
(553,100,o),
(549,120,cs),
(440,660,ls),
(434,690,o),
(420,700,o),
(390,700,cs),
(190,700,ls),
(160,700,o),
(146,690,o),
(140,660,cs),
(31,120,ls),
(27,100,o),
(20,60,o),
(20,40,cs),
(20,10,o),
(30,0,o),
(60,0,cs)
);
},
{
closed = 1;
nodes = (
(245,290,o),
(240,295,o),
(240,306,cs),
(240,313,o),
(241,320,o),
(243,331,cs),
(275,530,ls),
(277,543,o),
(280,550,o),
(290,550,cs),
(299,550,o),
(303,543,o),
(305,530,cs),
(337,331,ls),
(339,320,o),
(340,313,o),
(340,306,cs),
(340,295,o),
(335,290,o),
(320,290,cs),
(260,290,ls)
);
}
);
width = 580;
},
{
anchors = (
{
name = bottom;
pos = (270,0);
},
{
name = tmp;
pos = (270,290);
},
{
name = top;
pos = (270,700);
}
);
associatedMasterId = m003;
layerId = "64016166-7810-45FC-B17F-B453738BECC0";
name = "Sep 12, 22, 19:56";
shapes = (
{
closed = 1;
nodes = (
(155,0,ls),
(175,0,o),
(189,10,o),
(195,40,cs),
(210,120,ls),
(214,141,o),
(220,150,o),
(240,150,cs),
(300,150,ls),
(320,150,o),
(326,141,o),
(330,120,cs),
(345,40,ls),
(351,10,o),
(365,0,o),
(385,0,cs),
(490,0,ls),
(520,0,o),
(530,10,o),
(530,40,cs),
(530,80,o),
(435,530,o),
(412,640,cs),
(402,690,o),
(390,700,o),
(360,700,cs),
(180,700,ls),
(150,700,o),
(138,690,o),
(128,640,cs),
(105,530,o),
(10,80,o),
(10,40,cs),
(10,10,o),
(20,0,o),
(50,0,cs)
);
},
{
closed = 1;
nodes = (
(235,290,o),
(230,295,o),
(230,310,cs),
(230,330,o),
(243,420,o),
(256,530,cs),
(257,540,o),
(260,550,o),
(270,550,cs),
(280,550,o),
(282,539,o),
(283,530,cs),
(297,419,o),
(310,330,o),
(310,310,cs),
(310,295,o),
(305,290,o),
(290,290,cs),
(250,290,ls)
);
}
);
width = 540;
},
{
anchors = (
{
name = bottom;
pos = (290,0);
},
{
name = top;
pos = (290,700);
}
);
layerId = m004;
shapes = (
{
closed = 1;
nodes = (
(235,0,ls),
(265,0,o),
(275,10,o),
(275,40,cs),
(275,120,ls),
(275,135,o),
(279,140,o),
(289,140,cs),
(291,140,ls),
(301,140,o),
(305,135,o),
(305,120,cs),
(305,40,ls),
(305,10,o),
(315,0,o),
(345,0,cs),
(530,0,ls),
(560,0,o),
(570,10,o),
(570,40,cs),
(570,60,o),
(562,100,o),
(559,120,cs),
(490,660,ls),
(486,690,o),
(470,700,o),
(440,700,cs),
(140,700,ls),
(110,700,o),
(94,690,o),
(90,660,cs),
(21,120,ls),
(18,100,o),
(10,60,o),
(10,40,cs),
(10,10,o),
(20,0,o),
(50,0,cs)
);
},
{
closed = 1;
nodes = (
(279,300,o),
(275,308,o),
(275,319,cs),
(275,327,o),
(275,331,o),
(275,341,cs),
(275,530,ls),
(275,543,o),
(281,550,o),
(290,550,cs),
(299,550,o),
(305,543,o),
(305,530,cs),
(305,341,ls),
(305,331,o),
(305,327,o),
(305,319,cs),
(305,308,o),
(301,300,o),
(291,300,cs),
(289,300,ls)
);
}
);
width = 580;
},
{
anchors = (
{
name = bottom;
pos = (240,0);
},
{
name = top;
pos = (240,700);
}
);
associatedMasterId = "6ABCF30A-460E-4EED-802C-9E4699B7E7F6";
layerId = "A0012EF1-9C51-4D86-8EF5-B9C2BAB8F47B";
name = "Feb 18, 23 at 20:51";
shapes = (
{
closed = 1;
nodes = (
(152,0,ls),
(172,0,o),
(189,9,o),
(192,40,cs),
(200,130,ls),
(201,145,o),
(205,150,o),
(220,150,cs),
(260,150,ls),
(275,150,o),
(279,145,o),
(280,130,cs),
(288,40,ls),
(291,9,o),
(308,0,o),
(328,0,cs),
(430,0,ls),
(460,0,o),
(470,10,o),
(470,40,cs),
(470,50,o),
(467,79,o),
(460,128,cs),
(392,640,ls),
(387,680,o),
(380,700,o),
(340,700,cs),
(140,700,ls),
(100,700,o),
(93,680,o),
(88,640,cs),
(20,128,ls),
(14,82,o),
(10,50,o),
(10,40,cs),
(10,10,o),
(20,0,o),
(50,0,cs)
);
},
{
closed = 1;
nodes = (
(214,290,o),
(210,295,o),
(210,306,cs),
(210,313,o),
(210,320,o),
(211,331,cs),
(225,530,ls),
(226,541,o),
(230,550,o),
(240,550,cs),
(250,550,o),
(254,541,o),
(255,530,cs),
(269,331,ls),
(270,320,o),
(270,313,o),
(270,306,cs),
(270,295,o),
(265,290,o),
(250,290,cs),
(230,290,ls)
);
}
);
width = 480;
}
);
unicode = 65;
},
{
color = 5;
glyphname = Aogonek;
layers = (
{
layerId = m01;
shapes = (
{
closed = 1;
nodes = (
(162,0,ls),
(182,0,o),
(189,9,o),
(192,40,cs),
(200,120,ls),
(202,135,o),
(205,140,o),
(220,140,cs),
(260,140,ls),
(275,140,o),
(278,135,o),
(280,120,cs),
(288,40,ls),
(291,9,o),
(314,9,o),
(314,-10,cs),
(314,-30,o),
(278,-39,o),
(278,-93,cs),
(278,-148,o),
(332,-175,o),
(430,-175,cs),
(444,-175,o),
(450,-165,o),
(450,-155,cs),
(450,-104,ls),
(450,-92,o),
(444,-84,o),
(430,-84,cs),
(398,-84,o),
(370,-71,o),
(370,-51,cs),
(370,-27,o),
(399,0,o),
(430,0,cs),
(460,0,o),
(470,10,o),
(470,40,cs),
(470,60,o),
(463,100,o),
(460,120,cs),
(380,660,ls),
(376,690,o),
(360,700,o),
(330,700,cs),
(150,700,ls),
(120,700,o),
(104,690,o),
(100,660,cs),
(20,120,ls),
(17,100,o),
(10,60,o),
(10,40,cs),
(10,10,o),
(20,0,o),
(50,0,cs)
);
},
{
closed = 1;
nodes = (
(214,290,o),
(210,295,o),
(210,306,cs),
(210,313,o),
(211,320,o),
(212,331,cs),
(230,530,ls),
(231,543,o),
(234,550,o),
(240,550,cs),
(246,550,o),
(249,543,o),
(250,530,cs),
(268,331,ls),
(269,320,o),
(270,313,o),
(270,306,cs),
(270,295,o),
(265,290,o),
(250,290,cs),
(230,290,ls)
);
}
);
width = 480;
},
{
layerId = "6ABCF30A-460E-4EED-802C-9E4699B7E7F6";
shapes = (
{
closed = 1;
nodes = (
(162,0,ls),
(182,0,o),
(189,9,o),
(192,40,cs),
(200,120,ls),
(202,135,o),
(205,140,o),
(220,140,cs),
(260,140,ls),
(275,140,o),
(278,135,o),
(280,120,cs),
(288,40,ls),
(291,9,o),
(314,9,o),
(314,-10,cs),
(314,-30,o),
(278,-39,o),
(278,-93,cs),
(278,-148,o),
(332,-175,o),
(430,-175,cs),
(444,-175,o),
(450,-165,o),
(450,-155,cs),
(450,-104,ls),
(450,-92,o),
(444,-84,o),
(430,-84,cs),
(398,-84,o),
(370,-71,o),
(370,-51,cs),
(370,-27,o),
(399,0,o),
(430,0,cs),
(460,0,o),
(470,10,o),
(470,40,cs),
(470,60,o),
(463,100,o),
(460,120,cs),
(380,660,ls),
(376,690,o),
(360,700,o),
(330,700,cs),
(150,700,ls),
(120,700,o),
(104,690,o),
(100,660,cs),
(20,120,ls),
(17,100,o),
(10,60,o),
(10,40,cs),
(10,10,o),
(20,0,o),
(50,0,cs)
);
},
{
closed = 1;
nodes = (
(214,290,o),
(210,295,o),
(210,306,cs),
(210,313,o),
(211,320,o),
(212,331,cs),
(230,530,ls),
(231,543,o),
(234,550,o),
(240,550,cs),
(246,550,o),
(249,543,o),
(250,530,cs),
(268,331,ls),
(269,320,o),
(270,313,o),
(270,306,cs),
(270,295,o),
(265,290,o),
(250,290,cs),
(230,290,ls)
);
}
);
width = 480;
},
{
layerId = m003;
shapes = (
{
closed = 1;
nodes = (
(162,0,ls),
(182,0,o),
(189,9,o),
(192,40,cs),
(200,120,ls),
(202,135,o),
(205,140,o),
(220,140,cs),
(260,140,ls),
(275,140,o),
(278,135,o),
(280,120,cs),
(288,40,ls),
(291,9,o),
(314,9,o),
(314,-10,cs),
(314,-30,o),
(278,-39,o),
(278,-93,cs),
(278,-148,o),
(332,-175,o),
(430,-175,cs),
(444,-175,o),
(450,-165,o),
(450,-155,cs),
(450,-104,ls),
(450,-92,o),
(444,-84,o),
(430,-84,cs),
(398,-84,o),
(370,-71,o),
(370,-51,cs),
(370,-27,o),
(399,0,o),
(430,0,cs),
(460,0,o),
(470,10,o),
(470,40,cs),
(470,60,o),
(463,100,o),
(460,120,cs),
(380,660,ls),
(376,690,o),
(360,700,o),
(330,700,cs),
(150,700,ls),
(120,700,o),
(104,690,o),
(100,660,cs),
(20,120,ls),
(17,100,o),
(10,60,o),
(10,40,cs),
(10,10,o),
(20,0,o),
(50,0,cs)
);
},
{
closed = 1;
nodes = (
(214,290,o),
(210,295,o),
(210,306,cs),
(210,313,o),
(211,320,o),
(212,331,cs),
(230,530,ls),
(231,543,o),
(234,550,o),
(240,550,cs),
(246,550,o),
(249,543,o),
(250,530,cs),
(268,331,ls),
(269,320,o),
(270,313,o),
(270,306,cs),
(270,295,o),
(265,290,o),
(250,290,cs),
(230,290,ls)
);
}
);
width = 480;
},
{
layerId = m004;
shapes = (
{
closed = 1;
nodes = (
(162,0,ls),
(182,0,o),
(189,9,o),
(192,40,cs),
(200,120,ls),
(202,135,o),
(205,140,o),
(220,140,cs),
(260,140,ls),
(275,140,o),
(278,135,o),
(280,120,cs),
(288,40,ls),
(291,9,o),
(314,9,o),
(314,-10,cs),
(314,-30,o),
(278,-39,o),
(278,-93,cs),
(278,-148,o),
(332,-175,o),
(430,-175,cs),
(444,-175,o),
(450,-165,o),
(450,-155,cs),
(450,-104,ls),
(450,-92,o),
(444,-84,o),
(430,-84,cs),
(398,-84,o),
(370,-71,o),
(370,-51,cs),
(370,-27,o),
(399,0,o),
(430,0,cs),
(460,0,o),
(470,10,o),
(470,40,cs),
(470,60,o),
(463,100,o),
(460,120,cs),
(380,660,ls),
(376,690,o),
(360,700,o),
(330,700,cs),
(150,700,ls),
(120,700,o),
(104,690,o),
(100,660,cs),
(20,120,ls),
(17,100,o),
(10,60,o),
(10,40,cs),
(10,10,o),
(20,0,o),
(50,0,cs)
);
},
{
closed = 1;
nodes = (
(214,290,o),
(210,295,o),
(210,306,cs),
(210,313,o),
(211,320,o),
(212,331,cs),
(230,530,ls),
(231,543,o),
(234,550,o),
(240,550,cs),
(246,550,o),
(249,543,o),
(250,530,cs),
(268,331,ls),
(269,320,o),
(270,313,o),
(270,306,cs),
(270,295,o),
(265,290,o),
(250,290,cs),
(230,290,ls)
);
}
);
width = 480;
}
);
unicode = 260;
},
{
color = 5;
glyphname = AE;
layers = (
{
layerId = m01;
shapes = (
{
closed = 1;
nodes = (
(580,0,ls),
(610,0,o),
(620,10,o),
(620,40,cs),
(620,110,ls),
(620,140,o),
(610,150,o),
(580,150,cs),
(470,150,ls),
(455,150,o),
(450,155,o),
(450,170,cs),
(450,270,ls),
(450,285,o),
(455,290,o),
(470,290,cs),
(540,290,ls),
(570,290,o),
(580,300,o),
(580,330,cs),
(580,390,ls),
(580,420,o),
(570,430,o),
(540,430,cs),
(470,430,ls),
(455,430,o),
(450,435,o),
(450,450,cs),
(450,530,ls),
(450,545,o),
(455,550,o),
(470,550,cs),
(580,550,ls),
(610,550,o),
(620,560,o),
(620,590,cs),
(620,660,ls),
(620,690,o),
(610,700,o),
(580,700,cs),
(150,700,ls),
(120,700,o),
(104,690,o),
(100,660,cs),
(20,120,ls),
(17,100,o),
(10,60,o),
(10,40,cs),
(10,10,o),
(20,0,o),
(50,0,cs),
(162,0,ls),
(182,0,o),
(189,9,o),
(192,40,cs),
(200,120,ls),
(202,135,o),
(205,140,o),
(220,140,cs),
(250,140,ls),
(265,140,o),
(270,135,o),
(270,120,cs),
(270,40,ls),
(270,10,o),
(280,0,o),
(310,0,cs)
);
},
{
closed = 1;
nodes = (
(210,313,o),
(211,320,o),
(212,331,cs),
(230,530,ls),
(231,543,o),
(234,550,o),
(240,550,cs),
(246,550,o),
(249,543,o),
(250,530,cs),
(268,331,ls),
(269,320,o),
(270,313,o),
(270,306,cs),
(270,295,o),
(265,290,o),
(250,290,cs),
(230,290,ls),
(214,290,o),
(210,295,o),
(210,306,cs)
);
}
);
width = 630;
},
{
layerId = "6ABCF30A-460E-4EED-802C-9E4699B7E7F6";
shapes = (
{
closed = 1;
nodes = (
(580,0,ls),
(610,0,o),
(620,10,o),
(620,40,cs),
(620,110,ls),
(620,140,o),
(610,150,o),
(580,150,cs),
(470,150,ls),
(455,150,o),
(450,155,o),
(450,170,cs),
(450,270,ls),
(450,285,o),
(455,290,o),
(470,290,cs),
(540,290,ls),
(570,290,o),
(580,300,o),
(580,330,cs),
(580,390,ls),
(580,420,o),
(570,430,o),
(540,430,cs),
(470,430,ls),
(455,430,o),
(450,435,o),
(450,450,cs),
(450,530,ls),
(450,545,o),
(455,550,o),
(470,550,cs),
(580,550,ls),
(610,550,o),
(620,560,o),
(620,590,cs),
(620,660,ls),
(620,690,o),
(610,700,o),
(580,700,cs),
(150,700,ls),
(120,700,o),
(104,690,o),
(100,660,cs),
(20,120,ls),
(17,100,o),
(10,60,o),
(10,40,cs),
(10,10,o),
(20,0,o),
(50,0,cs),
(162,0,ls),
(182,0,o),
(189,9,o),
(192,40,cs),
(200,120,ls),
(202,135,o),
(205,140,o),
(220,140,cs),
(250,140,ls),
(265,140,o),
(270,135,o),
(270,120,cs),
(270,40,ls),
(270,10,o),
(280,0,o),
(310,0,cs)
);
},
{
closed = 1;
nodes = (
(210,313,o),
(211,320,o),
(212,331,cs),
(230,530,ls),
(231,543,o),
(234,550,o),
(240,550,cs),
(246,550,o),
(249,543,o),
(250,530,cs),
(268,331,ls),
(269,320,o),
(270,313,o),
(270,306,cs),
(270,295,o),
(265,290,o),
(250,290,cs),
(230,290,ls),
(214,290,o),
(210,295,o),
(210,306,cs)
);
}
);
width = 630;
},
{
layerId = m003;
shapes = (
{
closed = 1;
nodes = (
(580,0,ls),
(610,0,o),
(620,10,o),
(620,40,cs),
(620,110,ls),
(620,140,o),
(610,150,o),
(580,150,cs),
(470,150,ls),
(455,150,o),
(450,155,o),
(450,170,cs),
(450,270,ls),
(450,285,o),
(455,290,o),
(470,290,cs),
(540,290,ls),
(570,290,o),
(580,300,o),
(580,330,cs),
(580,390,ls),
(580,420,o),
(570,430,o),
(540,430,cs),
(470,430,ls),
(455,430,o),
(450,435,o),
(450,450,cs),
(450,530,ls),
(450,545,o),
(455,550,o),
(470,550,cs),
(580,550,ls),
(610,550,o),
(620,560,o),
(620,590,cs),
(620,660,ls),
(620,690,o),
(610,700,o),
(580,700,cs),
(150,700,ls),
(120,700,o),
(104,690,o),
(100,660,cs),
(20,120,ls),
(17,100,o),
(10,60,o),
(10,40,cs),
(10,10,o),
(20,0,o),
(50,0,cs),
(162,0,ls),
(182,0,o),
(189,9,o),
(192,40,cs),
(200,120,ls),
(202,135,o),
(205,140,o),
(220,140,cs),
(250,140,ls),
(265,140,o),
(270,135,o),
(270,120,cs),
(270,40,ls),
(270,10,o),
(280,0,o),
(310,0,cs)
);
},
{
closed = 1;
nodes = (
(210,313,o),
(211,320,o),
(212,331,cs),
(230,530,ls),
(231,543,o),
(234,550,o),
(240,550,cs),
(246,550,o),
(249,543,o),
(250,530,cs),
(268,331,ls),
(269,320,o),
(270,313,o),
(270,306,cs),
(270,295,o),
(265,290,o),
(250,290,cs),
(230,290,ls),
(214,290,o),
(210,295,o),
(210,306,cs)
);
}
);
width = 630;
},
{
layerId = m004;
shapes = (
{
closed = 1;
nodes = (
(580,0,ls),
(610,0,o),
(620,10,o),
(620,40,cs),
(620,110,ls),
(620,140,o),
(610,150,o),
(580,150,cs),
(470,150,ls),
(455,150,o),
(450,155,o),
(450,170,cs),
(450,270,ls),
(450,285,o),
(455,290,o),
(470,290,cs),
(540,290,ls),
(570,290,o),
(580,300,o),
(580,330,cs),
(580,390,ls),
(580,420,o),
(570,430,o),
(540,430,cs),
(470,430,ls),
(455,430,o),
(450,435,o),
(450,450,cs),
(450,530,ls),
(450,545,o),
(455,550,o),
(470,550,cs),
(580,550,ls),
(610,550,o),
(620,560,o),
(620,590,cs),
(620,660,ls),
(620,690,o),
(610,700,o),
(580,700,cs),
(150,700,ls),
(120,700,o),
(104,690,o),
(100,660,cs),
(20,120,ls),
(17,100,o),
(10,60,o),
(10,40,cs),
(10,10,o),
(20,0,o),
(50,0,cs),
(162,0,ls),
(182,0,o),
(189,9,o),
(192,40,cs),
(200,120,ls),
(202,135,o),
(205,140,o),
(220,140,cs),
(250,140,ls),
(265,140,o),
(270,135,o),
(270,120,cs),
(270,40,ls),
(270,10,o),
(280,0,o),
(310,0,cs)
);
},
{
closed = 1;
nodes = (
(210,313,o),
(211,320,o),
(212,331,cs),
(230,530,ls),
(231,543,o),
(234,550,o),
(240,550,cs),
(246,550,o),
(249,543,o),
(250,530,cs),
(268,331,ls),
(269,320,o),
(270,313,o),
(270,306,cs),
(270,295,o),
(265,290,o),
(250,290,cs),
(230,290,ls),
(214,290,o),
(210,295,o),
(210,306,cs)
);
}
);
width = 630;
}
);
unicode = 198;
},
{
color = 5;
glyphname = B;
kernLeft = H;
kernRight = B;
layers = (
{
layerId = m01;
shapes = (
{
closed = 1;
nodes = (
(280,0,ls),
(410,0,o),
(470,60,o),
(470,180,cs),
(470,210,ls),
(470,300,o),
(416,337,o),
(390,350,cs),
(385,353,o),
(380,355,o),
(380,360,cs),
(380,365,o),
(384,366,o),
(390,370,cs),
(413,385,o),
(450,420,o),
(450,490,cs),
(450,520,ls),
(450,650,o),
(370,700,o),
(240,700,cs),
(60,700,ls),
(30,700,o),
(20,690,o),
(20,660,cs),
(20,40,ls),
(20,10,o),
(29,0,o),
(59,0,cs)
);
},
{
closed = 1;
nodes = (
(205,140,o),
(200,145,o),
(200,160,cs),
(200,270,ls),
(200,285,o),
(205,290,o),
(220,290,cs),
(240,290,ls),
(270,290,o),
(280,280,o),
(280,230,cs),
(280,200,ls),
(280,150,o),
(270,140,o),
(240,140,cs),
(220,140,ls)
);
},
{
closed = 1;
nodes = (
(205,430,o),
(200,435,o),
(200,450,cs),
(200,540,ls),
(200,555,o),
(205,560,o),
(220,560,cs),
(240,560,ls),
(270,560,o),
(280,550,o),
(280,510,cs),
(280,480,ls),
(280,440,o),
(270,430,o),
(240,430,cs),
(220,430,ls)
);
}
);
width = 480;
},
{
layerId = "6ABCF30A-460E-4EED-802C-9E4699B7E7F6";
shapes = (
{
closed = 1;
nodes = (
(280,0,ls),
(410,0,o),
(470,60,o),
(470,180,cs),
(470,210,ls),
(470,300,o),
(416,337,o),
(390,350,cs),
(385,353,o),
(380,355,o),
(380,360,cs),
(380,365,o),
(384,366,o),
(390,370,cs),
(413,385,o),
(450,420,o),
(450,490,cs),
(450,520,ls),
(450,650,o),
(370,700,o),
(240,700,cs),
(50,700,ls),
(20,700,o),
(10,690,o),
(10,660,cs),
(10,40,ls),
(10,10,o),
(19,0,o),
(49,0,cs)
);
},
{
closed = 1;
nodes = (
(224,140,o),
(220,148,o),
(220,159,cs),
(220,270,ls),
(220,283,o),
(224,290,o),
(234,290,cs),
(236,290,ls),
(246,290,o),
(250,283,o),
(250,270,cs),
(250,159,ls),
(250,148,o),
(246,140,o),
(236,140,cs),
(234,140,ls)
);
},
{
closed = 1;
nodes = (
(224,430,o),
(220,438,o),
(220,449,cs),
(220,540,ls),
(220,553,o),
(224,560,o),
(234,560,cs),
(236,560,ls),
(246,560,o),
(250,553,o),
(250,540,cs),
(250,449,ls),
(250,438,o),
(246,430,o),
(236,430,cs),
(234,430,ls)
);
}
);
width = 480;
},
{
associatedMasterId = m01;
layerId = "1F86786A-E2E1-4B03-8217-A17D87EDEBA0";
name = "Sep 27, 22, 18:53";
shapes = (
{
closed = 1;
nodes = (
(300,0,ls),
(420,0,o),
(470,69,o),
(470,180,cs),
(470,219,ls),
(470,295,o),
(414,346,o),
(390,360,cs),
(383,364,o),
(380,365,o),
(380,370,cs),
(380,375,o),
(384,377,o),
(390,380,cs),
(414,393,o),
(450,429,o),
(450,520,cs),
(450,630,o),
(380,700,o),
(270,700,cs),
(60,700,ls),
(30,700,o),
(20,690,o),
(20,660,cs),
(20,40,ls),
(20,10,o),
(29,0,o),
(59,0,cs)
);
},
{
closed = 1;
nodes = (
(205,140,o),
(200,145,o),
(200,160,cs),
(200,270,ls),
(200,285,o),
(205,290,o),
(220,290,cs),
(240,290,ls),
(265,290,o),
(280,270,o),
(280,240,cs),
(280,190,ls),
(280,160,o),
(266,140,o),
(240,140,cs),
(220,140,ls)
);
},
{
closed = 1;
nodes = (
(205,430,o),
(200,435,o),
(200,450,cs),
(200,540,ls),
(200,555,o),
(205,560,o),
(220,560,cs),
(240,560,ls),
(270,560,o),
(280,550,o),
(280,520,cs),
(280,470,ls),
(280,440,o),
(270,430,o),
(240,430,cs),
(220,430,ls)
);
}
);
visible = 1;
width = 480;
},
{
layerId = m003;
shapes = (
{
closed = 1;
nodes = (
(370,0,ls),
(500,0,o),
(560,70,o),
(560,190,cs),
(560,200,ls),
(560,290,o),
(506,337,o),
(480,350,cs),
(475,353,o),
(470,355,o),
(470,360,cs),
(470,365,o),
(474,366,o),
(480,370,cs),
(503,385,o),
(540,430,o),
(540,500,cs),
(540,510,ls),
(540,640,o),
(460,700,o),
(330,700,cs),
(70,700,ls),
(40,700,o),
(30,690,o),
(30,660,cs),
(30,40,ls),
(30,10,o),
(39,0,o),
(69,0,cs)
);
},
{
closed = 1;
nodes = (
(215,140,o),
(210,145,o),
(210,160,cs),
(210,270,ls),
(210,285,o),
(215,290,o),
(230,290,cs),
(310,290,ls),
(350,290,o),
(370,270,o),
(370,220,cs),
(370,210,ls),
(370,160,o),
(350,140,o),
(310,140,cs),
(230,140,ls)
);
},
{
closed = 1;
nodes = (
(215,430,o),
(210,435,o),
(210,450,cs),
(210,540,ls),
(210,555,o),
(215,560,o),
(230,560,cs),
(310,560,ls),
(350,560,o),
(370,540,o),
(370,500,cs),
(370,490,ls),
(370,450,o),
(350,430,o),
(310,430,cs),
(230,430,ls)
);
}
);
width = 580;
},
{
associatedMasterId = m003;
layerId = "BDA0295F-6776-4860-98CC-70822E475A7E";
name = "Sep 27, 22, 18:53";
shapes = (
{
closed = 1;
nodes = (
(300,0,ls),
(420,0,o),
(470,69,o),
(470,180,cs),
(470,219,ls),
(470,295,o),
(414,346,o),
(390,360,cs),
(383,364,o),
(380,365,o),
(380,370,cs),
(380,375,o),
(384,377,o),
(390,380,cs),
(414,393,o),
(450,429,o),
(450,520,cs),
(450,630,o),
(380,700,o),
(270,700,cs),
(60,700,ls),
(30,700,o),
(20,690,o),
(20,660,cs),
(20,40,ls),
(20,10,o),
(29,0,o),
(59,0,cs)
);
},
{
closed = 1;
nodes = (
(205,140,o),
(200,145,o),
(200,160,cs),
(200,270,ls),
(200,285,o),
(205,290,o),
(220,290,cs),
(240,290,ls),
(265,290,o),
(280,270,o),
(280,240,cs),
(280,190,ls),
(280,160,o),
(266,140,o),
(240,140,cs),
(220,140,ls)
);
},
{
closed = 1;
nodes = (
(205,430,o),
(200,435,o),
(200,450,cs),
(200,540,ls),
(200,555,o),
(205,560,o),
(220,560,cs),
(240,560,ls),
(270,560,o),
(280,550,o),
(280,520,cs),
(280,470,ls),
(280,440,o),
(270,430,o),
(240,430,cs),
(220,430,ls)
);
}
);
width = 480;
},
{
layerId = m004;
shapes = (
{
closed = 1;
nodes = (
(380,0,ls),
(510,0,o),
(570,70,o),
(570,190,cs),
(570,200,ls),
(570,290,o),
(516,337,o),
(490,350,cs),
(485,353,o),
(480,355,o),
(480,360,cs),
(480,365,o),
(484,366,o),
(490,370,cs),
(513,385,o),
(550,430,o),
(550,500,cs),
(550,510,ls),
(550,640,o),
(470,700,o),
(340,700,cs),
(60,700,ls),
(30,700,o),
(20,690,o),
(20,660,cs),
(20,40,ls),
(20,10,o),
(29,0,o),
(59,0,cs)
);
},
{
closed = 1;
nodes = (
(274,140,o),
(270,148,o),
(270,159,cs),
(270,270,ls),
(270,283,o),
(274,290,o),
(284,290,cs),
(286,290,ls),
(296,290,o),
(300,283,o),
(300,270,cs),
(300,159,ls),
(300,148,o),
(296,140,o),
(286,140,cs),
(284,140,ls)
);
},
{
closed = 1;
nodes = (
(274,430,o),
(270,438,o),
(270,449,cs),
(270,540,ls),
(270,553,o),
(274,560,o),
(284,560,cs),
(286,560,ls),
(296,560,o),
(300,553,o),
(300,540,cs),
(300,449,ls),
(300,438,o),
(296,430,o),
(286,430,cs),
(284,430,ls)
);
}
);
width = 580;
}
);
unicode = 66;
},
{
color = 5;
glyphname = C;
kernLeft = O;
kernRight = C;
layers = (
{
anchors = (
{
name = top;
pos = (237,700);
}
);
layerId = m01;
shapes = (
{
closed = 1;
nodes = (
(377,-10,o),
(447,60,o),
(447,200,cs),
(447,245,ls),
(447,275,o),
(437,285,o),
(407,285,cs),
(317,285,ls),
(287,285,o),
(277,275,o),
(277,245,cs),
(277,190,ls),
(277,160,o),
(267,140,o),
(237,140,cs),
(207,140,o),
(197,160,o),
(197,190,cs),
(197,510,ls),
(197,540,o),
(207,560,o),
(237,560,cs),
(267,560,o),
(277,540,o),
(277,510,cs),
(277,465,ls),
(277,435,o),
(287,425,o),
(317,425,cs),
(407,425,ls),
(437,425,o),
(447,435,o),
(447,465,cs),
(447,500,ls),
(447,640,o),
(377,710,o),
(237,710,cs),
(97,710,o),
(17,640,o),
(17,500,cs),
(17,200,ls),
(17,60,o),
(97,-10,o),
(237,-10,cs)
);
}
);
width = 460;
},
{
anchors = (
{
name = top;
pos = (240,700);
}
);
layerId = "6ABCF30A-460E-4EED-802C-9E4699B7E7F6";
shapes = (
{
closed = 1;
nodes = (
(377,-10,o),
(450,60,o),
(450,200,cs),
(450,305,ls),
(450,335,o),
(440,345,o),
(410,345,cs),
(292,345,ls),
(262,345,o),
(252,335,o),
(252,305,cs),
(252,160,ls),
(252,147,o),
(247,140,o),
(237,140,cs),
(227,140,o),
(222,147,o),
(222,160,cs),
(222,540,ls),
(222,553,o),
(227,560,o),
(237,560,cs),
(247,560,o),
(252,553,o),
(252,540,cs),
(252,415,ls),
(252,385,o),
(262,375,o),
(292,375,cs),
(410,375,ls),
(440,375,o),
(450,385,o),
(450,415,cs),
(450,500,ls),
(450,640,o),
(377,710,o),
(237,710,cs),
(97,710,o),
(10,640,o),
(10,500,cs),
(10,200,ls),
(10,60,o),
(97,-10,o),
(237,-10,cs)
);
}
);
width = 460;
},
{
anchors = (
{
name = top;
pos = (237,700);
}
);
associatedMasterId = m01;
layerId = "3405DB48-7A6C-4C40-A5AE-AE671BCFF720";
name = "Sep 27, 22, 20:39";
shapes = (
{
closed = 1;
nodes = (
(377,-10,o),
(457,60,o),
(457,200,cs),
(457,500,ls),
(457,640,o),
(377,710,o),
(237,710,cs),
(97,710,o),
(17,640,o),
(17,500,cs),
(17,200,ls),
(17,60,o),
(97,-10,o),
(237,-10,cs)
);
},
{
closed = 1;
nodes = (
(207,140,o),
(197,160,o),
(197,190,cs),
(197,510,ls),
(197,540,o),
(207,560,o),
(237,560,cs),
(267,560,o),
(277,540,o),
(277,510,cs),
(277,190,ls),
(277,160,o),
(267,140,o),
(237,140,cs)
);
}
);
width = 474;
},
{
anchors = (
{
name = top;
pos = (280,700);
}
);
layerId = m003;
shapes = (
{
closed = 1;
nodes = (
(477,-10,o),
(530,90,o),
(530,230,cs),
(530,260,ls),
(530,290,o),
(520,300,o),
(490,300,cs),
(400,300,ls),
(370,300,o),
(360,290,o),
(360,260,cs),
(360,250,ls),
(360,180,o),
(350,140,o),
(280,140,cs),
(220,140,o),
(210,180,o),
(210,250,cs),
(210,450,ls),
(210,520,o),
(220,560,o),
(280,560,cs),
(350,560,o),
(360,520,o),
(360,450,cs),
(360,440,ls),
(360,410,o),
(370,400,o),
(400,400,cs),
(490,400,ls),
(520,400,o),
(530,410,o),
(530,440,cs),
(530,470,ls),
(530,630,o),
(470,710,o),
(280,710,cs),
(90,710,o),
(30,630,o),
(30,440,cs),
(30,260,ls),
(30,70,o),
(97,-10,o),
(287,-10,cs)
);
}
);
width = 560;
},
{
anchors = (
{
name = top;
pos = (237,700);
}
);
associatedMasterId = m003;
layerId = "FC8C7B94-0A88-42DE-B572-402C25F1834A";
name = "Sep 27, 22, 20:39";
shapes = (
{
closed = 1;
nodes = (
(377,-10,o),
(457,60,o),
(457,200,cs),
(457,500,ls),
(457,640,o),
(377,710,o),
(237,710,cs),
(97,710,o),
(17,640,o),
(17,500,cs),
(17,200,ls),
(17,60,o),
(97,-10,o),
(237,-10,cs)
);
},
{
closed = 1;
nodes = (
(207,140,o),
(197,160,o),
(197,190,cs),
(197,510,ls),
(197,540,o),
(207,560,o),
(237,560,cs),
(267,560,o),
(277,540,o),
(277,510,cs),
(277,190,ls),
(277,160,o),
(267,140,o),
(237,140,cs)
);
}
);
width = 474;
},
{
anchors = (
{
name = top;
pos = (237,700);
}
);
layerId = m004;
shapes = (
{
closed = 1;
nodes = (
(447,-10,o),
(550,70,o),
(550,230,cs),
(550,305,ls),
(550,335,o),
(540,345,o),
(510,345,cs),
(342,345,ls),
(312,345,o),
(302,335,o),
(302,305,cs),
(302,160,ls),
(302,147,o),
(297,140,o),
(287,140,cs),
(277,140,o),
(272,147,o),
(272,160,cs),
(272,540,ls),
(272,553,o),
(277,560,o),
(287,560,cs),
(297,560,o),
(302,553,o),
(302,540,cs),
(302,415,ls),
(302,385,o),
(312,375,o),
(342,375,cs),
(510,375,ls),
(540,375,o),
(550,385,o),
(550,415,cs),
(550,470,ls),
(550,630,o),
(447,710,o),
(287,710,cs),
(127,710,o),
(10,630,o),
(10,470,cs),
(10,230,ls),
(10,70,o),
(127,-10,o),
(287,-10,cs)
);
}
);
width = 560;
},
{
anchors = (
{
name = top;
pos = (237,700);
}
);
associatedMasterId = m004;
layerId = "77A2E3CE-5FA8-434D-9AB1-2D05E020B86E";
name = "Feb 18, 23 at 12:41";
shapes = (
{
closed = 1;
nodes = (
(467,-10,o),
(554,70,o),
(554,260,cs),
(554,440,ls),
(554,630,o),
(467,710,o),
(287,710,cs),
(107,710,o),
(20,630,o),
(20,440,cs),
(20,260,ls),
(20,70,o),
(107,-10,o),
(287,-10,cs)
);
},
{
closed = 1;
nodes = (
(227,140,o),
(200,180,o),
(200,250,cs),
(200,450,ls),
(200,520,o),
(227,560,o),
(287,560,cs),
(347,560,o),
(374,520,o),
(374,450,cs),
(374,250,ls),
(374,180,o),
(347,140,o),
(287,140,cs)
);
}
);
visible = 1;
width = 560;
}
);
unicode = 67;
},
{
color = 5;
glyphname = Ccedilla;
layers = (
{
layerId = m01;
shapes = (
{
closed = 1;
nodes = (
(204,-225,o),
(342,-188,o),
(342,-92,cs),
(342,-46,o),
(325,-32,o),
(325,-19,cs),
(325,-3,o),
(349,9,o),
(365,18,cs),
(425,50,o),
(457,111,o),
(457,200,cs),
(457,245,ls),
(457,275,o),
(447,285,o),
(417,285,cs),
(317,285,ls),
(287,285,o),
(277,275,o),
(277,245,cs),
(277,190,ls),
(277,160,o),
(267,140,o),
(237,140,cs),
(207,140,o),
(197,160,o),
(197,190,cs),
(197,510,ls),
(197,540,o),
(207,560,o),
(237,560,cs),
(267,560,o),
(277,540,o),
(277,510,cs),
(277,465,ls),
(277,435,o),
(287,425,o),
(317,425,cs),
(417,425,ls),
(447,425,o),
(457,435,o),
(457,465,cs),
(457,500,ls),
(457,640,o),
(377,710,o),
(237,710,cs),
(97,710,o),
(17,640,o),
(17,500,cs),
(17,200,ls),
(17,108,o),
(52,46,o),
(115,15,cs),
(129,8,o),
(152,-1,o),
(166,-14,cs),
(174,-22,o),
(203,-27,o),
(223,-29,cs),
(237,-30,o),
(260,-72,o),
(260,-85,cs),
(260,-118,o),
(199,-123,o),
(152,-123,cs),
(133,-123,o),
(122,-119,o),
(122,-150,cs),
(122,-207,ls),
(122,-219,o),
(129,-225,o),
(141,-225,cs)
);
}
);
width = 469;
},
{
layerId = "6ABCF30A-460E-4EED-802C-9E4699B7E7F6";
shapes = (
{
closed = 1;
nodes = (
(204,-225,o),
(342,-188,o),
(342,-92,cs),
(342,-46,o),
(325,-32,o),
(325,-19,cs),
(325,-3,o),
(349,9,o),
(365,18,cs),
(425,50,o),
(457,111,o),
(457,200,cs),
(457,245,ls),
(457,275,o),
(447,285,o),
(417,285,cs),
(317,285,ls),
(287,285,o),
(277,275,o),
(277,245,cs),
(277,190,ls),
(277,160,o),
(267,140,o),
(237,140,cs),
(207,140,o),
(197,160,o),
(197,190,cs),
(197,510,ls),
(197,540,o),
(207,560,o),
(237,560,cs),
(267,560,o),
(277,540,o),
(277,510,cs),
(277,465,ls),
(277,435,o),
(287,425,o),
(317,425,cs),
(417,425,ls),
(447,425,o),
(457,435,o),
(457,465,cs),
(457,500,ls),
(457,640,o),
(377,710,o),
(237,710,cs),
(97,710,o),
(17,640,o),
(17,500,cs),
(17,200,ls),
(17,108,o),
(52,46,o),
(115,15,cs),
(129,8,o),
(152,-1,o),
(166,-14,cs),
(174,-22,o),
(203,-27,o),
(223,-29,cs),
(237,-30,o),
(260,-72,o),
(260,-85,cs),
(260,-118,o),
(199,-123,o),
(152,-123,cs),
(133,-123,o),
(122,-119,o),
(122,-150,cs),
(122,-207,ls),
(122,-219,o),
(129,-225,o),
(141,-225,cs)
);
}
);
width = 469;
},
{
layerId = m003;
shapes = (
{
closed = 1;
nodes = (
(204,-225,o),
(342,-188,o),
(342,-92,cs),
(342,-46,o),
(325,-32,o),
(325,-19,cs),
(325,-3,o),
(349,9,o),
(365,18,cs),
(425,50,o),
(457,111,o),
(457,200,cs),
(457,245,ls),
(457,275,o),
(447,285,o),
(417,285,cs),
(317,285,ls),
(287,285,o),
(277,275,o),
(277,245,cs),
(277,190,ls),
(277,160,o),
(267,140,o),
(237,140,cs),
(207,140,o),
(197,160,o),
(197,190,cs),
(197,510,ls),
(197,540,o),
(207,560,o),
(237,560,cs),
(267,560,o),
(277,540,o),
(277,510,cs),
(277,465,ls),
(277,435,o),
(287,425,o),
(317,425,cs),
(417,425,ls),
(447,425,o),
(457,435,o),
(457,465,cs),
(457,500,ls),
(457,640,o),
(377,710,o),
(237,710,cs),
(97,710,o),
(17,640,o),
(17,500,cs),
(17,200,ls),
(17,108,o),
(52,46,o),
(115,15,cs),
(129,8,o),
(152,-1,o),
(166,-14,cs),
(174,-22,o),
(203,-27,o),
(223,-29,cs),
(237,-30,o),
(260,-72,o),
(260,-85,cs),
(260,-118,o),
(199,-123,o),
(152,-123,cs),
(133,-123,o),
(122,-119,o),
(122,-150,cs),
(122,-207,ls),
(122,-219,o),
(129,-225,o),
(141,-225,cs)
);
}
);
width = 469;
},
{
layerId = m004;
shapes = (
{
closed = 1;
nodes = (
(204,-225,o),
(342,-188,o),
(342,-92,cs),
(342,-46,o),
(325,-32,o),
(325,-19,cs),
(325,-3,o),
(349,9,o),
(365,18,cs),
(425,50,o),
(457,111,o),
(457,200,cs),
(457,245,ls),
(457,275,o),
(447,285,o),
(417,285,cs),
(317,285,ls),
(287,285,o),
(277,275,o),
(277,245,cs),
(277,190,ls),
(277,160,o),
(267,140,o),
(237,140,cs),
(207,140,o),
(197,160,o),
(197,190,cs),
(197,510,ls),
(197,540,o),
(207,560,o),
(237,560,cs),
(267,560,o),
(277,540,o),
(277,510,cs),
(277,465,ls),
(277,435,o),
(287,425,o),
(317,425,cs),
(417,425,ls),
(447,425,o),
(457,435,o),
(457,465,cs),
(457,500,ls),
(457,640,o),
(377,710,o),
(237,710,cs),
(97,710,o),
(17,640,o),
(17,500,cs),
(17,200,ls),
(17,108,o),
(52,46,o),
(115,15,cs),
(129,8,o),
(152,-1,o),
(166,-14,cs),
(174,-22,o),
(203,-27,o),
(223,-29,cs),
(237,-30,o),
(260,-72,o),
(260,-85,cs),
(260,-118,o),
(199,-123,o),
(152,-123,cs),
(133,-123,o),
(122,-119,o),
(122,-150,cs),
(122,-207,ls),
(122,-219,o),
(129,-225,o),
(141,-225,cs)
);
}
);
width = 469;
}
);
unicode = 199;
},
{
color = 5;
glyphname = D;
kernLeft = H;
kernRight = O;
layers = (
{
anchors = (
{
name = top;
pos = (255,700);
}
);
layerId = m01;
shapes = (
{
closed = 1;
nodes = (
(280,0,ls),
(410,0,o),
(470,60,o),
(470,190,cs),
(470,510,ls),
(470,640,o),
(390,700,o),
(260,700,cs),
(70,700,ls),
(40,700,o),
(30,690,o),
(30,660,cs),
(30,40,ls),
(30,10,o),
(40,0,o),
(70,0,cs)
);
},
{
closed = 1;
nodes = (
(215,150,o),
(210,155,o),
(210,170,cs),
(210,530,ls),
(210,545,o),
(215,550,o),
(230,550,cs),
(250,550,ls),
(280,550,o),
(290,540,o),
(290,500,cs),
(290,200,ls),
(290,160,o),
(280,150,o),
(250,150,cs),
(230,150,ls)
);
}
);
width = 490;
},
{
anchors = (
{
name = top;
pos = (240,700);
}
);
layerId = "6ABCF30A-460E-4EED-802C-9E4699B7E7F6";
shapes = (
{
closed = 1;
nodes = (
(290,0,ls),
(420,0,o),
(480,60,o),
(480,190,cs),
(480,510,ls),
(480,640,o),
(400,700,o),
(270,700,cs),
(55,700,ls),
(25,700,o),
(15,690,o),
(15,660,cs),
(15,40,ls),
(15,10,o),
(25,0,o),
(55,0,cs)
);
},
{
closed = 1;
nodes = (
(234,150,o),
(230,157,o),
(230,170,cs),
(230,530,ls),
(230,543,o),
(234,550,o),
(244,550,cs),
(246,550,ls),
(256,550,o),
(260,543,o),
(260,530,cs),
(260,170,ls),
(260,157,o),
(256,150,o),
(246,150,cs),
(244,150,ls)
);
}
);
width = 490;
},
{
anchors = (
{
name = top;
pos = (340,700);
}
);
layerId = m003;
shapes = (
{
closed = 1;
nodes = (
(320,0,ls),
(480,0,o),
(560,70,o),
(560,240,cs),
(560,460,ls),
(560,630,o),
(460,700,o),
(300,700,cs),
(70,700,ls),
(40,700,o),
(30,690,o),
(30,660,cs),
(30,40,ls),
(30,10,o),
(40,0,o),
(70,0,cs)
);
},
{
closed = 1;
nodes = (
(215,150,o),
(210,155,o),
(210,170,cs),
(210,530,ls),
(210,545,o),
(215,550,o),
(230,550,cs),
(290,550,ls),
(350,550,o),
(380,520,o),
(380,450,cs),
(380,250,ls),
(380,180,o),
(350,150,o),
(290,150,cs),
(230,150,ls)
);
}
);
width = 580;
},
{
anchors = (
{
name = top;
pos = (230,700);
}
);
layerId = m004;
shapes = (
{
closed = 1;
nodes = (
(330,0,ls),
(490,0,o),
(570,70,o),
(570,240,cs),
(570,460,ls),
(570,630,o),
(470,700,o),
(310,700,cs),
(50,700,ls),
(20,700,o),
(10,690,o),
(10,660,cs),
(10,40,ls),
(10,10,o),
(20,0,o),
(50,0,cs)
);
},
{
closed = 1;
nodes = (
(274,150,o),
(270,158,o),
(270,169,cs),
(270,530,ls),
(270,543,o),
(274,550,o),
(284,550,cs),
(286,550,ls),
(296,550,o),
(300,543,o),
(300,530,cs),
(300,169,ls),
(300,158,o),
(296,150,o),
(286,150,cs),
(284,150,ls)
);
}
);
width = 580;
}
);
unicode = 68;
},
{
color = 5;
glyphname = Eth;
layers = (
{
layerId = m01;
shapes = (
{
closed = 1;
nodes = (
(305,0,ls),
(435,0,o),
(495,60,o),
(495,190,cs),
(495,510,ls),
(495,640,o),
(415,700,o),
(285,700,cs),
(95,700,ls),
(65,700,o),
(55,690,o),
(55,660,cs),
(55,447,ls),
(55,432,o),
(50,427,o),
(35,427,cs),
(30,427,ls),
(15,427,o),
(10,422,o),
(10,407,cs),
(10,307,ls),
(10,292,o),
(15,287,o),
(30,287,cs),
(35,287,ls),
(50,287,o),
(55,282,o),
(55,267,cs),
(55,40,ls),
(55,10,o),
(65,0,o),
(95,0,cs)
);
},
{
closed = 1;
nodes = (
(235,267,ls),
(235,282,o),
(240,287,o),
(255,287,cs),
(260,287,ls),
(275,287,o),
(280,292,o),
(280,307,cs),
(280,407,ls),
(280,422,o),
(275,427,o),
(260,427,cs),
(255,427,ls),
(240,427,o),
(235,432,o),
(235,447,cs),
(235,530,ls),
(235,545,o),
(240,550,o),
(255,550,cs),
(275,550,ls),
(305,550,o),
(315,540,o),
(315,500,cs),
(315,200,ls),
(315,160,o),
(305,150,o),
(275,150,cs),
(255,150,ls),
(240,150,o),
(235,155,o),
(235,170,cs)
);
}
);
width = 512;
},
{
layerId = "6ABCF30A-460E-4EED-802C-9E4699B7E7F6";
shapes = (
{
closed = 1;
nodes = (
(305,0,ls),
(435,0,o),
(495,60,o),
(495,190,cs),
(495,510,ls),
(495,640,o),
(415,700,o),
(285,700,cs),
(95,700,ls),
(65,700,o),
(55,690,o),
(55,660,cs),
(55,447,ls),
(55,432,o),
(50,427,o),
(35,427,cs),
(30,427,ls),
(15,427,o),
(10,422,o),
(10,407,cs),
(10,307,ls),
(10,292,o),
(15,287,o),
(30,287,cs),
(35,287,ls),
(50,287,o),
(55,282,o),
(55,267,cs),
(55,40,ls),
(55,10,o),
(65,0,o),
(95,0,cs)
);
},
{
closed = 1;
nodes = (
(235,267,ls),
(235,282,o),
(240,287,o),
(255,287,cs),
(260,287,ls),
(275,287,o),
(280,292,o),
(280,307,cs),
(280,407,ls),
(280,422,o),
(275,427,o),
(260,427,cs),
(255,427,ls),
(240,427,o),
(235,432,o),
(235,447,cs),
(235,530,ls),
(235,545,o),
(240,550,o),
(255,550,cs),
(275,550,ls),
(305,550,o),
(315,540,o),
(315,500,cs),
(315,200,ls),
(315,160,o),
(305,150,o),
(275,150,cs),
(255,150,ls),
(240,150,o),
(235,155,o),
(235,170,cs)
);
}
);
width = 512;
},
{
layerId = m003;
shapes = (
{
closed = 1;
nodes = (
(305,0,ls),
(435,0,o),
(495,60,o),
(495,190,cs),
(495,510,ls),
(495,640,o),
(415,700,o),
(285,700,cs),
(95,700,ls),
(65,700,o),
(55,690,o),
(55,660,cs),
(55,447,ls),
(55,432,o),
(50,427,o),
(35,427,cs),
(30,427,ls),
(15,427,o),
(10,422,o),
(10,407,cs),
(10,307,ls),
(10,292,o),
(15,287,o),
(30,287,cs),
(35,287,ls),
(50,287,o),
(55,282,o),
(55,267,cs),
(55,40,ls),
(55,10,o),
(65,0,o),
(95,0,cs)
);
},
{
closed = 1;
nodes = (
(235,267,ls),
(235,282,o),
(240,287,o),
(255,287,cs),
(260,287,ls),
(275,287,o),
(280,292,o),
(280,307,cs),
(280,407,ls),
(280,422,o),
(275,427,o),
(260,427,cs),
(255,427,ls),
(240,427,o),
(235,432,o),
(235,447,cs),
(235,530,ls),
(235,545,o),
(240,550,o),
(255,550,cs),
(275,550,ls),
(305,550,o),
(315,540,o),
(315,500,cs),
(315,200,ls),
(315,160,o),
(305,150,o),
(275,150,cs),
(255,150,ls),
(240,150,o),
(235,155,o),
(235,170,cs)
);
}
);
width = 512;
},
{
layerId = m004;
shapes = (
{
closed = 1;
nodes = (
(305,0,ls),
(435,0,o),
(495,60,o),
(495,190,cs),
(495,510,ls),
(495,640,o),
(415,700,o),
(285,700,cs),
(95,700,ls),
(65,700,o),
(55,690,o),
(55,660,cs),
(55,447,ls),
(55,432,o),
(50,427,o),
(35,427,cs),
(30,427,ls),
(15,427,o),
(10,422,o),
(10,407,cs),
(10,307,ls),
(10,292,o),
(15,287,o),
(30,287,cs),
(35,287,ls),
(50,287,o),
(55,282,o),
(55,267,cs),
(55,40,ls),
(55,10,o),
(65,0,o),
(95,0,cs)
);
},
{
closed = 1;
nodes = (
(235,267,ls),
(235,282,o),
(240,287,o),
(255,287,cs),
(260,287,ls),
(275,287,o),
(280,292,o),
(280,307,cs),
(280,407,ls),
(280,422,o),
(275,427,o),
(260,427,cs),
(255,427,ls),
(240,427,o),
(235,432,o),
(235,447,cs),
(235,530,ls),
(235,545,o),
(240,550,o),
(255,550,cs),
(275,550,ls),
(305,550,o),
(315,540,o),
(315,500,cs),
(315,200,ls),
(315,160,o),
(305,150,o),
(275,150,cs),
(255,150,ls),
(240,150,o),
(235,155,o),
(235,170,cs)
);
}
);
width = 512;
}
);
unicode = 208;
},
{
color = 5;
glyphname = E;
kernLeft = H;
kernRight = E;
layers = (
{
anchors = (
{
name = top;
pos = (201,700);
}
);
layerId = m01;
shapes = (
{
closed = 1;
nodes = (
(320,0,ls),
(350,0,o),
(360,10,o),
(360,40,cs),
(360,110,ls),
(360,140,o),
(350,150,o),
(320,150,cs),
(230,150,ls),
(215,150,o),
(210,155,o),
(210,170,cs),
(210,270,ls),
(210,285,o),
(215,290,o),
(230,290,cs),
(290,290,ls),
(320,290,o),
(330,300,o),
(330,330,cs),
(330,390,ls),
(330,420,o),
(320,430,o),
(290,430,cs),
(230,430,ls),
(215,430,o),
(210,435,o),
(210,450,cs),
(210,530,ls),
(210,545,o),
(215,550,o),
(230,550,cs),
(320,550,ls),
(350,550,o),
(360,560,o),
(360,590,cs),
(360,660,ls),
(360,690,o),
(350,700,o),
(320,700,cs),
(70,700,ls),
(40,700,o),
(30,690,o),
(30,660,cs),
(30,40,ls),
(30,10,o),
(40,0,o),
(70,0,cs)
);
}
);
width = 380;
},
{
anchors = (
{
name = top;
pos = (186,700);
}
);
layerId = "6ABCF30A-460E-4EED-802C-9E4699B7E7F6";
shapes = (
{
closed = 1;
nodes = (
(330,0,ls),
(360,0,o),
(370,10,o),
(370,40,cs),
(370,179,ls),
(370,209,o),
(360,220,o),
(330,220,cs),
(245,220,ls),
(232,220,o),
(225,225,o),
(225,234,cs),
(225,236,ls),
(225,245,o),
(232,250,o),
(245,250,cs),
(310,250,ls),
(340,250,o),
(350,261,o),
(350,291,cs),
(350,414,ls),
(350,444,o),
(340,450,o),
(310,450,cs),
(245,450,ls),
(232,450,o),
(225,455,o),
(225,464,cs),
(225,466,ls),
(225,475,o),
(232,480,o),
(245,480,cs),
(330,480,ls),
(360,480,o),
(370,486,o),
(370,516,cs),
(370,660,ls),
(370,690,o),
(360,700,o),
(330,700,cs),
(55,700,ls),
(25,700,o),
(15,690,o),
(15,660,cs),
(15,40,ls),
(15,10,o),
(25,0,o),
(55,0,cs)
);
}
);
width = 380;
},
{
anchors = (
{
name = top;
pos = (191,700);
}
);
layerId = m003;
shapes = (
{
closed = 1;
nodes = (
(415,0,ls),
(445,0,o),
(455,10,o),
(455,40,cs),
(455,110,ls),
(455,140,o),
(445,150,o),
(415,150,cs),
(230,150,ls),
(215,150,o),
(210,155,o),
(210,170,cs),
(210,270,ls),
(210,285,o),
(215,290,o),
(230,290,cs),
(375,290,ls),
(405,290,o),
(415,300,o),
(415,330,cs),
(415,390,ls),
(415,420,o),
(405,430,o),
(375,430,cs),
(230,430,ls),
(215,430,o),
(210,435,o),
(210,450,cs),
(210,530,ls),
(210,545,o),
(215,550,o),
(230,550,cs),
(415,550,ls),
(445,550,o),
(455,560,o),
(455,590,cs),
(455,660,ls),
(455,690,o),
(445,700,o),
(415,700,cs),
(70,700,ls),
(40,700,o),
(30,690,o),
(30,660,cs),
(30,40,ls),
(30,10,o),
(40,0,o),
(70,0,cs)
);
}
);
width = 480;
},
{
anchors = (
{
name = top;
pos = (241,700);
}
);
layerId = m004;
shapes = (
{
closed = 1;
nodes = (
(430,0,ls),
(460,0,o),
(470,10,o),
(470,40,cs),
(470,175,ls),
(470,205,o),
(460,215,o),
(430,215,cs),
(300,215,ls),
(287,215,o),
(280,220,o),
(280,230,cs),
(280,232,ls),
(280,242,o),
(287,247,o),
(300,247,cs),
(390,247,ls),
(420,247,o),
(430,257,o),
(430,287,cs),
(430,418,ls),
(430,448,o),
(420,458,o),
(390,458,cs),
(300,458,ls),
(287,458,o),
(280,463,o),
(280,473,cs),
(280,475,ls),
(280,485,o),
(287,490,o),
(300,490,cs),
(430,490,ls),
(460,490,o),
(470,500,o),
(470,530,cs),
(470,660,ls),
(470,690,o),
(460,700,o),
(430,700,cs),
(55,700,ls),
(25,700,o),
(15,690,o),
(15,660,cs),
(15,40,ls),
(15,10,o),
(25,0,o),
(55,0,cs)
);
}
);
width = 480;
}
);
unicode = 69;
},
{
color = 5;
glyphname = Eogonek;
layers = (
{
layerId = m01;
shapes = (
{
closed = 1;
nodes = (
(196,0,ls),
(208,0,o),
(214,-3,o),
(214,-12,cs),
(214,-37,o),
(178,-39,o),
(178,-93,cs),
(178,-148,o),
(232,-175,o),
(330,-175,cs),
(344,-175,o),
(350,-165,o),
(350,-155,cs),
(350,-104,ls),
(350,-92,o),
(344,-84,o),
(330,-84,cs),
(298,-84,o),
(270,-71,o),
(270,-51,cs),
(270,-27,o),
(299,0,o),
(330,0,cs),
(360,0,o),
(370,10,o),
(370,40,cs),
(370,110,ls),
(370,140,o),
(360,150,o),
(330,150,cs),
(220,150,ls),
(205,150,o),
(200,155,o),
(200,170,cs),
(200,270,ls),
(200,285,o),
(205,290,o),
(220,290,cs),
(290,290,ls),
(320,290,o),
(330,300,o),
(330,330,cs),
(330,390,ls),
(330,420,o),
(320,430,o),
(290,430,cs),
(220,430,ls),
(205,430,o),
(200,435,o),
(200,450,cs),
(200,530,ls),
(200,545,o),
(205,550,o),
(220,550,cs),
(330,550,ls),
(360,550,o),
(370,560,o),
(370,590,cs),
(370,660,ls),
(370,690,o),
(360,700,o),
(330,700,cs),
(60,700,ls),
(30,700,o),
(20,690,o),
(20,660,cs),
(20,40,ls),
(20,10,o),
(30,0,o),
(60,0,cs)
);
}
);
width = 385;
},
{
layerId = "6ABCF30A-460E-4EED-802C-9E4699B7E7F6";
shapes = (
{
closed = 1;
nodes = (
(196,0,ls),
(208,0,o),
(214,-3,o),
(214,-12,cs),
(214,-37,o),
(178,-39,o),
(178,-93,cs),
(178,-148,o),
(232,-175,o),
(330,-175,cs),
(344,-175,o),
(350,-165,o),
(350,-155,cs),
(350,-104,ls),
(350,-92,o),
(344,-84,o),
(330,-84,cs),
(298,-84,o),
(270,-71,o),
(270,-51,cs),
(270,-27,o),
(299,0,o),
(330,0,cs),
(360,0,o),
(370,10,o),
(370,40,cs),
(370,110,ls),
(370,140,o),
(360,150,o),
(330,150,cs),
(220,150,ls),
(205,150,o),
(200,155,o),
(200,170,cs),
(200,270,ls),
(200,285,o),
(205,290,o),
(220,290,cs),
(290,290,ls),
(320,290,o),
(330,300,o),
(330,330,cs),
(330,390,ls),
(330,420,o),
(320,430,o),
(290,430,cs),
(220,430,ls),
(205,430,o),
(200,435,o),
(200,450,cs),
(200,530,ls),
(200,545,o),
(205,550,o),
(220,550,cs),
(330,550,ls),
(360,550,o),
(370,560,o),
(370,590,cs),
(370,660,ls),
(370,690,o),
(360,700,o),
(330,700,cs),
(60,700,ls),
(30,700,o),
(20,690,o),
(20,660,cs),
(20,40,ls),
(20,10,o),
(30,0,o),
(60,0,cs)
);
}
);
width = 385;
},
{
layerId = m003;
shapes = (
{
closed = 1;
nodes = (
(196,0,ls),
(208,0,o),
(214,-3,o),
(214,-12,cs),
(214,-37,o),
(178,-39,o),
(178,-93,cs),
(178,-148,o),
(232,-175,o),
(330,-175,cs),
(344,-175,o),
(350,-165,o),
(350,-155,cs),
(350,-104,ls),
(350,-92,o),
(344,-84,o),
(330,-84,cs),
(298,-84,o),
(270,-71,o),
(270,-51,cs),
(270,-27,o),
(299,0,o),
(330,0,cs),
(360,0,o),
(370,10,o),
(370,40,cs),
(370,110,ls),
(370,140,o),
(360,150,o),
(330,150,cs),
(220,150,ls),
(205,150,o),
(200,155,o),
(200,170,cs),
(200,270,ls),
(200,285,o),
(205,290,o),
(220,290,cs),
(290,290,ls),
(320,290,o),
(330,300,o),
(330,330,cs),
(330,390,ls),
(330,420,o),
(320,430,o),
(290,430,cs),
(220,430,ls),
(205,430,o),
(200,435,o),
(200,450,cs),
(200,530,ls),
(200,545,o),
(205,550,o),
(220,550,cs),
(330,550,ls),
(360,550,o),
(370,560,o),
(370,590,cs),
(370,660,ls),
(370,690,o),
(360,700,o),
(330,700,cs),
(60,700,ls),
(30,700,o),
(20,690,o),
(20,660,cs),
(20,40,ls),
(20,10,o),
(30,0,o),
(60,0,cs)
);
}
);
width = 385;
},
{
layerId = m004;
shapes = (
{
closed = 1;
nodes = (
(196,0,ls),
(208,0,o),
(214,-3,o),
(214,-12,cs),
(214,-37,o),
(178,-39,o),
(178,-93,cs),
(178,-148,o),
(232,-175,o),
(330,-175,cs),
(344,-175,o),
(350,-165,o),
(350,-155,cs),
(350,-104,ls),
(350,-92,o),
(344,-84,o),
(330,-84,cs),
(298,-84,o),
(270,-71,o),
(270,-51,cs),
(270,-27,o),
(299,0,o),
(330,0,cs),
(360,0,o),
(370,10,o),
(370,40,cs),
(370,110,ls),
(370,140,o),
(360,150,o),
(330,150,cs),
(220,150,ls),
(205,150,o),
(200,155,o),
(200,170,cs),
(200,270,ls),
(200,285,o),
(205,290,o),
(220,290,cs),
(290,290,ls),
(320,290,o),
(330,300,o),
(330,330,cs),
(330,390,ls),
(330,420,o),
(320,430,o),
(290,430,cs),
(220,430,ls),
(205,430,o),
(200,435,o),
(200,450,cs),
(200,530,ls),
(200,545,o),
(205,550,o),
(220,550,cs),
(330,550,ls),
(360,550,o),
(370,560,o),
(370,590,cs),
(370,660,ls),
(370,690,o),
(360,700,o),
(330,700,cs),
(60,700,ls),
(30,700,o),
(20,690,o),
(20,660,cs),
(20,40,ls),
(20,10,o),
(30,0,o),
(60,0,cs)
);
}
);
width = 385;
}
);
unicode = 280;
},
{
color = 5;
glyphname = F;
kernLeft = H;
kernRight = F;
layers = (
{
layerId = m01;
shapes = (
{
closed = 1;
nodes = (
(160,0,ls),
(190,0,o),
(200,10,o),
(200,40,cs),
(200,270,ls),
(200,285,o),
(205,290,o),
(220,290,cs),
(290,290,ls),
(320,290,o),
(330,300,o),
(330,330,cs),
(330,390,ls),
(330,420,o),
(320,430,o),
(290,430,cs),
(220,430,ls),
(205,430,o),
(200,435,o),
(200,450,cs),
(200,530,ls),
(200,545,o),
(205,550,o),
(220,550,cs),
(330,550,ls),
(360,550,o),
(370,560,o),
(370,590,cs),
(370,660,ls),
(370,690,o),
(360,700,o),
(330,700,cs),
(60,700,ls),
(30,700,o),
(20,690,o),
(20,660,cs),
(20,40,ls),
(20,10,o),
(30,0,o),
(60,0,cs)
);
}
);
width = 380;
},
{
layerId = "6ABCF30A-460E-4EED-802C-9E4699B7E7F6";
shapes = (
{
closed = 1;
nodes = (
(200,0,ls),
(230,0,o),
(240,10,o),
(240,40,cs),
(240,242,ls),
(240,251,o),
(247,256,o),
(260,256,cs),
(310,256,ls),
(340,256,o),
(350,267,o),
(350,297,cs),
(350,398,ls),
(350,428,o),
(340,434,o),
(310,434,cs),
(260,434,ls),
(247,434,o),
(240,439,o),
(240,448,cs),
(240,450,ls),
(240,459,o),
(247,464,o),
(260,464,cs),
(330,464,ls),
(360,464,o),
(370,470,o),
(370,500,cs),
(370,660,ls),
(370,690,o),
(360,700,o),
(330,700,cs),
(55,700,ls),
(25,700,o),
(15,690,o),
(15,660,cs),
(15,40,ls),
(15,10,o),
(25,0,o),
(55,0,cs)
);
}
);
width = 380;
},
{
layerId = m003;
shapes = (
{
closed = 1;
nodes = (
(170,0,ls),
(200,0,o),
(210,10,o),
(210,40,cs),
(210,270,ls),
(210,285,o),
(215,290,o),
(230,290,cs),
(390,290,ls),
(420,290,o),
(430,300,o),
(430,330,cs),
(430,390,ls),
(430,420,o),
(420,430,o),
(390,430,cs),
(230,430,ls),
(215,430,o),
(210,435,o),
(210,450,cs),
(210,530,ls),
(210,545,o),
(215,550,o),
(230,550,cs),
(430,550,ls),
(460,550,o),
(470,560,o),
(470,590,cs),
(470,660,ls),
(470,690,o),
(460,700,o),
(430,700,cs),
(70,700,ls),
(40,700,o),
(30,690,o),
(30,660,cs),
(30,40,ls),
(30,10,o),
(40,0,o),
(70,0,cs)
);
}
);
width = 480;
},
{
layerId = m004;
shapes = (
{
closed = 1;
nodes = (
(240,0,ls),
(270,0,o),
(280,10,o),
(280,40,cs),
(280,230,ls),
(280,245,o),
(285,250,o),
(300,250,cs),
(395,250,ls),
(425,250,o),
(435,260,o),
(435,290,cs),
(435,418,ls),
(435,448,o),
(425,458,o),
(395,458,cs),
(300,458,ls),
(287,458,o),
(280,463,o),
(280,473,cs),
(280,475,ls),
(280,485,o),
(287,490,o),
(300,490,cs),
(430,490,ls),
(460,490,o),
(470,500,o),
(470,530,cs),
(470,660,ls),
(470,690,o),
(460,700,o),
(430,700,cs),
(60,700,ls),
(30,700,o),
(20,690,o),
(20,660,cs),
(20,40,ls),
(20,10,o),
(30,0,o),
(60,0,cs)
);
}
);
width = 480;
}
);
unicode = 70;
},
{
color = 5;
glyphname = G;
kernLeft = O;
kernRight = G;
layers = (
{
anchors = (
{
name = bottom;
pos = (238,0);
},
{
name = top;
pos = (243,700);
}
);
layerId = m01;
shapes = (
{
closed = 1;
nodes = (
(310,-10,o),
(321,35,o),
(345,35,cs),
(365,35,o),
(385,0,o),
(416,0,cs),
(440,0,o),
(450,10,o),
(450,40,cs),
(450,300,ls),
(450,330,o),
(439,340,o),
(410,340,cs),
(290,340,ls),
(260,340,o),
(250,329,o),
(250,300,cs),
(250,260,ls),
(250,231,o),
(260,220,o),
(290,220,cs),
(300,220,ls),
(315,220,o),
(320,215,o),
(320,200,cs),
(320,160,o),
(300,140,o),
(260,140,cs),
(220,140,o),
(200,170,o),
(200,210,cs),
(200,510,ls),
(200,540,o),
(210,560,o),
(240,560,cs),
(270,560,o),
(280,540,o),
(280,510,cs),
(280,465,ls),
(280,435,o),
(290,425,o),
(320,425,cs),
(410,425,ls),
(440,425,o),
(450,435,o),
(450,465,cs),
(450,500,ls),
(450,640,o),
(380,710,o),
(240,710,cs),
(100,710,o),
(20,640,o),
(20,500,cs),
(20,200,ls),
(20,60,o),
(100,-10,o),
(220,-10,cs)
);
}
);
width = 470;
},
{
anchors = (
{
name = bottom;
pos = (235,0);
},
{
name = top;
pos = (240,700);
}
);
layerId = "6ABCF30A-460E-4EED-802C-9E4699B7E7F6";
shapes = (
{
closed = 1;
nodes = (
(307,-10,o),
(319,35,o),
(343,35,cs),
(363,35,o),
(390,0,o),
(421,0,cs),
(445,0,o),
(455,10,o),
(455,40,cs),
(455,330,ls),
(455,360,o),
(444,370,o),
(415,370,cs),
(270,370,ls),
(257,370,o),
(250,363,o),
(250,350,cs),
(250,215,ls),
(250,202,o),
(257,195,o),
(270,195,cs),
(272,195,ls),
(285,195,o),
(292,184,o),
(292,170,cs),
(292,150,o),
(280,140,o),
(259,140,cs),
(233,140,o),
(220,150,o),
(220,170,cs),
(220,540,ls),
(220,553,o),
(225,560,o),
(235,560,cs),
(245,560,o),
(250,551,o),
(250,540,cs),
(250,440,ls),
(250,412,o),
(260,400,o),
(290,400,cs),
(415,400,ls),
(445,400,o),
(455,410,o),
(455,440,cs),
(455,510,ls),
(455,650,o),
(377,710,o),
(237,710,cs),
(97,710,o),
(10,650,o),
(10,510,cs),
(10,190,ls),
(10,50,o),
(97,-10,o),
(217,-10,cs)
);
}
);
width = 470;
},
{
anchors = (
{
name = top;
pos = (240,700);
}
);
associatedMasterId = m01;
layerId = "4CB17326-2D02-41A8-8B60-25F7F13B4B84";
name = "Sep 27, 22, 21:29";
shapes = (
{
closed = 1;
nodes = (
(377,-10,o),
(457,60,o),
(457,200,cs),
(457,245,ls),
(457,275,o),
(447,285,o),
(417,285,cs),
(317,285,ls),
(287,285,o),
(277,275,o),
(277,245,cs),
(277,190,ls),
(277,160,o),
(267,140,o),
(237,140,cs),
(207,140,o),
(197,160,o),
(197,190,cs),
(197,510,ls),
(197,540,o),
(207,560,o),
(237,560,cs),
(267,560,o),
(277,540,o),
(277,510,cs),
(277,465,ls),
(277,435,o),
(287,425,o),
(317,425,cs),
(417,425,ls),
(447,425,o),
(457,435,o),
(457,465,cs),
(457,500,ls),
(457,640,o),
(377,710,o),
(237,710,cs),
(97,710,o),
(17,640,o),
(17,500,cs),
(17,200,ls),
(17,60,o),
(97,-10,o),
(237,-10,cs)
);
}
);
width = 475;
},
{
anchors = (
{
name = bottom;
pos = (235,0);
},
{
name = top;
pos = (240,700);
}
);
layerId = m003;
shapes = (
{
closed = 1;
nodes = (
(377,-10,o),
(411,45,o),
(435,45,cs),
(455,45,o),
(475,0,o),
(506,0,cs),
(530,0,o),
(540,10,o),
(540,40,cs),
(540,300,ls),
(540,330,o),
(529,340,o),
(500,340,cs),
(350,340,ls),
(320,340,o),
(310,329,o),
(310,300,cs),
(310,260,ls),
(310,231,o),
(320,220,o),
(350,220,cs),
(370,220,ls),
(385,220,o),
(390,215,o),
(390,200,cs),
(390,160,o),
(370,140,o),
(290,140,cs),
(220,140,o),
(200,180,o),
(200,250,cs),
(200,450,ls),
(200,520,o),
(220,560,o),
(280,560,cs),
(350,560,o),
(370,520,o),
(370,450,cs),
(370,440,ls),
(370,410,o),
(380,400,o),
(410,400,cs),
(500,400,ls),
(530,400,o),
(540,410,o),
(540,440,cs),
(540,470,ls),
(540,630,o),
(470,710,o),
(280,710,cs),
(90,710,o),
(20,630,o),
(20,440,cs),
(20,260,ls),
(20,70,o),
(97,-10,o),
(267,-10,cs)
);
}
);
width = 560;
},
{
anchors = (
{
name = top;
pos = (240,700);
}
);
associatedMasterId = m003;
layerId = "4176F25A-2F9B-4465-AD17-7621CE0DF228";
name = "Sep 27, 22, 21:29";
shapes = (
{
closed = 1;
nodes = (
(377,-10,o),
(457,60,o),
(457,200,cs),
(457,245,ls),
(457,275,o),
(447,285,o),
(417,285,cs),
(317,285,ls),
(287,285,o),
(277,275,o),
(277,245,cs),
(277,190,ls),
(277,160,o),
(267,140,o),
(237,140,cs),
(207,140,o),
(197,160,o),
(197,190,cs),
(197,510,ls),
(197,540,o),
(207,560,o),
(237,560,cs),
(267,560,o),
(277,540,o),
(277,510,cs),
(277,465,ls),
(277,435,o),
(287,425,o),
(317,425,cs),
(417,425,ls),
(447,425,o),
(457,435,o),
(457,465,cs),
(457,500,ls),
(457,640,o),
(377,710,o),
(237,710,cs),
(97,710,o),
(17,640,o),
(17,500,cs),
(17,200,ls),
(17,60,o),
(97,-10,o),
(237,-10,cs)
);
}
);
width = 475;
},
{
anchors = (
{
name = bottom;
pos = (235,0);
},
{
name = top;
pos = (240,700);
}
);
layerId = m004;
shapes = (
{
closed = 1;
nodes = (
(347,-10,o),
(419,35,o),
(443,35,cs),
(463,35,o),
(485,0,o),
(516,0,cs),
(540,0,o),
(550,10,o),
(550,40,cs),
(550,305,ls),
(550,335,o),
(539,345,o),
(510,345,cs),
(317,345,ls),
(304,345,o),
(297,338,o),
(297,325,cs),
(297,210,ls),
(297,197,o),
(304,190,o),
(317,190,cs),
(324,190,ls),
(338,190,o),
(344,184,o),
(344,170,cs),
(344,150,o),
(332,140,o),
(306,140,cs),
(276,140,o),
(272,150,o),
(272,170,cs),
(272,540,ls),
(272,553,o),
(277,560,o),
(287,560,cs),
(297,560,o),
(302,551,o),
(302,540,cs),
(302,415,ls),
(302,387,o),
(312,375,o),
(342,375,cs),
(510,375,ls),
(540,375,o),
(550,385,o),
(550,415,cs),
(550,490,ls),
(550,660,o),
(457,710,o),
(277,710,cs),
(97,710,o),
(15,660,o),
(15,490,cs),
(15,190,ls),
(15,50,o),
(137,-10,o),
(257,-10,cs)
);
}
);
width = 560;
}
);
unicode = 71;
},
{
color = 5;
glyphname = H;
kernLeft = H;
kernRight = H;
layers = (
{
layerId = m01;
shapes = (
{
closed = 1;
nodes = (
(170,0,ls),
(200,0,o),
(210,10,o),
(210,40,cs),
(210,280,ls),
(210,295,o),
(215,300,o),
(230,300,cs),
(270,300,ls),
(285,300,o),
(290,295,o),
(290,280,cs),
(290,40,ls),
(290,10,o),
(300,0,o),
(330,0,cs),
(430,0,ls),
(460,0,o),
(470,10,o),
(470,40,cs),
(470,660,ls),
(470,690,o),
(460,700,o),
(430,700,cs),
(330,700,ls),
(300,700,o),
(290,690,o),
(290,660,cs),
(290,470,ls),
(290,455,o),
(285,450,o),
(270,450,cs),
(230,450,ls),
(215,450,o),
(210,455,o),
(210,470,cs),
(210,660,ls),
(210,690,o),
(200,700,o),
(170,700,cs),
(70,700,ls),
(40,700,o),
(30,690,o),
(30,660,cs),
(30,40,ls),
(30,10,o),
(40,0,o),
(70,0,cs)
);
}
);
width = 500;
},
{
layerId = "6ABCF30A-460E-4EED-802C-9E4699B7E7F6";
shapes = (
{
closed = 1;
nodes = (
(195,0,ls),
(225,0,o),
(235,10,o),
(235,40,cs),
(235,260,ls),
(235,273,o),
(239,280,o),
(249,280,cs),
(251,280,ls),
(261,280,o),
(265,273,o),
(265,260,cs),
(265,40,ls),
(265,10,o),
(275,0,o),
(305,0,cs),
(445,0,ls),
(475,0,o),
(485,10,o),
(485,40,cs),
(485,660,ls),
(485,690,o),
(475,700,o),
(445,700,cs),
(305,700,ls),
(275,700,o),
(265,690,o),
(265,660,cs),
(265,470,ls),
(265,457,o),
(261,450,o),
(251,450,cs),
(249,450,ls),
(239,450,o),
(235,457,o),
(235,470,cs),
(235,660,ls),
(235,690,o),
(225,700,o),
(195,700,cs),
(55,700,ls),
(25,700,o),
(15,690,o),
(15,660,cs),
(15,40,ls),
(15,10,o),
(25,0,o),
(55,0,cs)
);
}
);
width = 500;
},
{
layerId = m003;
shapes = (
{
closed = 1;
nodes = (
(170,0,ls),
(200,0,o),
(210,10,o),
(210,40,cs),
(210,280,ls),
(210,295,o),
(215,300,o),
(230,300,cs),
(350,300,ls),
(365,300,o),
(370,295,o),
(370,280,cs),
(370,40,ls),
(370,10,o),
(380,0,o),
(410,0,cs),
(510,0,ls),
(540,0,o),
(550,10,o),
(550,40,cs),
(550,660,ls),
(550,690,o),
(540,700,o),
(510,700,cs),
(410,700,ls),
(380,700,o),
(370,690,o),
(370,660,cs),
(370,470,ls),
(370,455,o),
(365,450,o),
(350,450,cs),
(230,450,ls),
(215,450,o),
(210,455,o),
(210,470,cs),
(210,660,ls),
(210,690,o),
(200,700,o),
(170,700,cs),
(70,700,ls),
(40,700,o),
(30,690,o),
(30,660,cs),
(30,40,ls),
(30,10,o),
(40,0,o),
(70,0,cs)
);
}
);
width = 580;
},
{
layerId = m004;
shapes = (
{
closed = 1;
nodes = (
(235,0,ls),
(265,0,o),
(275,10,o),
(275,40,cs),
(275,260,ls),
(275,270,o),
(280,280,o),
(289,280,cs),
(291,280,ls),
(300,280,o),
(305,270,o),
(305,260,cs),
(305,40,ls),
(305,10,o),
(315,0,o),
(345,0,cs),
(525,0,ls),
(550,0,o),
(565,10,o),
(565,40,cs),
(565,660,ls),
(565,690,o),
(555,700,o),
(525,700,cs),
(345,700,ls),
(315,700,o),
(305,690,o),
(305,660,cs),
(305,470,ls),
(305,460,o),
(300,450,o),
(291,450,cs),
(289,450,ls),
(280,450,o),
(275,460,o),
(275,470,cs),
(275,660,ls),
(275,690,o),
(265,700,o),
(235,700,cs),
(55,700,ls),
(25,700,o),
(15,690,o),
(15,660,cs),
(15,40,ls),
(15,10,o),
(25,0,o),
(55,0,cs)
);
}
);
width = 580;
}
);
unicode = 72;
},
{
color = 5;
glyphname = Hbar;
layers = (
{
layerId = m01;
shapes = (
{
closed = 1;
nodes = (
(190,0,ls),
(220,0,o),
(230,10,o),
(230,40,cs),
(230,280,ls),
(230,295,o),
(235,300,o),
(250,300,cs),
(290,300,ls),
(305,300,o),
(310,295,o),
(310,280,cs),
(310,40,ls),
(310,10,o),
(320,0,o),
(350,0,cs),
(450,0,ls),
(480,0,o),
(490,10,o),
(490,40,cs),
(490,500,l),
(510,500,ls),
(525,500,o),
(530,505,o),
(530,520,cs),
(530,607,ls),
(530,622,o),
(525,627,o),
(510,627,cs),
(490,627,l),
(490,660,ls),
(490,690,o),
(480,700,o),
(450,700,cs),
(350,700,ls),
(320,700,o),
(310,690,o),
(310,660,cs),
(310,627,l),
(230,627,l),
(230,660,ls),
(230,690,o),
(220,700,o),
(190,700,cs),
(90,700,ls),
(60,700,o),
(50,690,o),
(50,660,cs),
(50,627,l),
(30,627,ls),
(15,627,o),
(10,622,o),
(10,607,cs),
(10,520,ls),
(10,505,o),
(15,500,o),
(30,500,cs),
(50,500,l),
(50,40,ls),
(50,10,o),
(60,0,o),
(90,0,cs)
);
},
{
closed = 1;
nodes = (
(230,500,l),
(310,500,l),
(310,470,ls),
(310,455,o),
(305,450,o),
(290,450,cs),
(250,450,ls),
(235,450,o),
(230,455,o),
(230,470,cs)
);
}
);
width = 540;
},
{
layerId = "6ABCF30A-460E-4EED-802C-9E4699B7E7F6";
shapes = (
{
closed = 1;
nodes = (
(190,0,ls),
(220,0,o),
(230,10,o),
(230,40,cs),
(230,280,ls),
(230,295,o),
(235,300,o),
(250,300,cs),
(290,300,ls),
(305,300,o),
(310,295,o),
(310,280,cs),
(310,40,ls),
(310,10,o),
(320,0,o),
(350,0,cs),
(450,0,ls),
(480,0,o),
(490,10,o),
(490,40,cs),
(490,500,l),
(510,500,ls),
(525,500,o),
(530,505,o),
(530,520,cs),
(530,607,ls),
(530,622,o),
(525,627,o),
(510,627,cs),
(490,627,l),
(490,660,ls),
(490,690,o),
(480,700,o),
(450,700,cs),
(350,700,ls),
(320,700,o),
(310,690,o),
(310,660,cs),
(310,627,l),
(230,627,l),
(230,660,ls),
(230,690,o),
(220,700,o),
(190,700,cs),
(90,700,ls),
(60,700,o),
(50,690,o),
(50,660,cs),
(50,627,l),
(30,627,ls),
(15,627,o),
(10,622,o),
(10,607,cs),
(10,520,ls),
(10,505,o),
(15,500,o),
(30,500,cs),
(50,500,l),
(50,40,ls),
(50,10,o),
(60,0,o),
(90,0,cs)
);
},
{
closed = 1;
nodes = (
(230,500,l),
(310,500,l),
(310,470,ls),
(310,455,o),
(305,450,o),
(290,450,cs),
(250,450,ls),
(235,450,o),
(230,455,o),
(230,470,cs)
);
}
);
width = 540;
},
{
layerId = m003;
shapes = (
{
closed = 1;
nodes = (
(190,0,ls),
(220,0,o),
(230,10,o),
(230,40,cs),
(230,280,ls),
(230,295,o),
(235,300,o),
(250,300,cs),
(290,300,ls),
(305,300,o),
(310,295,o),
(310,280,cs),
(310,40,ls),
(310,10,o),
(320,0,o),
(350,0,cs),
(450,0,ls),
(480,0,o),
(490,10,o),
(490,40,cs),
(490,500,l),
(510,500,ls),
(525,500,o),
(530,505,o),
(530,520,cs),
(530,607,ls),
(530,622,o),
(525,627,o),
(510,627,cs),
(490,627,l),
(490,660,ls),
(490,690,o),
(480,700,o),
(450,700,cs),
(350,700,ls),
(320,700,o),
(310,690,o),
(310,660,cs),
(310,627,l),
(230,627,l),
(230,660,ls),
(230,690,o),
(220,700,o),
(190,700,cs),
(90,700,ls),
(60,700,o),
(50,690,o),
(50,660,cs),
(50,627,l),
(30,627,ls),
(15,627,o),
(10,622,o),
(10,607,cs),
(10,520,ls),
(10,505,o),
(15,500,o),
(30,500,cs),
(50,500,l),
(50,40,ls),
(50,10,o),
(60,0,o),
(90,0,cs)
);
},
{
closed = 1;
nodes = (
(230,500,l),
(310,500,l),
(310,470,ls),
(310,455,o),
(305,450,o),
(290,450,cs),
(250,450,ls),
(235,450,o),
(230,455,o),
(230,470,cs)
);
}
);
width = 540;
},
{
layerId = m004;
shapes = (
{
closed = 1;
nodes = (
(190,0,ls),
(220,0,o),
(230,10,o),
(230,40,cs),
(230,280,ls),
(230,295,o),
(235,300,o),
(250,300,cs),
(290,300,ls),
(305,300,o),
(310,295,o),
(310,280,cs),
(310,40,ls),
(310,10,o),
(320,0,o),
(350,0,cs),
(450,0,ls),
(480,0,o),
(490,10,o),
(490,40,cs),
(490,500,l),
(510,500,ls),
(525,500,o),
(530,505,o),
(530,520,cs),
(530,607,ls),
(530,622,o),
(525,627,o),
(510,627,cs),
(490,627,l),
(490,660,ls),
(490,690,o),
(480,700,o),
(450,700,cs),
(350,700,ls),
(320,700,o),
(310,690,o),
(310,660,cs),
(310,627,l),
(230,627,l),
(230,660,ls),
(230,690,o),
(220,700,o),
(190,700,cs),
(90,700,ls),
(60,700,o),
(50,690,o),
(50,660,cs),
(50,627,l),
(30,627,ls),
(15,627,o),
(10,622,o),
(10,607,cs),
(10,520,ls),
(10,505,o),
(15,500,o),
(30,500,cs),
(50,500,l),
(50,40,ls),
(50,10,o),
(60,0,o),
(90,0,cs)
);
},
{
closed = 1;
nodes = (
(230,500,l),
(310,500,l),
(310,470,ls),
(310,455,o),
(305,450,o),
(290,450,cs),
(250,450,ls),
(235,450,o),
(230,455,o),
(230,470,cs)
);
}
);
width = 540;
}
);
unicode = 294;
},
{
color = 5;
glyphname = I;
kernLeft = H;
kernRight = H;
layers = (
{
anchors = (
{
name = top;
pos = (120,700);
}
);
layerId = m01;
shapes = (
{
closed = 1;
nodes = (
(170,0,ls),
(200,0,o),
(210,10,o),
(210,40,cs),
(210,660,ls),
(210,690,o),
(200,700,o),
(170,700,cs),
(70,700,ls),
(40,700,o),
(30,690,o),
(30,660,cs),
(30,40,ls),
(30,10,o),
(40,0,o),
(70,0,cs)
);
}
);
width = 240;
},
{
anchors = (
{
name = top;
pos = (120,700);
}
);
layerId = "6ABCF30A-460E-4EED-802C-9E4699B7E7F6";
shapes = (
{
closed = 1;
nodes = (
(185,0,ls),
(215,0,o),
(225,10,o),
(225,40,cs),
(225,660,ls),
(225,690,o),
(215,700,o),
(185,700,cs),
(55,700,ls),
(25,700,o),
(15,690,o),
(15,660,cs),
(15,40,ls),
(15,10,o),
(25,0,o),
(55,0,cs)
);
}
);
width = 240;
},
{
anchors = (
{
name = top;
pos = (110,700);
}
);
layerId = m003;
shapes = (
{
closed = 1;
nodes = (
(170,0,ls),
(200,0,o),
(210,10,o),
(210,40,cs),
(210,660,ls),
(210,690,o),
(200,700,o),
(170,700,cs),
(70,700,ls),
(40,700,o),
(30,690,o),
(30,660,cs),
(30,40,ls),
(30,10,o),
(40,0,o),
(70,0,cs)
);
}
);
width = 240;
},
{
anchors = (
{
name = top;
pos = (145,700);
}
);
layerId = m004;
shapes = (
{
closed = 1;
nodes = (
(235,0,ls),
(265,0,o),
(275,10,o),
(275,40,cs),
(275,660,ls),
(275,690,o),
(265,700,o),
(235,700,cs),
(55,700,ls),
(25,700,o),
(15,690,o),
(15,660,cs),
(15,40,ls),
(15,10,o),
(25,0,o),
(55,0,cs)
);
}
);
width = 290;
}
);
unicode = 73;
},
{
color = 5;
glyphname = Iogonek;
layers = (
{
layerId = m01;
shapes = (
{
closed = 1;
nodes = (
(60,0,o),
(64,-4,o),
(64,-10,cs),
(64,-30,o),
(18,-38,o),
(18,-92,cs),
(18,-147,o),
(72,-174,o),
(170,-174,cs),
(184,-174,o),
(190,-164,o),
(190,-154,cs),
(190,-103,ls),
(190,-91,o),
(184,-83,o),
(170,-83,cs),
(138,-83,o),
(110,-70,o),
(110,-50,cs),
(110,-29,o),
(128,0,o),
(170,0,cs),
(200,0,o),
(210,10,o),
(210,40,cs),
(210,660,ls),
(210,690,o),
(200,700,o),
(170,700,cs),
(50,700,ls),
(20,700,o),
(10,690,o),
(10,660,cs),
(10,40,ls),
(10,10,o),
(20,0,o),
(50,0,cs)
);
}
);
width = 220;
},
{
layerId = "6ABCF30A-460E-4EED-802C-9E4699B7E7F6";
shapes = (
{
closed = 1;
nodes = (
(60,0,o),
(64,-4,o),
(64,-10,cs),
(64,-30,o),
(18,-38,o),
(18,-92,cs),
(18,-147,o),
(72,-174,o),
(170,-174,cs),
(184,-174,o),
(190,-164,o),
(190,-154,cs),
(190,-103,ls),
(190,-91,o),
(184,-83,o),
(170,-83,cs),
(138,-83,o),
(110,-70,o),
(110,-50,cs),
(110,-29,o),
(128,0,o),
(170,0,cs),
(200,0,o),
(210,10,o),
(210,40,cs),
(210,660,ls),
(210,690,o),
(200,700,o),
(170,700,cs),
(50,700,ls),
(20,700,o),
(10,690,o),
(10,660,cs),
(10,40,ls),
(10,10,o),
(20,0,o),
(50,0,cs)
);
}
);
width = 220;
},
{
layerId = m003;
shapes = (
{
closed = 1;
nodes = (
(60,0,o),
(64,-4,o),
(64,-10,cs),
(64,-30,o),
(18,-38,o),
(18,-92,cs),
(18,-147,o),
(72,-174,o),
(170,-174,cs),
(184,-174,o),
(190,-164,o),
(190,-154,cs),
(190,-103,ls),
(190,-91,o),
(184,-83,o),
(170,-83,cs),
(138,-83,o),
(110,-70,o),
(110,-50,cs),
(110,-29,o),
(128,0,o),
(170,0,cs),
(200,0,o),
(210,10,o),
(210,40,cs),
(210,660,ls),
(210,690,o),
(200,700,o),
(170,700,cs),
(50,700,ls),
(20,700,o),
(10,690,o),
(10,660,cs),
(10,40,ls),
(10,10,o),
(20,0,o),
(50,0,cs)
);
}
);
width = 220;
},
{
layerId = m004;
shapes = (
{
closed = 1;
nodes = (
(60,0,o),
(64,-4,o),
(64,-10,cs),
(64,-30,o),
(18,-38,o),
(18,-92,cs),
(18,-147,o),
(72,-174,o),
(170,-174,cs),
(184,-174,o),
(190,-164,o),
(190,-154,cs),
(190,-103,ls),
(190,-91,o),
(184,-83,o),
(170,-83,cs),
(138,-83,o),
(110,-70,o),
(110,-50,cs),
(110,-29,o),
(128,0,o),
(170,0,cs),
(200,0,o),
(210,10,o),
(210,40,cs),
(210,660,ls),
(210,690,o),
(200,700,o),
(170,700,cs),
(50,700,ls),
(20,700,o),
(10,690,o),
(10,660,cs),
(10,40,ls),
(10,10,o),
(20,0,o),
(50,0,cs)
);
}
);
width = 220;
}
);
unicode = 302;
},
{
color = 5;
glyphname = J;
kernLeft = J;
kernRight = J;
layers = (
{
layerId = m01;
shapes = (
{
closed = 1;
nodes = (
(141,0,ls),
(281,0,o),
(290,60,o),
(290,200,cs),
(290,660,ls),
(290,690,o),
(280,700,o),
(250,700,cs),
(150,700,ls),
(120,700,o),
(110,690,o),
(110,660,cs),
(110,170,ls),
(110,155,o),
(105,150,o),
(90,150,cs),
(50,150,ls),
(20,150,o),
(10,140,o),
(10,110,cs),
(10,40,ls),
(10,10,o),
(20,0,o),
(50,0,cs)
);
}
);
width = 305;
},
{
layerId = "6ABCF30A-460E-4EED-802C-9E4699B7E7F6";
shapes = (
{
closed = 1;
nodes = (
(146,0,ls),
(266,0,o),
(295,40,o),
(295,200,cs),
(295,660,ls),
(295,690,o),
(285,700,o),
(255,700,cs),
(120,700,ls),
(90,700,o),
(80,690,o),
(80,660,cs),
(80,230,ls),
(80,215,o),
(75,210,o),
(60,210,cs),
(50,210,ls),
(20,210,o),
(10,200,o),
(10,170,cs),
(10,40,ls),
(10,10,o),
(20,0,o),
(50,0,cs)
);
}
);
width = 305;
},
{
layerId = m004;
shapes = (
{
closed = 1;
nodes = (
(196,0,ls),
(336,0,o),
(345,60,o),
(345,200,cs),
(345,660,ls),
(345,690,o),
(335,700,o),
(305,700,cs),
(115,700,ls),
(85,700,o),
(75,690,o),
(75,660,cs),
(75,170,ls),
(75,155,o),
(70,150,o),
(55,150,cs),
(50,150,ls),
(20,150,o),
(10,140,o),
(10,110,cs),
(10,40,ls),
(10,10,o),
(20,0,o),
(50,0,cs)
);
}
);
width = 360;
},
{
layerId = m003;
shapes = (
{
closed = 1;
nodes = (
(141,0,ls),
(281,0,o),
(290,60,o),
(290,200,cs),
(290,660,ls),
(290,690,o),
(280,700,o),
(250,700,cs),
(150,700,ls),
(120,700,o),
(110,690,o),
(110,660,cs),
(110,170,ls),
(110,155,o),
(105,150,o),
(90,150,cs),
(50,150,ls),
(20,150,o),
(10,140,o),
(10,110,cs),
(10,40,ls),
(10,10,o),
(20,0,o),
(50,0,cs)
);
}
);
width = 305;
}
);
unicode = 74;
},
{
color = 5;
glyphname = K;
kernLeft = H;
kernRight = K;
layers = (
{
anchors = (
{
name = bottom;
pos = (235,0);
}
);
layerId = m01;
shapes = (
{
closed = 1;
nodes = (
(160,0,ls),
(190,0,o),
(200,10,o),
(200,40,cs),
(200,290,ls),
(200,297,o),
(203,300,o),
(210,300,cs),
(215,300,o),
(221,297,o),
(225,280,cs),
(286,40,ls),
(294,10,o),
(306,0,o),
(336,0,cs),
(429,0,ls),
(459,0,o),
(469,10,o),
(469,40,cs),
(469,60,o),
(464,78,o),
(456,105,cs),
(384,346,ls),
(378,367,o),
(379,381,o),
(379,391,cs),
(379,401,o),
(384,417,o),
(394,446,cs),
(450,603,ls),
(456,619,o),
(470,656,o),
(470,670,cs),
(470,690,o),
(460,700,o),
(430,700,cs),
(336,700,ls),
(309,700,o),
(296,692,o),
(286,660,cs),
(225,470,ls),
(221,457,o),
(215,450,o),
(210,450,cs),
(203,450,o),
(200,453,o),
(200,460,cs),
(200,660,ls),
(200,690,o),
(190,700,o),
(160,700,cs),
(60,700,ls),
(30,700,o),
(20,690,o),
(20,660,cs),
(20,40,ls),
(20,10,o),
(30,-1,o),
(60,-1,cs)
);
}
);
width = 480;
},
{
anchors = (
{
name = bottom;
pos = (240,0);
}
);
layerId = "6ABCF30A-460E-4EED-802C-9E4699B7E7F6";
shapes = (
{
closed = 1;
nodes = (
(185,0,ls),
(215,0,o),
(225,10,o),
(225,40,cs),
(222,280,ls),
(222,293,o),
(227,300,o),
(237,300,cs),
(247,300,o),
(252,293,o),
(252,280,cs),
(255,40,ls),
(255,10,o),
(275,0,o),
(305,0,cs),
(434,0,ls),
(464,0,o),
(474,10,o),
(474,40,cs),
(474,60,o),
(471,78,o),
(466,105,cs),
(419,346,ls),
(415,367,o),
(414,381,o),
(414,391,cs),
(414,401,o),
(413,419,o),
(421,448,cs),
(463,603,ls),
(467,619,o),
(475,656,o),
(475,670,cs),
(475,690,o),
(465,700,o),
(435,700,cs),
(302,700,ls),
(275,700,o),
(252,692,o),
(252,660,cs),
(252,470,ls),
(252,457,o),
(247,450,o),
(237,450,cs),
(227,450,o),
(222,457,o),
(222,470,cs),
(222,660,ls),
(222,690,o),
(212,700,o),
(182,700,cs),
(55,700,ls),
(25,700,o),
(15,690,o),
(15,660,cs),
(15,40,ls),
(15,10,o),
(25,-1,o),
(55,-1,cs)
);
}
);
width = 480;
},
{
associatedMasterId = m01;
layerId = "28FAFFF5-5106-4221-A298-96EE7AA46BF8";
name = "Sep 28, 22, 14:25";
shapes = (
{
closed = 1;
nodes = (
(38,0,l),
(218,0,l),
(218,700,l),
(38,700,l)
);
},
{
closed = 1;
nodes = (
(100,227,l),
(218,190,l),
(496,700,l),
(316,700,l)
);
},
{
closed = 1;
nodes = (
(309,0,l),
(506,0,l),
(369,504,l),
(226,420,l)
);
}
);
width = 520;
},
{
associatedMasterId = m01;
layerId = "FF3A616A-420D-43A2-9FB8-15C05695BF8C";
name = "Sep 28, 22, 14:25";
shapes = (
{
closed = 1;
nodes = (
(160,0,ls),
(190,0,o),
(200,10,o),
(200,40,cs),
(200,290,ls),
(200,297,o),
(203,300,o),
(210,300,cs),
(215,300,o),
(220,297,o),
(225,280,cs),
(300,40,ls),
(309,10,o),
(320,0,o),
(350,0,cs),
(470,0,ls),
(500,0,o),
(510,10,o),
(510,40,cs),
(510,60,o),
(502,78,o),
(482,124,cs),
(385,353,ls),
(376,374,o),
(371,390,o),
(371,400,cs),
(371,410,o),
(375,422,o),
(389,449,cs),
(480,621,ls),
(489,637,o),
(500,656,o),
(500,670,cs),
(500,690,o),
(490,700,o),
(460,700,cs),
(365,700,ls),
(338,700,o),
(329,690,o),
(315,660,cs),
(225,470,ls),
(219,457,o),
(215,450,o),
(210,450,cs),
(203,450,o),
(200,453,o),
(200,460,cs),
(200,660,ls),
(200,690,o),
(190,700,o),
(160,700,cs),
(60,700,ls),
(30,700,o),
(20,690,o),
(20,660,cs),
(20,40,ls),
(20,10,o),
(30,-1,o),
(60,-1,cs)
);
}
);
width = 520;
},
{
associatedMasterId = m01;
layerId = "4DD78AB3-BE21-4D13-864C-D6B39781595E";
name = "Oct 1, 22, 11:17";
shapes = (
{
closed = 1;
nodes = (
(160,0,ls),
(190,0,o),
(200,10,o),
(200,40,cs),
(200,185,ls),
(200,202,o),
(202,207,o),
(204,212,cs),
(222,254,ls),
(225,261,o),
(231,267,o),
(236,267,cs),
(241,267,o),
(245,261,o),
(246,252,cs),
(280,40,ls),
(285,8,o),
(297,0,o),
(320,0,cs),
(424,0,ls),
(454,0,o),
(464,10,o),
(464,40,cs),
(464,50,o),
(458,75,o),
(447,123,cs),
(376,424,ls),
(371,445,o),
(365,462,o),
(365,472,cs),
(365,482,o),
(369,492,o),
(383,520,cs),
(435,621,ls),
(444,638,o),
(455,656,o),
(455,670,cs),
(455,690,o),
(445,700,o),
(415,700,cs),
(330,700,ls),
(303,700,o),
(295,693,o),
(280,660,cs),
(225,540,ls),
(219,527,o),
(215,520,o),
(210,520,cs),
(203,520,o),
(200,523,o),
(200,530,cs),
(200,660,ls),
(200,690,o),
(190,700,o),
(160,700,cs),
(60,700,ls),
(30,700,o),
(20,690,o),
(20,660,cs),
(20,40,ls),
(20,10,o),
(30,-1,o),
(60,-1,cs)
);
}
);
width = 474;
},
{
anchors = (
{
name = bottom;
pos = (235,0);
}
);
layerId = m003;
shapes = (
{
closed = 1;
nodes = (
(170,0,ls),
(200,0,o),
(210,10,o),
(210,40,cs),
(210,310,ls),
(210,317,o),
(213,320,o),
(220,320,cs),
(225,320,o),
(227,315,o),
(235,300,cs),
(376,40,ls),
(390,14,o),
(396,0,o),
(426,0,cs),
(519,0,ls),
(549,0,o),
(559,10,o),
(559,40,cs),
(559,60,o),
(562,82,o),
(546,105,cs),
(384,346,ls),
(372,364,o),
(369,381,o),
(369,391,cs),
(369,401,o),
(373,423,o),
(394,446,cs),
(540,603,ls),
(552,615,o),
(560,656,o),
(560,670,cs),
(560,690,o),
(550,700,o),
(520,700,cs),
(426,700,ls),
(399,700,o),
(395,689,o),
(376,660,cs),
(235,450,ls),
(228,440,o),
(225,430,o),
(220,430,cs),
(213,430,o),
(210,433,o),
(210,440,cs),
(210,660,ls),
(210,690,o),
(200,700,o),
(170,700,cs),
(70,700,ls),
(40,700,o),
(30,690,o),
(30,660,cs),
(30,40,ls),
(30,10,o),
(40,-1,o),
(70,-1,cs)
);
}
);
width = 580;
},
{
associatedMasterId = m003;
layerId = "CBBAD993-64ED-488E-A25D-EBCA4D91245C";
name = "Sep 28, 22, 14:25";
shapes = (
{
closed = 1;
nodes = (
(38,0,l),
(218,0,l),
(218,700,l),
(38,700,l)
);
},
{
closed = 1;
nodes = (
(100,227,l),
(218,190,l),
(496,700,l),
(316,700,l)
);
},
{
closed = 1;
nodes = (
(309,0,l),
(506,0,l),
(369,504,l),
(226,420,l)
);
}
);
width = 520;
},
{
associatedMasterId = m003;
layerId = "98A154BF-6AAA-40FF-8C00-771269A9A3B2";
name = "Sep 28, 22, 14:25";
shapes = (
{
closed = 1;
nodes = (
(160,0,ls),
(190,0,o),
(200,10,o),
(200,40,cs),
(200,290,ls),
(200,297,o),
(203,300,o),
(210,300,cs),
(215,300,o),
(220,297,o),
(225,280,cs),
(300,40,ls),
(309,10,o),
(320,0,o),
(350,0,cs),
(470,0,ls),
(500,0,o),
(510,10,o),
(510,40,cs),
(510,60,o),
(502,78,o),
(482,124,cs),
(385,353,ls),
(376,374,o),
(371,390,o),
(371,400,cs),
(371,410,o),
(375,422,o),
(389,449,cs),
(480,621,ls),
(489,637,o),
(500,656,o),
(500,670,cs),
(500,690,o),
(490,700,o),
(460,700,cs),
(365,700,ls),
(338,700,o),
(329,690,o),
(315,660,cs),
(225,470,ls),
(219,457,o),
(215,450,o),
(210,450,cs),
(203,450,o),
(200,453,o),
(200,460,cs),
(200,660,ls),
(200,690,o),
(190,700,o),
(160,700,cs),
(60,700,ls),
(30,700,o),
(20,690,o),
(20,660,cs),
(20,40,ls),
(20,10,o),
(30,-1,o),
(60,-1,cs)
);
}
);
width = 520;
},
{
associatedMasterId = m003;
layerId = "CFB88AB5-ECB1-4043-BA10-E8DBD5F44252";
name = "Oct 1, 22, 11:17";
shapes = (
{
closed = 1;
nodes = (
(160,0,ls),
(190,0,o),
(200,10,o),
(200,40,cs),
(200,185,ls),
(200,202,o),
(202,207,o),
(204,212,cs),
(222,254,ls),
(225,261,o),
(231,267,o),
(236,267,cs),
(241,267,o),
(245,261,o),
(246,252,cs),
(280,40,ls),
(285,8,o),
(297,0,o),
(320,0,cs),
(424,0,ls),
(454,0,o),
(464,10,o),
(464,40,cs),
(464,50,o),
(458,75,o),
(447,123,cs),
(376,424,ls),
(371,445,o),
(365,462,o),
(365,472,cs),
(365,482,o),
(369,492,o),
(383,520,cs),
(435,621,ls),
(444,638,o),
(455,656,o),
(455,670,cs),
(455,690,o),
(445,700,o),
(415,700,cs),
(330,700,ls),
(303,700,o),
(295,693,o),
(280,660,cs),
(225,540,ls),
(219,527,o),
(215,520,o),
(210,520,cs),
(203,520,o),
(200,523,o),
(200,530,cs),
(200,660,ls),
(200,690,o),
(190,700,o),
(160,700,cs),
(60,700,ls),
(30,700,o),
(20,690,o),
(20,660,cs),
(20,40,ls),
(20,10,o),
(30,-1,o),
(60,-1,cs)
);
}
);
width = 474;
},
{
anchors = (
{
name = bottom;
pos = (235,0);
}
);
layerId = m004;
shapes = (
{
closed = 1;
nodes = (
(235,0,ls),
(265,0,o),
(275,10,o),
(275,40,cs),
(272,280,ls),
(272,293,o),
(277,300,o),
(287,300,cs),
(297,300,o),
(302,293,o),
(302,280,cs),
(305,40,ls),
(305,10,o),
(325,0,o),
(355,0,cs),
(534,0,ls),
(564,0,o),
(574,10,o),
(574,40,cs),
(574,60,o),
(571,78,o),
(566,105,cs),
(519,346,ls),
(515,367,o),
(514,381,o),
(514,391,cs),
(514,401,o),
(513,419,o),
(521,448,cs),
(563,603,ls),
(567,619,o),
(575,656,o),
(575,670,cs),
(575,690,o),
(565,700,o),
(535,700,cs),
(352,700,ls),
(325,700,o),
(302,692,o),
(302,660,cs),
(302,470,ls),
(302,457,o),
(297,450,o),
(287,450,cs),
(277,450,o),
(272,457,o),
(272,470,cs),
(272,660,ls),
(272,690,o),
(262,700,o),
(232,700,cs),
(55,700,ls),
(25,700,o),
(15,690,o),
(15,660,cs),
(15,40,ls),
(15,10,o),
(25,-1,o),
(55,-1,cs)
);
}
);
width = 580;
}
);
unicode = 75;
},
{
color = 5;
glyphname = L;
kernLeft = H;
kernRight = L;
layers = (
{
anchors = (
{
name = bottom;
pos = (185,0);
},
{
name = topright;
pos = (195,700);
}
);
layerId = m01;
shapes = (
{
closed = 1;
nodes = (
(300,0,ls),
(330,0,o),
(340,10,o),
(340,40,cs),
(340,110,ls),
(340,140,o),
(330,150,o),
(300,150,cs),
(220,150,ls),
(205,150,o),
(200,155,o),
(200,170,cs),
(200,660,ls),
(200,690,o),
(190,700,o),
(160,700,cs),
(60,700,ls),
(30,700,o),
(20,690,o),
(20,660,cs),
(20,40,ls),
(20,10,o),
(30,0,o),
(60,0,cs)
);
}
);
width = 350;
},
{
anchors = (
{
name = bottom;
pos = (175,0);
},
{
name = topright;
pos = (195,700);
}
);
layerId = "6ABCF30A-460E-4EED-802C-9E4699B7E7F6";
shapes = (
{
closed = 1;
nodes = (
(300,0,ls),
(330,0,o),
(340,10,o),
(340,40,cs),
(340,170,ls),
(340,200,o),
(330,210,o),
(300,210,cs),
(240,210,ls),
(225,210,o),
(220,215,o),
(220,230,cs),
(220,660,ls),
(220,690,o),
(210,700,o),
(180,700,cs),
(50,700,ls),
(20,700,o),
(10,690,o),
(10,660,cs),
(10,40,ls),
(10,10,o),
(20,0,o),
(50,0,cs)
);
}
);
width = 350;
},
{
anchors = (
{
name = bottom;
pos = (185,0);
},
{
name = topright;
pos = (195,700);
}
);
layerId = m003;
shapes = (
{
closed = 1;
nodes = (
(390,0,ls),
(420,0,o),
(430,10,o),
(430,40,cs),
(430,110,ls),
(430,140,o),
(420,150,o),
(390,150,cs),
(230,150,ls),
(215,150,o),
(210,155,o),
(210,170,cs),
(210,660,ls),
(210,690,o),
(200,700,o),
(170,700,cs),
(70,700,ls),
(40,700,o),
(30,690,o),
(30,660,cs),
(30,40,ls),
(30,10,o),
(40,0,o),
(70,0,cs)
);
}
);
width = 450;
},
{
anchors = (
{
name = bottom;
pos = (175,0);
},
{
name = topright;
pos = (145,700);
}
);
layerId = m004;
shapes = (
{
closed = 1;
nodes = (
(410,0,ls),
(430,0,o),
(440,10,o),
(440,40,cs),
(440,190,ls),
(440,220,o),
(430,230,o),
(410,230,cs),
(310,230,ls),
(295,230,o),
(290,235,o),
(290,250,cs),
(290,660,ls),
(290,690,o),
(280,700,o),
(250,700,cs),
(60,700,ls),
(30,700,o),
(20,690,o),
(20,660,cs),
(20,40,ls),
(20,10,o),
(30,0,o),
(60,0,cs)
);
}
);
width = 450;
}
);
unicode = 76;
},
{
color = 5;
glyphname = Lslash;
layers = (
{
layerId = m01;
shapes = (
{
closed = 1;
nodes = (
(300,0,ls),
(330,0,o),
(340,10,o),
(340,40,cs),
(340,110,ls),
(340,140,o),
(330,150,o),
(300,150,cs),
(220,150,ls),
(205,150,o),
(200,155,o),
(200,170,cs),
(200,660,ls),
(200,690,o),
(190,700,o),
(160,700,cs),
(60,700,ls),
(30,700,o),
(20,690,o),
(20,660,cs),
(20,40,ls),
(20,10,o),
(30,0,o),
(60,0,cs)
);
},
{
closed = 1;
nodes = (
(-154,222,l),
(-62,222,l),
(338,613,l),
(246,613,l)
);
}
);
width = 350;
},
{
layerId = "6ABCF30A-460E-4EED-802C-9E4699B7E7F6";
shapes = (
{
closed = 1;
nodes = (
(300,0,ls),
(330,0,o),
(340,10,o),
(340,40,cs),
(340,110,ls),
(340,140,o),
(330,150,o),
(300,150,cs),
(220,150,ls),
(205,150,o),
(200,155,o),
(200,170,cs),
(200,660,ls),
(200,690,o),
(190,700,o),
(160,700,cs),
(60,700,ls),
(30,700,o),
(20,690,o),
(20,660,cs),
(20,40,ls),
(20,10,o),
(30,0,o),
(60,0,cs)
);
},
{
closed = 1;
nodes = (
(-154,222,l),
(-62,222,l),
(338,613,l),
(246,613,l)
);
}
);
width = 350;
},
{
layerId = m003;
shapes = (
{
closed = 1;
nodes = (
(300,0,ls),
(330,0,o),
(340,10,o),
(340,40,cs),
(340,110,ls),
(340,140,o),
(330,150,o),
(300,150,cs),
(220,150,ls),
(205,150,o),
(200,155,o),
(200,170,cs),
(200,660,ls),
(200,690,o),
(190,700,o),
(160,700,cs),
(60,700,ls),
(30,700,o),
(20,690,o),
(20,660,cs),
(20,40,ls),
(20,10,o),
(30,0,o),
(60,0,cs)
);
},
{
closed = 1;
nodes = (
(-154,222,l),
(-62,222,l),
(338,613,l),
(246,613,l)
);
}
);
width = 350;
},
{
layerId = m004;
shapes = (
{
closed = 1;
nodes = (
(300,0,ls),
(330,0,o),
(340,10,o),
(340,40,cs),
(340,110,ls),
(340,140,o),
(330,150,o),
(300,150,cs),
(220,150,ls),
(205,150,o),
(200,155,o),
(200,170,cs),
(200,660,ls),
(200,690,o),
(190,700,o),
(160,700,cs),
(60,700,ls),
(30,700,o),
(20,690,o),
(20,660,cs),
(20,40,ls),
(20,10,o),
(30,0,o),
(60,0,cs)
);
},
{
closed = 1;
nodes = (
(-154,222,l),
(-62,222,l),
(338,613,l),
(246,613,l)
);
}
);
width = 350;
}
);
unicode = 321;
},
{
color = 5;
glyphname = M;
kernLeft = H;
kernRight = H;
layers = (
{
layerId = m01;
shapes = (
{
closed = 1;
nodes = (
(150,0,ls),
(180,0,o),
(190,10,o),
(190,40,cs),
(190,369,ls),
(190,383,o),
(193,390,o),
(203,390,cs),
(213,390,o),
(217,383,o),
(220,355,cs),
(250,40,ls),
(252,18,o),
(255,0,o),
(275,0,cs),
(325,0,ls),
(345,0,o),
(348,20,o),
(350,40,cs),
(380,355,ls),
(383,383,o),
(387,390,o),
(396,390,cs),
(406,390,o),
(410,383,o),
(410,369,cs),
(410,40,ls),
(410,10,o),
(420,0,o),
(450,0,cs),
(540,0,ls),
(570,0,o),
(580,10,o),
(580,40,cs),
(580,660,ls),
(580,690,o),
(570,700,o),
(540,700,cs),
(395,700,ls),
(370,700,o),
(348,689,o),
(345,660,cs),
(314,339,ls),
(312,316,o),
(308,310,o),
(300,310,cs),
(292,310,o),
(288,316,o),
(286,339,cs),
(255,660,ls),
(252,688,o),
(230,700,o),
(205,700,cs),
(60,700,ls),
(30,700,o),
(20,690,o),
(20,660,cs),
(20,40,ls),
(20,10,o),
(30,0,o),
(60,0,cs)
);
}
);
width = 600;
},
{
associatedMasterId = m01;
layerId = "F688C055-9C97-4D66-8266-B110343FC198";
name = test;
shapes = (
{
closed = 1;
nodes = (
(310,449,o),
(298,477,qs),
(223,654,ls),
(208,689,o),
(172,710,o),
(141,710,qs),
(88,710,ls),
(71,710,o),
(47,700,o),
(35,688,o),
(29,662,o),
(28,646,o),
(28,630,qs),
(28,80,ls),
(28,64,o),
(29,48,o),
(35,22,o),
(47,10,o),
(71,0,o),
(88,0,qs),
(138,0,ls),
(155,0,o),
(179,10,o),
(191,22,o),
(197,48,o),
(198,64,o),
(198,80,qs),
(198,355,ls),
(198,365,o),
(203,365,qs),
(207,365,o),
(212,355,qs),
(225,329,o),
(251,274,o),
(265,243,o),
(280,212,o),
(289,197,o),
(300,184,o),
(311,180,o),
(325,180,o),
(336,184,o),
(347,197,o),
(356,212,o),
(370,243,o),
(385,274,o),
(411,328,o),
(424,355,qs),
(429,365,o),
(433,365,qs),
(438,365,o),
(438,355,qs),
(438,80,ls),
(438,64,o),
(439,48,o),
(445,22,o),
(457,10,o),
(481,0,o),
(498,0,qs),
(548,0,ls),
(565,0,o),
(589,10,o),
(601,22,o),
(607,48,o),
(608,64,o),
(608,80,qs),
(608,630,ls),
(608,646,o),
(607,662,o),
(601,688,o),
(589,700,o),
(565,710,o),
(548,710,qs),
(494,710,ls),
(463,710,o),
(428,690,o),
(413,654,qs),
(338,477,ls),
(326,449,o)
);
}
);
width = 640;
},
{
associatedMasterId = m01;
layerId = "FA050349-1282-4837-B37B-CF4E3E2D2328";
name = "Sep 11, 22, 15:10";
shapes = (
{
closed = 1;
nodes = (
(160,0,ls),
(190,0,o),
(200,10,o),
(200,40,cs),
(200,370,ls),
(200,384,o),
(202,390,o),
(210,390,cs),
(219,390,o),
(219,383,o),
(240,350,cs),
(283,281,o),
(290,260,o),
(310,260,cs),
(329,260,o),
(336,279,o),
(380,350,cs),
(401,383,o),
(402,390,o),
(410,390,cs),
(417,390,o),
(420,384,o),
(420,370,cs),
(420,40,ls),
(420,10,o),
(430,0,o),
(460,0,cs),
(560,0,ls),
(590,0,o),
(600,10,o),
(600,40,cs),
(600,660,ls),
(600,690,o),
(590,700,o),
(560,700,cs),
(450,700,ls),
(420,700,o),
(415,690,o),
(400,660,cs),
(334,530,ls),
(323,508,o),
(319,500,o),
(310,500,cs),
(302,500,o),
(297,511,o),
(287,530,cs),
(220,660,ls),
(205,689,o),
(200,700,o),
(170,700,cs),
(60,700,ls),
(30,700,o),
(20,690,o),
(20,660,cs),
(20,40,ls),
(20,10,o),
(30,0,o),
(60,0,cs)
);
}
);
width = 620;
},
{
associatedMasterId = m01;
layerId = "7FB62D56-ADA4-4438-90B2-D208D1EAB350";
name = "Sep 11, 22, 20:36";
shapes = (
{
closed = 1;
nodes = (
(150,0,ls),
(180,0,o),
(190,10,o),
(190,40,cs),
(190,300,ls),
(190,314,o),
(194,320,o),
(201,320,cs),
(210,320,o),
(210,309,o),
(231,270,cs),
(280,180,ls),
(291,159,o),
(295,150,o),
(310,150,cs),
(330,150,ls),
(345,150,o),
(349,159,o),
(360,180,cs),
(406,270,ls),
(425,308,o),
(430,320,o),
(438,320,cs),
(445,320,o),
(450,314,o),
(450,300,cs),
(450,40,ls),
(450,10,o),
(460,0,o),
(490,0,cs),
(580,0,ls),
(610,0,o),
(620,10,o),
(620,40,cs),
(620,660,ls),
(620,690,o),
(610,700,o),
(580,700,cs),
(480,700,ls),
(450,700,o),
(441,688,o),
(430,660,cs),
(344,449,ls),
(335,427,o),
(329,420,o),
(320,420,cs),
(312,420,o),
(306,428,o),
(297,449,cs),
(210,660,ls),
(199,687,o),
(190,700,o),
(160,700,cs),
(60,700,ls),
(30,700,o),
(20,690,o),
(20,660,cs),
(20,40,ls),
(20,10,o),
(30,0,o),
(60,0,cs)
);
}
);
width = 640;
},
{
associatedMasterId = m01;
layerId = "9D7C4878-F1B4-4F97-BAE7-DE9E3A2EB586";
name = "Sep 11, 22, 20:44";
shapes = (
{
closed = 1;
nodes = (
(150,0,ls),
(180,0,o),
(190,10,o),
(190,40,cs),
(190,300,ls),
(190,314,o),
(194,320,o),
(201,320,cs),
(210,320,o),
(210,313,o),
(221,270,cs),
(280,30,ls),
(286,7,o),
(295,0,o),
(310,0,cs),
(325,0,o),
(334,6,o),
(340,30,cs),
(396,270,ls),
(406,312,o),
(410,320,o),
(418,320,cs),
(425,320,o),
(430,314,o),
(430,300,cs),
(430,40,ls),
(430,10,o),
(440,0,o),
(470,0,cs),
(560,0,ls),
(590,0,o),
(600,10,o),
(600,40,cs),
(600,660,ls),
(600,690,o),
(590,700,o),
(560,700,cs),
(440,700,ls),
(410,700,o),
(397,688,o),
(390,660,cs),
(326,389,ls),
(321,367,o),
(316,360,o),
(310,360,cs),
(305,360,o),
(300,367,o),
(295,389,cs),
(230,660,ls),
(223,687,o),
(210,700,o),
(180,700,cs),
(60,700,ls),
(30,700,o),
(20,690,o),
(20,660,cs),
(20,40,ls),
(20,10,o),
(30,0,o),
(60,0,cs)
);
}
);
width = 620;
},
{
associatedMasterId = m01;
layerId = "D534A2C4-B49F-44A5-9A7C-B8990F7B1876";
name = "Sep 11, 22, 20:46";
shapes = (
{
closed = 1;
nodes = (
(150,0,ls),
(180,0,o),
(190,10,o),
(190,40,cs),
(190,270,ls),
(190,284,o),
(194,290,o),
(201,290,cs),
(210,290,o),
(209,283,o),
(221,240,cs),
(280,30,ls),
(286,7,o),
(295,0,o),
(310,0,cs),
(325,0,o),
(334,7,o),
(340,30,cs),
(396,240,ls),
(407,282,o),
(410,290,o),
(418,290,cs),
(425,290,o),
(430,284,o),
(430,270,cs),
(430,40,ls),
(430,10,o),
(440,0,o),
(470,0,cs),
(560,0,ls),
(590,0,o),
(600,10,o),
(600,40,cs),
(600,660,ls),
(600,690,o),
(590,700,o),
(560,700,cs),
(440,700,ls),
(410,700,o),
(396,688,o),
(390,660,cs),
(326,359,ls),
(321,337,o),
(316,330,o),
(310,330,cs),
(305,330,o),
(300,337,o),
(295,359,cs),
(230,660,ls),
(224,687,o),
(210,700,o),
(180,700,cs),
(60,700,ls),
(30,700,o),
(20,690,o),
(20,660,cs),
(20,40,ls),
(20,10,o),
(30,0,o),
(60,0,cs)
);
}
);
width = 620;
},
{
layerId = "6ABCF30A-460E-4EED-802C-9E4699B7E7F6";
shapes = (
{
closed = 1;
nodes = (
(180,0,ls),
(210,0,o),
(220,10,o),
(220,40,cs),
(220,369,ls),
(220,383,o),
(224,390,o),
(234,390,cs),
(243,390,o),
(250,383,o),
(250,355,cs),
(250,40,ls),
(250,18,o),
(255,0,o),
(275,0,cs),
(326,0,ls),
(346,0,o),
(351,20,o),
(351,40,cs),
(350,355,ls),
(350,383,o),
(358,390,o),
(366,390,cs),
(376,390,o),
(380,383,o),
(380,369,cs),
(380,40,ls),
(380,10,o),
(390,0,o),
(420,0,cs),
(545,0,ls),
(575,0,o),
(585,10,o),
(585,40,cs),
(585,660,ls),
(585,690,o),
(575,700,o),
(545,700,cs),
(364,700,ls),
(339,700,o),
(314,689,o),
(314,660,cs),
(314,339,ls),
(314,316,o),
(308,310,o),
(300,310,cs),
(292,310,o),
(286,316,o),
(286,339,cs),
(283,660,ls),
(283,688,o),
(258,700,o),
(233,700,cs),
(55,700,ls),
(25,700,o),
(15,690,o),
(15,660,cs),
(15,40,ls),
(15,10,o),
(25,0,o),
(55,0,cs)
);
}
);
width = 600;
},
{
associatedMasterId = m01;
layerId = "9DED20E6-D39C-4E3D-8E05-42571727FA9D";
name = "Sep 24, 22, 12:54";
shapes = (
{
closed = 1;
nodes = (
(160,0,ls),
(190,0,o),
(200,10,o),
(200,40,cs),
(200,330,ls),
(200,344,o),
(202,350,o),
(209,350,cs),
(218,350,o),
(219,342,o),
(235,300,cs),
(280,180,ls),
(289,157,o),
(295,150,o),
(310,150,cs),
(330,150,ls),
(345,150,o),
(351,157,o),
(360,180,cs),
(404,300,ls),
(419,341,o),
(422,350,o),
(430,350,cs),
(437,350,o),
(440,344,o),
(440,330,cs),
(440,40,ls),
(440,10,o),
(450,0,o),
(480,0,cs),
(580,0,ls),
(610,0,o),
(620,10,o),
(620,40,cs),
(620,660,ls),
(620,690,o),
(610,700,o),
(580,700,cs),
(470,700,ls),
(445,700,o),
(430,688,o),
(420,660,cs),
(344,439,ls),
(337,418,o),
(331,410,o),
(320,410,cs),
(310,410,o),
(304,418,o),
(297,439,cs),
(220,660,ls),
(210,688,o),
(195,700,o),
(170,700,cs),
(60,700,ls),
(30,700,o),
(20,690,o),
(20,660,cs),
(20,40,ls),
(20,10,o),
(30,0,o),
(60,0,cs)
);
}
);
width = 640;
},
{
layerId = m003;
shapes = (
{
closed = 1;
nodes = (
(160,0,ls),
(190,0,o),
(200,10,o),
(200,40,cs),
(200,369,ls),
(200,383,o),
(203,390,o),
(213,390,cs),
(223,390,o),
(224,383,o),
(230,355,cs),
(300,40,ls),
(305,18,o),
(305,0,o),
(325,0,cs),
(375,0,ls),
(395,0,o),
(396,20,o),
(400,40,cs),
(470,355,ls),
(476,383,o),
(477,390,o),
(486,390,cs),
(496,390,o),
(500,383,o),
(500,369,cs),
(500,40,ls),
(500,10,o),
(510,0,o),
(540,0,cs),
(630,0,ls),
(660,0,o),
(670,10,o),
(670,40,cs),
(670,660,ls),
(670,690,o),
(660,700,o),
(630,700,cs),
(485,700,ls),
(460,700,o),
(441,689,o),
(435,660,cs),
(364,339,ls),
(359,316,o),
(358,310,o),
(350,310,cs),
(342,310,o),
(341,316,o),
(336,339,cs),
(265,660,ls),
(259,688,o),
(240,700,o),
(215,700,cs),
(70,700,ls),
(40,700,o),
(30,690,o),
(30,660,cs),
(30,40,ls),
(30,10,o),
(40,0,o),
(70,0,cs)
);
}
);
width = 700;
},
{
associatedMasterId = m003;
layerId = "50A1166B-425F-4B40-8F68-E3C41177FBDB";
name = test;
shapes = (
{
closed = 1;
nodes = (
(310,449,o),
(298,477,qs),
(223,654,ls),
(208,689,o),
(172,710,o),
(141,710,qs),
(88,710,ls),
(71,710,o),
(47,700,o),
(35,688,o),
(29,662,o),
(28,646,o),
(28,630,qs),
(28,80,ls),
(28,64,o),
(29,48,o),
(35,22,o),
(47,10,o),
(71,0,o),
(88,0,qs),
(138,0,ls),
(155,0,o),
(179,10,o),
(191,22,o),
(197,48,o),
(198,64,o),
(198,80,qs),
(198,355,ls),
(198,365,o),
(203,365,qs),
(207,365,o),
(212,355,qs),
(225,329,o),
(251,274,o),
(265,243,o),
(280,212,o),
(289,197,o),
(300,184,o),
(311,180,o),
(325,180,o),
(336,184,o),
(347,197,o),
(356,212,o),
(370,243,o),
(385,274,o),
(411,328,o),
(424,355,qs),
(429,365,o),
(433,365,qs),
(438,365,o),
(438,355,qs),
(438,80,ls),
(438,64,o),
(439,48,o),
(445,22,o),
(457,10,o),
(481,0,o),
(498,0,qs),
(548,0,ls),
(565,0,o),
(589,10,o),
(601,22,o),
(607,48,o),
(608,64,o),
(608,80,qs),
(608,630,ls),
(608,646,o),
(607,662,o),
(601,688,o),
(589,700,o),
(565,710,o),
(548,710,qs),
(494,710,ls),
(463,710,o),
(428,690,o),
(413,654,qs),
(338,477,ls),
(326,449,o)
);
}
);
width = 640;
},
{
associatedMasterId = m003;
layerId = "820430A0-4843-4CA3-A664-471C701C5D30";
name = "Sep 11, 22, 15:10";
shapes = (
{
closed = 1;
nodes = (
(160,0,ls),
(190,0,o),
(200,10,o),
(200,40,cs),
(200,370,ls),
(200,384,o),
(202,390,o),
(210,390,cs),
(219,390,o),
(219,383,o),
(240,350,cs),
(283,281,o),
(290,260,o),
(310,260,cs),
(329,260,o),
(336,279,o),
(380,350,cs),
(401,383,o),
(402,390,o),
(410,390,cs),
(417,390,o),
(420,384,o),
(420,370,cs),
(420,40,ls),
(420,10,o),
(430,0,o),
(460,0,cs),
(560,0,ls),
(590,0,o),
(600,10,o),
(600,40,cs),
(600,660,ls),
(600,690,o),
(590,700,o),
(560,700,cs),
(450,700,ls),
(420,700,o),
(415,690,o),
(400,660,cs),
(334,530,ls),
(323,508,o),
(319,500,o),
(310,500,cs),
(302,500,o),
(297,511,o),
(287,530,cs),
(220,660,ls),
(205,689,o),
(200,700,o),
(170,700,cs),
(60,700,ls),
(30,700,o),
(20,690,o),
(20,660,cs),
(20,40,ls),
(20,10,o),
(30,0,o),
(60,0,cs)
);
}
);
width = 620;
},
{
associatedMasterId = m003;
layerId = "88AF5D7A-3484-4ADB-BC31-5683F1EE6681";
name = "Sep 11, 22, 20:36";
shapes = (
{
closed = 1;
nodes = (
(150,0,ls),
(180,0,o),
(190,10,o),
(190,40,cs),
(190,300,ls),
(190,314,o),
(194,320,o),
(201,320,cs),
(210,320,o),
(210,309,o),
(231,270,cs),
(280,180,ls),
(291,159,o),
(295,150,o),
(310,150,cs),
(330,150,ls),
(345,150,o),
(349,159,o),
(360,180,cs),
(406,270,ls),
(425,308,o),
(430,320,o),
(438,320,cs),
(445,320,o),
(450,314,o),
(450,300,cs),
(450,40,ls),
(450,10,o),
(460,0,o),
(490,0,cs),
(580,0,ls),
(610,0,o),
(620,10,o),
(620,40,cs),
(620,660,ls),
(620,690,o),
(610,700,o),
(580,700,cs),
(480,700,ls),
(450,700,o),
(441,688,o),
(430,660,cs),
(344,449,ls),
(335,427,o),
(329,420,o),
(320,420,cs),
(312,420,o),
(306,428,o),
(297,449,cs),
(210,660,ls),
(199,687,o),
(190,700,o),
(160,700,cs),
(60,700,ls),
(30,700,o),
(20,690,o),
(20,660,cs),
(20,40,ls),
(20,10,o),
(30,0,o),
(60,0,cs)
);
}
);
width = 640;
},
{
associatedMasterId = m003;
layerId = "F00F3CEE-9F9F-4A43-B40C-5DC446F70BEE";
name = "Sep 11, 22, 20:44";
shapes = (
{
closed = 1;
nodes = (
(150,0,ls),
(180,0,o),
(190,10,o),
(190,40,cs),
(190,300,ls),
(190,314,o),
(194,320,o),
(201,320,cs),
(210,320,o),
(210,313,o),
(221,270,cs),
(280,30,ls),
(286,7,o),
(295,0,o),
(310,0,cs),
(325,0,o),
(334,6,o),
(340,30,cs),
(396,270,ls),
(406,312,o),
(410,320,o),
(418,320,cs),
(425,320,o),
(430,314,o),
(430,300,cs),
(430,40,ls),
(430,10,o),
(440,0,o),
(470,0,cs),
(560,0,ls),
(590,0,o),
(600,10,o),
(600,40,cs),
(600,660,ls),
(600,690,o),
(590,700,o),
(560,700,cs),
(440,700,ls),
(410,700,o),
(397,688,o),
(390,660,cs),
(326,389,ls),
(321,367,o),
(316,360,o),
(310,360,cs),
(305,360,o),
(300,367,o),
(295,389,cs),
(230,660,ls),
(223,687,o),
(210,700,o),
(180,700,cs),
(60,700,ls),
(30,700,o),
(20,690,o),
(20,660,cs),
(20,40,ls),
(20,10,o),
(30,0,o),
(60,0,cs)
);
}
);
width = 620;
},
{
associatedMasterId = m003;
layerId = "6734D887-FDB7-4332-AB79-95E6EA32BA10";
name = "Sep 11, 22, 20:46";
shapes = (
{
closed = 1;
nodes = (
(150,0,ls),
(180,0,o),
(190,10,o),
(190,40,cs),
(190,270,ls),
(190,284,o),
(194,290,o),
(201,290,cs),
(210,290,o),
(209,283,o),
(221,240,cs),
(280,30,ls),
(286,7,o),
(295,0,o),
(310,0,cs),
(325,0,o),
(334,7,o),
(340,30,cs),
(396,240,ls),
(407,282,o),
(410,290,o),
(418,290,cs),
(425,290,o),
(430,284,o),
(430,270,cs),
(430,40,ls),
(430,10,o),
(440,0,o),
(470,0,cs),
(560,0,ls),
(590,0,o),
(600,10,o),
(600,40,cs),
(600,660,ls),
(600,690,o),
(590,700,o),
(560,700,cs),
(440,700,ls),
(410,700,o),
(396,688,o),
(390,660,cs),
(326,359,ls),
(321,337,o),
(316,330,o),
(310,330,cs),
(305,330,o),
(300,337,o),
(295,359,cs),
(230,660,ls),
(224,687,o),
(210,700,o),
(180,700,cs),
(60,700,ls),
(30,700,o),
(20,690,o),
(20,660,cs),
(20,40,ls),
(20,10,o),
(30,0,o),
(60,0,cs)
);
}
);
width = 620;
},
{
associatedMasterId = m003;
layerId = "587F0019-D5D4-4BD9-B085-A53F082DFFE1";
name = "Sep 24, 22, 12:54";
shapes = (
{
closed = 1;
nodes = (
(160,0,ls),
(190,0,o),
(200,10,o),
(200,40,cs),
(200,330,ls),
(200,344,o),
(202,350,o),
(209,350,cs),
(218,350,o),
(219,342,o),
(235,300,cs),
(280,180,ls),
(289,157,o),
(295,150,o),
(310,150,cs),
(330,150,ls),
(345,150,o),
(351,157,o),
(360,180,cs),
(404,300,ls),
(419,341,o),
(422,350,o),
(430,350,cs),
(437,350,o),
(440,344,o),
(440,330,cs),
(440,40,ls),
(440,10,o),
(450,0,o),
(480,0,cs),
(580,0,ls),
(610,0,o),
(620,10,o),
(620,40,cs),
(620,660,ls),
(620,690,o),
(610,700,o),
(580,700,cs),
(470,700,ls),
(445,700,o),
(430,688,o),
(420,660,cs),
(344,439,ls),
(337,418,o),
(331,410,o),
(320,410,cs),
(310,410,o),
(304,418,o),
(297,439,cs),
(220,660,ls),
(210,688,o),
(195,700,o),
(170,700,cs),
(60,700,ls),
(30,700,o),
(20,690,o),
(20,660,cs),
(20,40,ls),
(20,10,o),
(30,0,o),
(60,0,cs)
);
}
);
width = 640;
},
{
layerId = m004;
shapes = (
{
closed = 1;
nodes = (
(190,0,ls),
(220,0,o),
(230,10,o),
(230,40,cs),
(230,369,ls),
(230,383,o),
(234,390,o),
(244,390,cs),
(253,390,o),
(260,383,o),
(260,355,cs),
(260,40,ls),
(260,18,o),
(265,0,o),
(285,0,cs),
(416,0,ls),
(436,0,o),
(441,20,o),
(441,40,cs),
(440,355,ls),
(440,383,o),
(448,390,o),
(456,390,cs),
(466,390,o),
(470,383,o),
(470,369,cs),
(470,40,ls),
(470,10,o),
(480,0,o),
(510,0,cs),
(645,0,ls),
(675,0,o),
(685,10,o),
(685,40,cs),
(685,660,ls),
(685,690,o),
(675,700,o),
(645,700,cs),
(414,700,ls),
(389,700,o),
(364,689,o),
(364,660,cs),
(364,339,ls),
(364,316,o),
(358,310,o),
(350,310,cs),
(342,310,o),
(336,316,o),
(336,339,cs),
(333,660,ls),
(333,688,o),
(308,700,o),
(283,700,cs),
(55,700,ls),
(25,700,o),
(15,690,o),
(15,660,cs),
(15,40,ls),
(15,10,o),
(25,0,o),
(55,0,cs)
);
}
);
width = 700;
}
);
unicode = 77;
},
{
color = 5;
glyphname = N;
kernLeft = H;
kernRight = H;
layers = (
{
anchors = (
{
name = bottom;
pos = (245,0);
},
{
name = top;
pos = (250,700);
}
);
layerId = m01;
shapes = (
{
closed = 1;
nodes = (
(160,0,ls),
(190,0,o),
(200,10,o),
(200,40,cs),
(200,370,ls),
(200,386,o),
(206,390,o),
(213,390,cs),
(219,390,o),
(224,384,o),
(226,370,cs),
(283,40,ls),
(289,6,o),
(304,0,o),
(328,0,cs),
(450,0,ls),
(480,0,o),
(490,10,o),
(490,40,cs),
(490,660,ls),
(490,690,o),
(480,700,o),
(450,700,cs),
(360,700,ls),
(330,700,o),
(320,690,o),
(320,660,cs),
(320,330,ls),
(320,316,o),
(316,310,o),
(307,310,cs),
(299,310,o),
(296,318,o),
(294,330,cs),
(237,660,ls),
(231,695,o),
(215,700,o),
(190,700,cs),
(70,700,ls),
(40,700,o),
(30,690,o),
(30,660,cs),
(30,40,ls),
(30,10,o),
(40,0,o),
(70,0,cs)
);
}
);
width = 520;
},
{
anchors = (
{
name = bottom;
pos = (223,0);
},
{
name = top;
pos = (270,700);
}
);
layerId = "6ABCF30A-460E-4EED-802C-9E4699B7E7F6";
shapes = (
{
closed = 1;
nodes = (
(175,0,ls),
(205,0,o),
(215,10,o),
(215,40,cs),
(215,370,ls),
(215,383,o),
(220,390,o),
(230,390,cs),
(240,390,o),
(245,383,o),
(245,370,cs),
(245,40,ls),
(245,10,o),
(255,0,o),
(285,0,cs),
(465,0,ls),
(495,0,o),
(505,10,o),
(505,40,cs),
(505,660,ls),
(505,690,o),
(495,700,o),
(465,700,cs),
(345,700,ls),
(315,700,o),
(305,690,o),
(305,660,cs),
(305,330,ls),
(305,317,o),
(300,310,o),
(290,310,cs),
(280,310,o),
(275,317,o),
(275,330,cs),
(275,660,ls),
(275,690,o),
(265,700,o),
(235,700,cs),
(55,700,ls),
(25,700,o),
(15,690,o),
(15,660,cs),
(15,40,ls),
(15,10,o),
(25,0,o),
(55,0,cs)
);
}
);
width = 520;
},
{
anchors = (
{
name = bottom;
pos = (290,0);
},
{
name = top;
pos = (300,700);
}
);
layerId = m003;
shapes = (
{
closed = 1;
nodes = (
(170,0,ls),
(200,0,o),
(210,10,o),
(210,40,cs),
(210,370,ls),
(210,386,o),
(216,390,o),
(223,390,cs),
(231,390,o),
(238,383,o),
(243,370,cs),
(363,40,ls),
(374,9,o),
(384,0,o),
(408,0,cs),
(530,0,ls),
(560,0,o),
(570,10,o),
(570,40,cs),
(570,660,ls),
(570,690,o),
(560,700,o),
(530,700,cs),
(430,700,ls),
(400,700,o),
(390,690,o),
(390,660,cs),
(390,330,ls),
(390,316,o),
(386,310,o),
(377,310,cs),
(367,310,o),
(361,319,o),
(357,330,cs),
(237,660,ls),
(225,693,o),
(215,700,o),
(190,700,cs),
(70,700,ls),
(40,700,o),
(30,690,o),
(30,660,cs),
(30,40,ls),
(30,10,o),
(40,0,o),
(70,0,cs)
);
}
);
width = 600;
},
{
anchors = (
{
name = bottom;
pos = (285,0);
},
{
name = top;
pos = (290,700);
}
);
layerId = m004;
shapes = (
{
closed = 1;
nodes = (
(210,0,ls),
(240,0,o),
(250,10,o),
(250,40,cs),
(250,370,ls),
(250,383,o),
(255,390,o),
(265,390,cs),
(275,390,o),
(280,383,o),
(280,370,cs),
(280,40,ls),
(280,10,o),
(290,0,o),
(320,0,cs),
(545,0,ls),
(575,0,o),
(585,10,o),
(585,40,cs),
(585,660,ls),
(585,690,o),
(575,700,o),
(545,700,cs),
(390,700,ls),
(360,700,o),
(350,690,o),
(350,660,cs),
(350,330,ls),
(350,317,o),
(345,310,o),
(335,310,cs),
(325,310,o),
(320,317,o),
(320,330,cs),
(320,660,ls),
(320,690,o),
(310,700,o),
(280,700,cs),
(55,700,ls),
(25,700,o),
(15,690,o),
(15,660,cs),
(15,40,ls),
(15,10,o),
(25,0,o),
(55,0,cs)
);
}
);
width = 600;
}
);
unicode = 78;
},
{
color = 5;
glyphname = Eng;
layers = (
{
layerId = m01;
shapes = (
{
closed = 1;
nodes = (
(150,0,ls),
(180,0,o),
(190,10,o),
(190,40,cs),
(190,370,ls),
(190,386,o),
(196,390,o),
(203,390,cs),
(209,390,o),
(214,384,o),
(216,370,cs),
(234,260,o),
(270,171,o),
(270,40,cs),
(270,-55,ls),
(270,-70,o),
(265,-75,o),
(250,-75,cs),
(210,-75,ls),
(180,-75,o),
(170,-85,o),
(170,-115,cs),
(170,-185,ls),
(170,-215,o),
(180,-225,o),
(210,-225,cs),
(328,-225,ls),
(468,-225,o),
(477,-165,o),
(477,-25,cs),
(477,660,ls),
(477,690,o),
(467,700,o),
(437,700,cs),
(347,700,ls),
(317,700,o),
(307,690,o),
(307,660,cs),
(307,330,ls),
(307,316,o),
(303,310,o),
(294,310,cs),
(286,310,o),
(283,318,o),
(281,330,cs),
(227,660,ls),
(221,695,o),
(205,700,o),
(180,700,cs),
(60,700,ls),
(30,700,o),
(20,690,o),
(20,660,cs),
(20,40,ls),
(20,10,o),
(30,0,o),
(60,0,cs)
);
}
);
width = 497;
},
{
layerId = "6ABCF30A-460E-4EED-802C-9E4699B7E7F6";
shapes = (
{
closed = 1;
nodes = (
(150,0,ls),
(180,0,o),
(190,10,o),
(190,40,cs),
(190,370,ls),
(190,386,o),
(196,390,o),
(203,390,cs),
(209,390,o),
(214,384,o),
(216,370,cs),
(234,260,o),
(270,171,o),
(270,40,cs),
(270,-55,ls),
(270,-70,o),
(265,-75,o),
(250,-75,cs),
(210,-75,ls),
(180,-75,o),
(170,-85,o),
(170,-115,cs),
(170,-185,ls),
(170,-215,o),
(180,-225,o),
(210,-225,cs),
(328,-225,ls),
(468,-225,o),
(477,-165,o),
(477,-25,cs),
(477,660,ls),
(477,690,o),
(467,700,o),
(437,700,cs),
(347,700,ls),
(317,700,o),
(307,690,o),
(307,660,cs),
(307,330,ls),
(307,316,o),
(303,310,o),
(294,310,cs),
(286,310,o),
(283,318,o),
(281,330,cs),
(227,660,ls),
(221,695,o),
(205,700,o),
(180,700,cs),
(60,700,ls),
(30,700,o),
(20,690,o),
(20,660,cs),
(20,40,ls),
(20,10,o),
(30,0,o),
(60,0,cs)
);
}
);
width = 497;
},
{
layerId = m003;
shapes = (
{
closed = 1;
nodes = (
(150,0,ls),
(180,0,o),
(190,10,o),
(190,40,cs),
(190,370,ls),
(190,386,o),
(196,390,o),
(203,390,cs),
(209,390,o),
(214,384,o),
(216,370,cs),
(234,260,o),
(270,171,o),
(270,40,cs),
(270,-55,ls),
(270,-70,o),
(265,-75,o),
(250,-75,cs),
(210,-75,ls),
(180,-75,o),
(170,-85,o),
(170,-115,cs),
(170,-185,ls),
(170,-215,o),
(180,-225,o),
(210,-225,cs),
(328,-225,ls),
(468,-225,o),
(477,-165,o),
(477,-25,cs),
(477,660,ls),
(477,690,o),
(467,700,o),
(437,700,cs),
(347,700,ls),
(317,700,o),
(307,690,o),
(307,660,cs),
(307,330,ls),
(307,316,o),
(303,310,o),
(294,310,cs),
(286,310,o),
(283,318,o),
(281,330,cs),
(227,660,ls),
(221,695,o),
(205,700,o),
(180,700,cs),
(60,700,ls),
(30,700,o),
(20,690,o),
(20,660,cs),
(20,40,ls),
(20,10,o),
(30,0,o),
(60,0,cs)
);
}
);
width = 497;
},
{
layerId = m004;
shapes = (
{
closed = 1;
nodes = (
(150,0,ls),
(180,0,o),
(190,10,o),
(190,40,cs),
(190,370,ls),
(190,386,o),
(196,390,o),
(203,390,cs),
(209,390,o),
(214,384,o),
(216,370,cs),
(234,260,o),
(270,171,o),
(270,40,cs),
(270,-55,ls),
(270,-70,o),
(265,-75,o),
(250,-75,cs),
(210,-75,ls),
(180,-75,o),
(170,-85,o),
(170,-115,cs),
(170,-185,ls),
(170,-215,o),
(180,-225,o),
(210,-225,cs),
(328,-225,ls),
(468,-225,o),
(477,-165,o),
(477,-25,cs),
(477,660,ls),
(477,690,o),
(467,700,o),
(437,700,cs),
(347,700,ls),
(317,700,o),
(307,690,o),
(307,660,cs),
(307,330,ls),
(307,316,o),
(303,310,o),
(294,310,cs),
(286,310,o),
(283,318,o),
(281,330,cs),
(227,660,ls),
(221,695,o),
(205,700,o),
(180,700,cs),
(60,700,ls),
(30,700,o),
(20,690,o),
(20,660,cs),
(20,40,ls),
(20,10,o),
(30,0,o),
(60,0,cs)
);
}
);
width = 497;
}
);
unicode = 330;
},
{
color = 5;
glyphname = O;
kernLeft = O;
kernRight = O;
layers = (
{
anchors = (
{
name = top;
pos = (245,700);
}
);
layerId = m01;
shapes = (
{
closed = 1;
nodes = (
(385,-10,o),
(470,60,o),
(470,200,cs),
(470,500,ls),
(470,640,o),
(385,710,o),
(245,710,cs),
(105,710,o),
(20,640,o),
(20,500,cs),
(20,200,ls),
(20,60,o),
(105,-10,o),
(245,-10,cs)
);
},
{
closed = 1;
nodes = (
(215,140,o),
(205,160,o),
(205,190,cs),
(205,510,ls),
(205,540,o),
(215,560,o),
(245,560,cs),
(275,560,o),
(285,540,o),
(285,510,cs),
(285,190,ls),
(285,160,o),
(275,140,o),
(245,140,cs)
);
}
);
width = 490;
},
{
anchors = (
{
name = top;
pos = (240,700);
}
);
layerId = "6ABCF30A-460E-4EED-802C-9E4699B7E7F6";
shapes = (
{
closed = 1;
nodes = (
(385,-10,o),
(480,50,o),
(480,190,cs),
(480,510,ls),
(480,650,o),
(385,710,o),
(245,710,cs),
(105,710,o),
(10,650,o),
(10,510,cs),
(10,190,ls),
(10,50,o),
(105,-10,o),
(245,-10,cs)
);
},
{
closed = 1;
nodes = (
(235,140,o),
(230,150,o),
(230,160,cs),
(230,540,ls),
(230,550,o),
(235,560,o),
(245,560,cs),
(255,560,o),
(260,550,o),
(260,540,cs),
(260,160,ls),
(260,150,o),
(255,140,o),
(245,140,cs)
);
}
);
width = 490;
},
{
anchors = (
{
name = top;
pos = (290,700);
}
);
layerId = m003;
shapes = (
{
closed = 1;
nodes = (
(470,-10,o),
(560,70,o),
(560,260,cs),
(560,440,ls),
(560,630,o),
(470,710,o),
(290,710,cs),
(110,710,o),
(20,630,o),
(20,440,cs),
(20,260,ls),
(20,70,o),
(110,-10,o),
(290,-10,cs)
);
},
{
closed = 1;
nodes = (
(230,140,o),
(200,180,o),
(200,250,cs),
(200,450,ls),
(200,520,o),
(230,560,o),
(290,560,cs),
(350,560,o),
(380,520,o),
(380,450,cs),
(380,250,ls),
(380,180,o),
(350,140,o),
(290,140,cs)
);
}
);
width = 580;
},
{
anchors = (
{
name = top;
pos = (287,700);
}
);
layerId = m004;
shapes = (
{
closed = 1;
nodes = (
(470,-10,o),
(570,30,o),
(570,210,cs),
(570,490,ls),
(570,670,o),
(470,710,o),
(290,710,cs),
(110,710,o),
(10,670,o),
(10,490,cs),
(10,210,ls),
(10,30,o),
(110,-10,o),
(290,-10,cs)
);
},
{
closed = 1;
nodes = (
(280,140,o),
(275,147,o),
(275,160,cs),
(275,540,ls),
(275,553,o),
(280,560,o),
(290,560,cs),
(300,560,o),
(305,553,o),
(305,540,cs),
(305,160,ls),
(305,147,o),
(300,140,o),
(290,140,cs)
);
}
);
width = 580;
}
);
unicode = 79;
},
{
color = 5;
glyphname = Oslash;
layers = (
{
layerId = m01;
shapes = (
{
closed = 1;
nodes = (
(377,-10,o),
(457,70,o),
(457,200,cs),
(457,500,ls),
(457,630,o),
(377,710,o),
(237,710,cs),
(97,710,o),
(17,630,o),
(17,500,cs),
(17,200,ls),
(17,70,o),
(97,-10,o),
(237,-10,cs)
);
},
{
closed = 1;
nodes = (
(207,140,o),
(197,160,o),
(197,190,cs),
(197,510,ls),
(197,540,o),
(207,560,o),
(237,560,cs),
(267,560,o),
(277,540,o),
(277,510,cs),
(277,190,ls),
(277,160,o),
(267,140,o),
(237,140,cs)
);
},
{
closed = 1;
nodes = (
(65,0,l),
(454,740,l),
(409,740,l),
(20,0,l)
);
}
);
width = 474;
},
{
layerId = "6ABCF30A-460E-4EED-802C-9E4699B7E7F6";
shapes = (
{
closed = 1;
nodes = (
(377,-10,o),
(457,70,o),
(457,200,cs),
(457,500,ls),
(457,630,o),
(377,710,o),
(237,710,cs),
(97,710,o),
(17,630,o),
(17,500,cs),
(17,200,ls),
(17,70,o),
(97,-10,o),
(237,-10,cs)
);
},
{
closed = 1;
nodes = (
(207,140,o),
(197,160,o),
(197,190,cs),
(197,510,ls),
(197,540,o),
(207,560,o),
(237,560,cs),
(267,560,o),
(277,540,o),
(277,510,cs),
(277,190,ls),
(277,160,o),
(267,140,o),
(237,140,cs)
);
},
{
closed = 1;
nodes = (
(65,0,l),
(454,740,l),
(409,740,l),
(20,0,l)
);
}
);
width = 474;
},
{
layerId = m003;
shapes = (
{
closed = 1;
nodes = (
(377,-10,o),
(457,70,o),
(457,200,cs),
(457,500,ls),
(457,630,o),
(377,710,o),
(237,710,cs),
(97,710,o),
(17,630,o),
(17,500,cs),
(17,200,ls),
(17,70,o),
(97,-10,o),
(237,-10,cs)
);
},
{
closed = 1;
nodes = (
(207,140,o),
(197,160,o),
(197,190,cs),
(197,510,ls),
(197,540,o),
(207,560,o),
(237,560,cs),
(267,560,o),
(277,540,o),
(277,510,cs),
(277,190,ls),
(277,160,o),
(267,140,o),
(237,140,cs)
);
},
{
closed = 1;
nodes = (
(65,0,l),
(454,740,l),
(409,740,l),
(20,0,l)
);
}
);
width = 474;
},
{
layerId = m004;
shapes = (
{
closed = 1;
nodes = (
(377,-10,o),
(457,70,o),
(457,200,cs),
(457,500,ls),
(457,630,o),
(377,710,o),
(237,710,cs),
(97,710,o),
(17,630,o),
(17,500,cs),
(17,200,ls),
(17,70,o),
(97,-10,o),
(237,-10,cs)
);
},
{
closed = 1;
nodes = (
(207,140,o),
(197,160,o),
(197,190,cs),
(197,510,ls),
(197,540,o),
(207,560,o),
(237,560,cs),
(267,560,o),
(277,540,o),
(277,510,cs),
(277,190,ls),
(277,160,o),
(267,140,o),
(237,140,cs)
);
},
{
closed = 1;
nodes = (
(65,0,l),
(454,740,l),
(409,740,l),
(20,0,l)
);
}
);
width = 474;
}
);
unicode = 216;
},
{
color = 5;
glyphname = OE;
layers = (
{
layerId = m01;
shapes = (
{
closed = 1;
nodes = (
(268,-10,o),
(294,0,o),
(320,0,cs),
(587,0,ls),
(617,0,o),
(627,10,o),
(627,40,cs),
(627,110,ls),
(627,140,o),
(617,150,o),
(587,150,cs),
(477,150,ls),
(462,150,o),
(457,155,o),
(457,170,cs),
(457,270,ls),
(457,285,o),
(462,290,o),
(477,290,cs),
(547,290,ls),
(577,290,o),
(587,300,o),
(587,330,cs),
(587,390,ls),
(587,420,o),
(577,430,o),
(547,430,cs),
(477,430,ls),
(462,430,o),
(457,435,o),
(457,450,cs),
(457,530,ls),
(457,545,o),
(462,550,o),
(477,550,cs),
(587,550,ls),
(617,550,o),
(627,560,o),
(627,590,cs),
(627,660,ls),
(627,690,o),
(617,700,o),
(587,700,cs),
(320,700,ls),
(294,700,o),
(268,710,o),
(237,710,cs),
(97,710,o),
(17,640,o),
(17,500,cs),
(17,200,ls),
(17,60,o),
(97,-10,o),
(237,-10,cs)
);
},
{
closed = 1;
nodes = (
(197,510,ls),
(197,540,o),
(207,560,o),
(237,560,cs),
(267,560,o),
(277,540,o),
(277,510,cs),
(277,190,ls),
(277,160,o),
(267,140,o),
(237,140,cs),
(207,140,o),
(197,160,o),
(197,190,cs)
);
}
);
width = 642;
},
{
layerId = "6ABCF30A-460E-4EED-802C-9E4699B7E7F6";
shapes = (
{
closed = 1;
nodes = (
(268,-10,o),
(294,0,o),
(320,0,cs),
(587,0,ls),
(617,0,o),
(627,10,o),
(627,40,cs),
(627,110,ls),
(627,140,o),
(617,150,o),
(587,150,cs),
(477,150,ls),
(462,150,o),
(457,155,o),
(457,170,cs),
(457,270,ls),
(457,285,o),
(462,290,o),
(477,290,cs),
(547,290,ls),
(577,290,o),
(587,300,o),
(587,330,cs),
(587,390,ls),
(587,420,o),
(577,430,o),
(547,430,cs),
(477,430,ls),
(462,430,o),
(457,435,o),
(457,450,cs),
(457,530,ls),
(457,545,o),
(462,550,o),
(477,550,cs),
(587,550,ls),
(617,550,o),
(627,560,o),
(627,590,cs),
(627,660,ls),
(627,690,o),
(617,700,o),
(587,700,cs),
(320,700,ls),
(294,700,o),
(268,710,o),
(237,710,cs),
(97,710,o),
(17,640,o),
(17,500,cs),
(17,200,ls),
(17,60,o),
(97,-10,o),
(237,-10,cs)
);
},
{
closed = 1;
nodes = (
(197,510,ls),
(197,540,o),
(207,560,o),
(237,560,cs),
(267,560,o),
(277,540,o),
(277,510,cs),
(277,190,ls),
(277,160,o),
(267,140,o),
(237,140,cs),
(207,140,o),
(197,160,o),
(197,190,cs)
);
}
);
width = 642;
},
{
layerId = m003;
shapes = (
{
closed = 1;
nodes = (
(268,-10,o),
(294,0,o),
(320,0,cs),
(587,0,ls),
(617,0,o),
(627,10,o),
(627,40,cs),
(627,110,ls),
(627,140,o),
(617,150,o),
(587,150,cs),
(477,150,ls),
(462,150,o),
(457,155,o),
(457,170,cs),
(457,270,ls),
(457,285,o),
(462,290,o),
(477,290,cs),
(547,290,ls),
(577,290,o),
(587,300,o),
(587,330,cs),
(587,390,ls),
(587,420,o),
(577,430,o),
(547,430,cs),
(477,430,ls),
(462,430,o),
(457,435,o),
(457,450,cs),
(457,530,ls),
(457,545,o),
(462,550,o),
(477,550,cs),
(587,550,ls),
(617,550,o),
(627,560,o),
(627,590,cs),
(627,660,ls),
(627,690,o),
(617,700,o),
(587,700,cs),
(320,700,ls),
(294,700,o),
(268,710,o),
(237,710,cs),
(97,710,o),
(17,640,o),
(17,500,cs),
(17,200,ls),
(17,60,o),
(97,-10,o),
(237,-10,cs)
);
},
{
closed = 1;
nodes = (
(197,510,ls),
(197,540,o),
(207,560,o),
(237,560,cs),
(267,560,o),
(277,540,o),
(277,510,cs),
(277,190,ls),
(277,160,o),
(267,140,o),
(237,140,cs),
(207,140,o),
(197,160,o),
(197,190,cs)
);
}
);
width = 642;
},
{
layerId = m004;
shapes = (
{
closed = 1;
nodes = (
(268,-10,o),
(294,0,o),
(320,0,cs),
(587,0,ls),
(617,0,o),
(627,10,o),
(627,40,cs),
(627,110,ls),
(627,140,o),
(617,150,o),
(587,150,cs),
(477,150,ls),
(462,150,o),
(457,155,o),
(457,170,cs),
(457,270,ls),
(457,285,o),
(462,290,o),
(477,290,cs),
(547,290,ls),
(577,290,o),
(587,300,o),
(587,330,cs),
(587,390,ls),
(587,420,o),
(577,430,o),
(547,430,cs),
(477,430,ls),
(462,430,o),
(457,435,o),
(457,450,cs),
(457,530,ls),
(457,545,o),
(462,550,o),
(477,550,cs),
(587,550,ls),
(617,550,o),
(627,560,o),
(627,590,cs),
(627,660,ls),
(627,690,o),
(617,700,o),
(587,700,cs),
(320,700,ls),
(294,700,o),
(268,710,o),
(237,710,cs),
(97,710,o),
(17,640,o),
(17,500,cs),
(17,200,ls),
(17,60,o),
(97,-10,o),
(237,-10,cs)
);
},
{
closed = 1;
nodes = (
(197,510,ls),
(197,540,o),
(207,560,o),
(237,560,cs),
(267,560,o),
(277,540,o),
(277,510,cs),
(277,190,ls),
(277,160,o),
(267,140,o),
(237,140,cs),
(207,140,o),
(197,160,o),
(197,190,cs)
);
}
);
width = 642;
}
);
unicode = 338;
},
{
color = 5;
glyphname = P;
kernLeft = H;
kernRight = P;
layers = (
{
layerId = m01;
shapes = (
{
closed = 1;
nodes = (
(180,0,ls),
(210,0,o),
(220,10,o),
(220,40,cs),
(220,240,ls),
(220,255,o),
(225,260,o),
(240,260,cs),
(260,260,ls),
(390,260,o),
(460,310,o),
(460,440,cs),
(460,510,ls),
(460,640,o),
(390,700,o),
(260,700,cs),
(70,700,ls),
(40,700,o),
(30,690,o),
(30,660,cs),
(30,40,ls),
(30,10,o),
(40,0,o),
(70,0,cs)
);
},
{
closed = 1;
nodes = (
(225,400,o),
(220,405,o),
(220,420,cs),
(220,530,ls),
(220,545,o),
(225,550,o),
(240,550,cs),
(250,550,ls),
(280,550,o),
(290,540,o),
(290,500,cs),
(290,450,ls),
(290,410,o),
(280,400,o),
(250,400,cs),
(240,400,ls)
);
}
);
width = 470;
},
{
layerId = "6ABCF30A-460E-4EED-802C-9E4699B7E7F6";
shapes = (
{
closed = 1;
nodes = (
(205,0,ls),
(235,0,o),
(245,10,o),
(245,40,cs),
(245,240,ls),
(245,255,o),
(250,260,o),
(265,260,cs),
(275,260,ls),
(405,260,o),
(460,320,o),
(460,450,cs),
(460,500,ls),
(460,630,o),
(405,700,o),
(265,700,cs),
(55,700,ls),
(25,700,o),
(15,690,o),
(15,660,cs),
(15,40,ls),
(15,10,o),
(25,0,o),
(55,0,cs)
);
},
{
closed = 1;
nodes = (
(249,400,o),
(245,407,o),
(245,420,cs),
(245,530,ls),
(245,543,o),
(249,550,o),
(259,550,cs),
(261,550,ls),
(271,550,o),
(275,543,o),
(275,530,cs),
(275,420,ls),
(275,407,o),
(271,400,o),
(261,400,cs),
(259,400,ls)
);
}
);
width = 470;
},
{
layerId = m003;
shapes = (
{
closed = 1;
nodes = (
(170,0,ls),
(200,0,o),
(210,10,o),
(210,40,cs),
(210,240,ls),
(210,255,o),
(215,260,o),
(230,260,cs),
(260,260,ls),
(390,260,o),
(460,310,o),
(460,440,cs),
(460,510,ls),
(460,640,o),
(390,700,o),
(260,700,cs),
(70,700,ls),
(40,700,o),
(30,690,o),
(30,660,cs),
(30,40,ls),
(30,10,o),
(40,0,o),
(70,0,cs)
);
},
{
closed = 1;
nodes = (
(215,400,o),
(210,405,o),
(210,420,cs),
(210,530,ls),
(210,545,o),
(215,550,o),
(230,550,cs),
(250,550,ls),
(280,550,o),
(290,540,o),
(290,500,cs),
(290,450,ls),
(290,410,o),
(280,400,o),
(250,400,cs),
(230,400,ls)
);
}
);
width = 470;
},
{
layerId = m004;
shapes = (
{
closed = 1;
nodes = (
(185,0,ls),
(215,0,o),
(225,10,o),
(225,40,cs),
(225,240,ls),
(225,255,o),
(230,260,o),
(245,260,cs),
(275,260,ls),
(405,260,o),
(460,320,o),
(460,450,cs),
(460,500,ls),
(460,630,o),
(405,700,o),
(265,700,cs),
(55,700,ls),
(25,700,o),
(15,690,o),
(15,660,cs),
(15,40,ls),
(15,10,o),
(25,0,o),
(55,0,cs)
);
},
{
closed = 1;
nodes = (
(229,400,o),
(225,407,o),
(225,420,cs),
(225,530,ls),
(225,543,o),
(229,550,o),
(239,550,cs),
(241,550,ls),
(251,550,o),
(255,543,o),
(255,530,cs),
(255,420,ls),
(255,407,o),
(251,400,o),
(241,400,cs),
(239,400,ls)
);
}
);
width = 470;
}
);
unicode = 80;
},
{
color = 5;
glyphname = Thorn;
layers = (
{
layerId = m01;
shapes = (
{
closed = 1;
nodes = (
(160,0,ls),
(190,0,o),
(200,10,o),
(200,40,cs),
(200,110,ls),
(200,125,o),
(205,130,o),
(220,130,cs),
(240,130,ls),
(370,130,o),
(440,180,o),
(440,310,cs),
(440,380,ls),
(440,510,o),
(370,570,o),
(240,570,cs),
(220,570,ls),
(205,570,o),
(200,575,o),
(200,590,cs),
(200,660,ls),
(200,690,o),
(190,700,o),
(160,700,cs),
(60,700,ls),
(30,700,o),
(20,690,o),
(20,660,cs),
(20,40,ls),
(20,10,o),
(30,0,o),
(60,0,cs)
);
},
{
closed = 1;
nodes = (
(200,400,ls),
(200,415,o),
(205,420,o),
(220,420,cs),
(230,420,ls),
(260,420,o),
(270,410,o),
(270,370,cs),
(270,320,ls),
(270,280,o),
(260,270,o),
(230,270,cs),
(220,270,ls),
(205,270,o),
(200,275,o),
(200,290,cs)
);
}
);
width = 450;
},
{
layerId = "6ABCF30A-460E-4EED-802C-9E4699B7E7F6";
shapes = (
{
closed = 1;
nodes = (
(160,0,ls),
(190,0,o),
(200,10,o),
(200,40,cs),
(200,110,ls),
(200,125,o),
(205,130,o),
(220,130,cs),
(240,130,ls),
(370,130,o),
(440,180,o),
(440,310,cs),
(440,380,ls),
(440,510,o),
(370,570,o),
(240,570,cs),
(220,570,ls),
(205,570,o),
(200,575,o),
(200,590,cs),
(200,660,ls),
(200,690,o),
(190,700,o),
(160,700,cs),
(60,700,ls),
(30,700,o),
(20,690,o),
(20,660,cs),
(20,40,ls),
(20,10,o),
(30,0,o),
(60,0,cs)
);
},
{
closed = 1;
nodes = (
(200,400,ls),
(200,415,o),
(205,420,o),
(220,420,cs),
(230,420,ls),
(260,420,o),
(270,410,o),
(270,370,cs),
(270,320,ls),
(270,280,o),
(260,270,o),
(230,270,cs),
(220,270,ls),
(205,270,o),
(200,275,o),
(200,290,cs)
);
}
);
width = 450;
},
{
layerId = m003;
shapes = (
{
closed = 1;
nodes = (
(160,0,ls),
(190,0,o),
(200,10,o),
(200,40,cs),
(200,110,ls),
(200,125,o),
(205,130,o),
(220,130,cs),
(240,130,ls),
(370,130,o),
(440,180,o),
(440,310,cs),
(440,380,ls),
(440,510,o),
(370,570,o),
(240,570,cs),
(220,570,ls),
(205,570,o),
(200,575,o),
(200,590,cs),
(200,660,ls),
(200,690,o),
(190,700,o),
(160,700,cs),
(60,700,ls),
(30,700,o),
(20,690,o),
(20,660,cs),
(20,40,ls),
(20,10,o),
(30,0,o),
(60,0,cs)
);
},
{
closed = 1;
nodes = (
(200,400,ls),
(200,415,o),
(205,420,o),
(220,420,cs),
(230,420,ls),
(260,420,o),
(270,410,o),
(270,370,cs),
(270,320,ls),
(270,280,o),
(260,270,o),
(230,270,cs),
(220,270,ls),
(205,270,o),
(200,275,o),
(200,290,cs)
);
}
);
width = 450;
},
{
layerId = m004;
shapes = (
{
closed = 1;
nodes = (
(160,0,ls),
(190,0,o),
(200,10,o),
(200,40,cs),
(200,110,ls),
(200,125,o),
(205,130,o),
(220,130,cs),
(240,130,ls),
(370,130,o),
(440,180,o),
(440,310,cs),
(440,380,ls),
(440,510,o),
(370,570,o),
(240,570,cs),
(220,570,ls),
(205,570,o),
(200,575,o),
(200,590,cs),
(200,660,ls),
(200,690,o),
(190,700,o),
(160,700,cs),
(60,700,ls),
(30,700,o),
(20,690,o),
(20,660,cs),
(20,40,ls),
(20,10,o),
(30,0,o),
(60,0,cs)
);
},
{
closed = 1;
nodes = (
(200,400,ls),
(200,415,o),
(205,420,o),
(220,420,cs),
(230,420,ls),
(260,420,o),
(270,410,o),
(270,370,cs),
(270,320,ls),
(270,280,o),
(260,270,o),
(230,270,cs),
(220,270,ls),
(205,270,o),
(200,275,o),
(200,290,cs)
);
}
);
width = 450;
}
);
unicode = 222;
},
{
color = 5;
glyphname = Q;
kernLeft = O;
kernRight = Q;
layers = (
{
layerId = m01;
shapes = (
{
closed = 1;
nodes = (
(303,-10,o),
(331,30,o),
(351,30,cs),
(375,30,o),
(385,0,o),
(445,0,cs),
(455,0,ls),
(485,0,o),
(490,10,o),
(490,40,cs),
(490,120,ls),
(490,150,o),
(485,160,o),
(455,160,cs),
(440,160,o),
(435,166,o),
(435,180,cs),
(435,200,o),
(455,215,o),
(455,290,cs),
(455,500,ls),
(455,640,o),
(375,710,o),
(235,710,cs),
(95,710,o),
(15,640,o),
(15,500,cs),
(15,200,ls),
(15,60,o),
(95,-10,o),
(235,-10,cs)
);
},
{
closed = 1;
nodes = (
(205,140,o),
(195,160,o),
(195,190,cs),
(195,510,ls),
(195,540,o),
(205,560,o),
(235,560,cs),
(265,560,o),
(275,540,o),
(275,510,cs),
(275,190,ls),
(275,160,o),
(265,140,o),
(235,140,cs)
);
}
);
width = 500;
},
{
layerId = "6ABCF30A-460E-4EED-802C-9E4699B7E7F6";
shapes = (
{
closed = 1;
nodes = (
(298,-10,o),
(336,30,o),
(356,30,cs),
(380,30,o),
(390,0,o),
(450,0,cs),
(460,0,ls),
(490,0,o),
(495,10,o),
(495,40,cs),
(495,120,ls),
(495,150,o),
(490,160,o),
(460,160,cs),
(445,160,o),
(440,166,o),
(440,180,cs),
(440,200,o),
(460,215,o),
(460,290,cs),
(460,500,ls),
(460,640,o),
(370,710,o),
(230,710,cs),
(90,710,o),
(10,640,o),
(10,500,cs),
(10,200,ls),
(10,60,o),
(90,-10,o),
(230,-10,cs)
);
},
{
closed = 1;
nodes = (
(225,140,o),
(220,150,o),
(220,160,cs),
(220,540,ls),
(220,550,o),
(225,560,o),
(235,560,cs),
(245,560,o),
(250,550,o),
(250,540,cs),
(250,160,ls),
(250,150,o),
(245,140,o),
(235,140,cs)
);
}
);
width = 500;
},
{
associatedMasterId = m01;
layerId = "C4D1A468-879B-4D37-86EA-3CD9078B41A4";
name = "Sep 28, 22, 18:51";
shapes = (
{
closed = 1;
nodes = (
(377,-10,o),
(457,60,o),
(457,200,cs),
(457,500,ls),
(457,640,o),
(377,710,o),
(237,710,cs),
(97,710,o),
(17,640,o),
(17,500,cs),
(17,200,ls),
(17,60,o),
(97,-10,o),
(237,-10,cs)
);
},
{
closed = 1;
nodes = (
(207,140,o),
(197,160,o),
(197,190,cs),
(197,510,ls),
(197,540,o),
(207,560,o),
(237,560,cs),
(267,560,o),
(277,540,o),
(277,510,cs),
(277,190,ls),
(277,160,o),
(267,140,o),
(237,140,cs)
);
}
);
width = 507;
},
{
layerId = m003;
shapes = (
{
closed = 1;
nodes = (
(358,-10,o),
(426,30,o),
(446,30,cs),
(470,30,o),
(480,0,o),
(540,0,cs),
(550,0,ls),
(580,0,o),
(585,10,o),
(585,40,cs),
(585,120,ls),
(585,150,o),
(580,160,o),
(550,160,cs),
(535,160,o),
(530,166,o),
(530,180,cs),
(530,200,o),
(550,215,o),
(550,290,cs),
(550,440,ls),
(550,630,o),
(470,710,o),
(290,710,cs),
(110,710,o),
(30,630,o),
(30,440,cs),
(30,260,ls),
(30,70,o),
(110,-10,o),
(290,-10,cs)
);
},
{
closed = 1;
nodes = (
(230,140,o),
(210,180,o),
(210,250,cs),
(210,450,ls),
(210,520,o),
(230,560,o),
(290,560,cs),
(350,560,o),
(370,520,o),
(370,450,cs),
(370,250,ls),
(370,180,o),
(350,140,o),
(290,140,cs)
);
}
);
width = 600;
},
{
associatedMasterId = m003;
layerId = "4E2BA8D3-E3D8-4575-82BE-23C83B4D9C31";
name = "Sep 28, 22, 18:51";
shapes = (
{
closed = 1;
nodes = (
(377,-10,o),
(457,60,o),
(457,200,cs),
(457,500,ls),
(457,640,o),
(377,710,o),
(237,710,cs),
(97,710,o),
(17,640,o),
(17,500,cs),
(17,200,ls),
(17,60,o),
(97,-10,o),
(237,-10,cs)
);
},
{
closed = 1;
nodes = (
(207,140,o),
(197,160,o),
(197,190,cs),
(197,510,ls),
(197,540,o),
(207,560,o),
(237,560,cs),
(267,560,o),
(277,540,o),
(277,510,cs),
(277,190,ls),
(277,160,o),
(267,140,o),
(237,140,cs)
);
}
);
width = 507;
},
{
layerId = m004;
shapes = (
{
closed = 1;
nodes = (
(308,-10,o),
(356,30,o),
(376,30,cs),
(400,30,o),
(410,0,o),
(470,0,cs),
(480,0,ls),
(510,0,o),
(515,10,o),
(515,40,cs),
(515,120,ls),
(515,150,o),
(510,160,o),
(480,160,cs),
(465,160,o),
(460,166,o),
(460,180,cs),
(460,200,o),
(480,215,o),
(480,290,cs),
(480,500,ls),
(480,640,o),
(380,710,o),
(240,710,cs),
(100,710,o),
(10,640,o),
(10,500,cs),
(10,200,ls),
(10,60,o),
(100,-10,o),
(240,-10,cs)
);
},
{
closed = 1;
nodes = (
(235,140,o),
(230,150,o),
(230,160,cs),
(230,540,ls),
(230,550,o),
(235,560,o),
(245,560,cs),
(255,560,o),
(260,550,o),
(260,540,cs),
(260,160,ls),
(260,150,o),
(255,140,o),
(245,140,cs)
);
}
);
width = 520;
}
);
unicode = 81;
},
{
color = 5;
glyphname = R;
kernLeft = H;
kernRight = R;
layers = (
{
anchors = (
{
name = bottom;
pos = (250,0);
},
{
name = top;
pos = (250,700);
}
);
layerId = m01;
shapes = (
{
closed = 1;
nodes = (
(170,0,ls),
(200,0,o),
(210,10,o),
(210,40,cs),
(210,260,ls),
(210,275,o),
(215,280,o),
(230,280,cs),
(250,280,ls),
(280,280,o),
(290,270,o),
(290,230,cs),
(290,80,ls),
(290,30,o),
(300,0,o),
(350,0,cs),
(430,0,ls),
(460,0,o),
(470,10,o),
(470,26,cs),
(470,43,o),
(460,43,o),
(460,80,cs),
(460,210,ls),
(460,268,o),
(444,303,o),
(411,330,cs),
(394,344,o),
(392,346,o),
(392,351,cs),
(392,356,o),
(399,360,o),
(411,372,cs),
(441,400,o),
(460,437,o),
(460,490,cs),
(460,510,ls),
(460,640,o),
(380,700,o),
(250,700,cs),
(70,700,ls),
(40,700,o),
(30,690,o),
(30,660,cs),
(30,40,ls),
(30,10,o),
(40,0,o),
(70,0,cs)
);
},
{
closed = 1;
nodes = (
(215,420,o),
(210,425,o),
(210,440,cs),
(210,530,ls),
(210,545,o),
(215,550,o),
(230,550,cs),
(250,550,ls),
(280,550,o),
(290,540,o),
(290,500,cs),
(290,470,ls),
(290,430,o),
(280,420,o),
(250,420,cs),
(230,420,ls)
);
}
);
width = 490;
},
{
anchors = (
{
name = bottom;
pos = (245,0);
},
{
name = top;
pos = (245,700);
}
);
layerId = "6ABCF30A-460E-4EED-802C-9E4699B7E7F6";
shapes = (
{
closed = 1;
nodes = (
(190,0,ls),
(220,0,o),
(230,10,o),
(230,40,cs),
(230,260,ls),
(230,273,o),
(234,280,o),
(244,280,cs),
(246,280,ls),
(256,280,o),
(260,273,o),
(260,260,cs),
(260,80,ls),
(260,30,o),
(280,0,o),
(330,0,cs),
(440,0,ls),
(470,0,o),
(480,10,o),
(480,26,cs),
(480,43,o),
(470,43,o),
(470,80,cs),
(470,210,ls),
(470,268,o),
(454,303,o),
(421,330,cs),
(404,344,o),
(402,346,o),
(402,351,cs),
(402,356,o),
(409,360,o),
(421,372,cs),
(451,400,o),
(470,437,o),
(470,490,cs),
(470,510,ls),
(470,640,o),
(390,700,o),
(260,700,cs),
(55,700,ls),
(25,700,o),
(15,690,o),
(15,660,cs),
(15,40,ls),
(15,10,o),
(25,0,o),
(55,0,cs)
);
},
{
closed = 1;
nodes = (
(234,400,o),
(230,407,o),
(230,420,cs),
(230,530,ls),
(230,543,o),
(234,550,o),
(244,550,cs),
(246,550,ls),
(256,550,o),
(260,543,o),
(260,530,cs),
(260,420,ls),
(260,407,o),
(256,400,o),
(246,400,cs),
(244,400,ls)
);
}
);
width = 490;
},
{
anchors = (
{
name = top;
pos = (240,700);
}
);
associatedMasterId = m01;
layerId = "07787294-6064-4A53-AB2F-EFB308EAD9E4";
name = "Sep 28, 22, 19:42";
shapes = (
{
closed = 1;
nodes = (
(160,0,ls),
(190,0,o),
(200,10,o),
(200,40,cs),
(200,240,ls),
(200,255,o),
(205,260,o),
(220,260,cs),
(250,260,ls),
(380,260,o),
(460,310,o),
(460,440,cs),
(460,510,ls),
(460,640,o),
(380,700,o),
(250,700,cs),
(60,700,ls),
(30,700,o),
(20,690,o),
(20,660,cs),
(20,40,ls),
(20,10,o),
(30,0,o),
(60,0,cs)
);
},
{
closed = 1;
nodes = (
(205,400,o),
(200,405,o),
(200,420,cs),
(200,530,ls),
(200,545,o),
(205,550,o),
(220,550,cs),
(240,550,ls),
(270,550,o),
(280,540,o),
(280,500,cs),
(280,450,ls),
(280,410,o),
(270,400,o),
(240,400,cs),
(220,400,ls)
);
}
);
width = 484;
},
{
anchors = (
{
name = bottom;
pos = (240,0);
},
{
name = top;
pos = (240,700);
}
);
layerId = m003;
shapes = (
{
closed = 1;
nodes = (
(170,0,ls),
(200,0,o),
(210,10,o),
(210,40,cs),
(210,260,ls),
(210,275,o),
(215,280,o),
(230,280,cs),
(300,280,ls),
(350,280,o),
(370,260,o),
(370,200,cs),
(370,80,ls),
(370,30,o),
(380,0,o),
(430,0,cs),
(520,0,ls),
(550,0,o),
(560,10,o),
(560,26,cs),
(560,43,o),
(550,43,o),
(550,80,cs),
(550,210,ls),
(550,268,o),
(534,303,o),
(501,330,cs),
(484,344,o),
(482,346,o),
(482,351,cs),
(482,356,o),
(489,360,o),
(501,372,cs),
(531,400,o),
(550,437,o),
(550,490,cs),
(550,510,ls),
(550,640,o),
(470,700,o),
(340,700,cs),
(70,700,ls),
(40,700,o),
(30,690,o),
(30,660,cs),
(30,40,ls),
(30,10,o),
(40,0,o),
(70,0,cs)
);
},
{
closed = 1;
nodes = (
(215,420,o),
(210,425,o),
(210,440,cs),
(210,530,ls),
(210,545,o),
(215,550,o),
(230,550,cs),
(300,550,ls),
(350,550,o),
(370,526,o),
(370,486,cs),
(370,484,ls),
(370,444,o),
(350,420,o),
(300,420,cs),
(230,420,ls)
);
}
);
width = 580;
},
{
anchors = (
{
name = top;
pos = (240,700);
}
);
associatedMasterId = m003;
layerId = "AE13765B-798A-40B5-8255-80F3456FDBCE";
name = "Sep 28, 22, 19:42";
shapes = (
{
closed = 1;
nodes = (
(160,0,ls),
(190,0,o),
(200,10,o),
(200,40,cs),
(200,240,ls),
(200,255,o),
(205,260,o),
(220,260,cs),
(250,260,ls),
(380,260,o),
(460,310,o),
(460,440,cs),
(460,510,ls),
(460,640,o),
(380,700,o),
(250,700,cs),
(60,700,ls),
(30,700,o),
(20,690,o),
(20,660,cs),
(20,40,ls),
(20,10,o),
(30,0,o),
(60,0,cs)
);
},
{
closed = 1;
nodes = (
(205,400,o),
(200,405,o),
(200,420,cs),
(200,530,ls),
(200,545,o),
(205,550,o),
(220,550,cs),
(240,550,ls),
(270,550,o),
(280,540,o),
(280,500,cs),
(280,450,ls),
(280,410,o),
(270,400,o),
(240,400,cs),
(220,400,ls)
);
}
);
width = 484;
},
{
anchors = (
{
name = bottom;
pos = (240,0);
},
{
name = top;
pos = (240,700);
}
);
layerId = m004;
shapes = (
{
closed = 1;
nodes = (
(185,0,ls),
(215,0,o),
(225,10,o),
(225,40,cs),
(225,260,ls),
(225,273,o),
(229,280,o),
(239,280,cs),
(241,280,ls),
(251,280,o),
(255,273,o),
(255,260,cs),
(255,80,ls),
(255,30,o),
(275,0,o),
(325,0,cs),
(435,0,ls),
(465,0,o),
(475,10,o),
(475,26,cs),
(475,43,o),
(465,43,o),
(465,80,cs),
(465,210,ls),
(465,268,o),
(449,303,o),
(416,330,cs),
(399,344,o),
(397,346,o),
(397,351,cs),
(397,356,o),
(404,360,o),
(416,372,cs),
(446,400,o),
(465,437,o),
(465,490,cs),
(465,510,ls),
(465,640,o),
(385,700,o),
(255,700,cs),
(55,700,ls),
(25,700,o),
(15,690,o),
(15,660,cs),
(15,40,ls),
(15,10,o),
(25,0,o),
(55,0,cs)
);
},
{
closed = 1;
nodes = (
(229,400,o),
(225,407,o),
(225,420,cs),
(225,530,ls),
(225,543,o),
(229,550,o),
(239,550,cs),
(241,550,ls),
(251,550,o),
(255,543,o),
(255,530,cs),
(255,420,ls),
(255,407,o),
(251,400,o),
(241,400,cs),
(239,400,ls)
);
}
);
width = 480;
}
);
unicode = 82;
},
{
color = 5;
glyphname = S;
kernLeft = S;
kernRight = S;
layers = (
{
anchors = (
{
name = bottom;
pos = (230,0);
},
{
name = top;
pos = (237,700);
}
);
layerId = m01;
shapes = (
{
closed = 1;
nodes = (
(370,-10,o),
(460,40,o),
(460,180,cs),
(460,283,o),
(419,331,o),
(317,396,cs),
(278,421,ls),
(206,467,o),
(200,486,o),
(200,520,cs),
(200,545,o),
(211,560,o),
(235,560,cs),
(261,560,o),
(272,545,o),
(272,520,cs),
(272,510,ls),
(272,480,o),
(282,470,o),
(312,470,cs),
(412,470,ls),
(442,470,o),
(452,480,o),
(452,510,cs),
(452,640,o),
(377,710,o),
(235,710,cs),
(97,710,o),
(20,640,o),
(20,520,cs),
(20,427,o),
(55,357,o),
(134,305,cs),
(180,275,ls),
(239,237,o),
(280,218,o),
(280,180,cs),
(280,157,o),
(269,140,o),
(235,140,cs),
(202,140,o),
(190,157,o),
(190,180,cs),
(190,190,ls),
(190,220,o),
(180,230,o),
(150,230,cs),
(50,230,ls),
(20,230,o),
(10,220,o),
(10,190,cs),
(10,40,o),
(90,-10,o),
(235,-10,cs)
);
}
);
width = 470;
},
{
anchors = (
{
name = bottom;
pos = (240,0);
},
{
name = top;
pos = (240,700);
}
);
layerId = "6ABCF30A-460E-4EED-802C-9E4699B7E7F6";
shapes = (
{
closed = 1;
nodes = (
(370,-10,o),
(460,40,o),
(460,190,cs),
(460,304,o),
(433,340,o),
(336,396,cs),
(291,422,ls),
(225,460,o),
(225,473,o),
(225,540,cs),
(225,553,o),
(230,560,o),
(240,560,cs),
(250,560,o),
(255,553,o),
(255,540,cs),
(255,510,ls),
(255,480,o),
(261,470,o),
(291,470,cs),
(410,470,ls),
(440,470,o),
(450,480,o),
(450,510,cs),
(450,640,o),
(377,710,o),
(237,710,cs),
(97,710,o),
(20,640,o),
(20,510,cs),
(20,377,o),
(71,335,o),
(150,293,cs),
(180,277,ls),
(253,238,o),
(255,231,o),
(255,160,cs),
(255,147,o),
(250,140,o),
(240,140,cs),
(230,140,o),
(225,147,o),
(225,160,cs),
(225,190,ls),
(225,220,o),
(210,230,o),
(180,230,cs),
(50,230,ls),
(20,230,o),
(10,220,o),
(10,190,cs),
(10,40,o),
(90,-10,o),
(230,-10,cs)
);
}
);
width = 470;
},
{
anchors = (
{
name = bottom;
pos = (283,0);
},
{
name = top;
pos = (288,700);
}
);
layerId = m003;
shapes = (
{
closed = 1;
nodes = (
(425,-10,o),
(550,40,o),
(550,180,cs),
(550,279,o),
(526,339,o),
(410,382,cs),
(297,424,ls),
(222,452,o),
(210,464,o),
(210,497,cs),
(210,525,o),
(231,560,o),
(286,560,cs),
(341,560,o),
(362,538,o),
(362,500,cs),
(362,490,ls),
(362,460,o),
(372,450,o),
(402,450,cs),
(502,450,ls),
(532,450,o),
(542,460,o),
(542,490,cs),
(542,620,o),
(438,710,o),
(287,710,cs),
(147,710,o),
(30,630,o),
(30,500,cs),
(30,381,o),
(96,341,o),
(183,305,cs),
(338,241,ls),
(364,230,o),
(375,214,o),
(375,191,cs),
(375,152,o),
(345,140,o),
(285,140,cs),
(225,140,o),
(200,162,o),
(200,208,cs),
(200,210,ls),
(200,240,o),
(190,250,o),
(160,250,cs),
(60,250,ls),
(30,250,o),
(20,240,o),
(20,210,cs),
(20,60,o),
(125,-10,o),
(285,-10,cs)
);
}
);
width = 570;
},
{
anchors = (
{
name = bottom;
pos = (280,0);
},
{
name = top;
pos = (287,700);
}
);
layerId = m004;
shapes = (
{
closed = 1;
nodes = (
(420,-10,o),
(560,30,o),
(560,210,cs),
(560,355,o),
(522,379,o),
(383,419,cs),
(345,430,ls),
(285,447,o),
(275,452,o),
(275,540,cs),
(275,553,o),
(280,560,o),
(290,560,cs),
(300,560,o),
(305,553,o),
(305,540,cs),
(305,500,ls),
(305,474,o),
(319,460,o),
(345,460,cs),
(512,460,ls),
(542,460,o),
(552,470,o),
(552,500,cs),
(552,670,o),
(457,710,o),
(287,710,cs),
(127,710,o),
(20,670,o),
(20,490,cs),
(20,350,o),
(79,309,o),
(195,280,cs),
(235,270,ls),
(296,255,o),
(305,247,o),
(305,160,cs),
(305,147,o),
(300,140,o),
(290,140,cs),
(280,140,o),
(275,147,o),
(275,160,cs),
(275,200,ls),
(275,226,o),
(261,240,o),
(235,240,cs),
(50,240,ls),
(20,240,o),
(10,230,o),
(10,200,cs),
(10,30,o),
(140,-10,o),
(280,-10,cs)
);
}
);
width = 570;
},
{
anchors = (
{
name = bottom;
pos = (280,0);
},
{
name = top;
pos = (287,700);
}
);
associatedMasterId = m004;
layerId = "AA0F36F3-DD68-4107-BC45-164E0611EB34";
name = "Feb 22, 23 at 18:34";
shapes = (
{
closed = 1;
nodes = (
(470,-10,o),
(570,30,o),
(570,210,cs),
(570,490,ls),
(570,670,o),
(470,710,o),
(290,710,cs),
(110,710,o),
(10,670,o),
(10,490,cs),
(10,210,ls),
(10,30,o),
(110,-10,o),
(290,-10,cs)
);
},
{
closed = 1;
nodes = (
(280,140,o),
(275,147,o),
(275,160,cs),
(275,540,ls),
(275,553,o),
(280,560,o),
(290,560,cs),
(300,560,o),
(305,553,o),
(305,540,cs),
(305,160,ls),
(305,147,o),
(300,140,o),
(290,140,cs)
);
}
);
visible = 1;
width = 570;
}
);
unicode = 83;
},
{
color = 5;
glyphname = Scedilla;
layers = (
{
layerId = m01;
shapes = (
{
closed = 1;
nodes = (
(10,53,o),
(76,0,o),
(194,-9,c),
(211,-19,o),
(219,-36,o),
(219,-50,cs),
(219,-70,o),
(191,-83,o),
(159,-83,cs),
(145,-83,o),
(139,-91,o),
(139,-103,cs),
(139,-154,ls),
(139,-164,o),
(145,-174,o),
(159,-174,cs),
(257,-174,o),
(311,-147,o),
(311,-92,cs),
(311,-38,o),
(265,-30,o),
(265,-10,cs),
(265,-9,l),
(385,-1,o),
(460,52,o),
(460,180,cs),
(460,283,o),
(420,332,o),
(317,396,cs),
(210,463,o),
(200,481,o),
(200,520,cs),
(200,545,o),
(211,560,o),
(236,560,cs),
(261,560,o),
(272,545,o),
(272,520,cs),
(272,510,ls),
(272,480,o),
(282,470,o),
(312,470,cs),
(412,470,ls),
(442,470,o),
(452,480,o),
(452,510,cs),
(452,640,o),
(377,710,o),
(237,710,cs),
(97,710,o),
(20,640,o),
(20,520,cs),
(20,411,o),
(83,339,o),
(180,276,cs),
(240,237,o),
(280,217,o),
(280,180,cs),
(280,157,o),
(269,140,o),
(235,140,cs),
(202,140,o),
(190,157,o),
(190,180,cs),
(190,190,ls),
(190,220,o),
(180,230,o),
(150,230,cs),
(50,230,ls),
(20,230,o),
(10,220,o),
(10,190,cs)
);
}
);
width = 470;
},
{
layerId = "6ABCF30A-460E-4EED-802C-9E4699B7E7F6";
shapes = (
{
closed = 1;
nodes = (
(10,53,o),
(76,0,o),
(194,-9,c),
(211,-19,o),
(219,-36,o),
(219,-50,cs),
(219,-70,o),
(191,-83,o),
(159,-83,cs),
(145,-83,o),
(139,-91,o),
(139,-103,cs),
(139,-154,ls),
(139,-164,o),
(145,-174,o),
(159,-174,cs),
(257,-174,o),
(311,-147,o),
(311,-92,cs),
(311,-38,o),
(265,-30,o),
(265,-10,cs),
(265,-9,l),
(385,-1,o),
(460,52,o),
(460,180,cs),
(460,283,o),
(420,332,o),
(317,396,cs),
(210,463,o),
(200,481,o),
(200,520,cs),
(200,545,o),
(211,560,o),
(236,560,cs),
(261,560,o),
(272,545,o),
(272,520,cs),
(272,510,ls),
(272,480,o),
(282,470,o),
(312,470,cs),
(412,470,ls),
(442,470,o),
(452,480,o),
(452,510,cs),
(452,640,o),
(377,710,o),
(237,710,cs),
(97,710,o),
(20,640,o),
(20,520,cs),
(20,411,o),
(83,339,o),
(180,276,cs),
(240,237,o),
(280,217,o),
(280,180,cs),
(280,157,o),
(269,140,o),
(235,140,cs),
(202,140,o),
(190,157,o),
(190,180,cs),
(190,190,ls),
(190,220,o),
(180,230,o),
(150,230,cs),
(50,230,ls),
(20,230,o),
(10,220,o),
(10,190,cs)
);
}
);
width = 470;
},
{
layerId = m003;
shapes = (
{
closed = 1;
nodes = (
(10,53,o),
(76,0,o),
(194,-9,c),
(211,-19,o),
(219,-36,o),
(219,-50,cs),
(219,-70,o),
(191,-83,o),
(159,-83,cs),
(145,-83,o),
(139,-91,o),
(139,-103,cs),
(139,-154,ls),
(139,-164,o),
(145,-174,o),
(159,-174,cs),
(257,-174,o),
(311,-147,o),
(311,-92,cs),
(311,-38,o),
(265,-30,o),
(265,-10,cs),
(265,-9,l),
(385,-1,o),
(460,52,o),
(460,180,cs),
(460,283,o),
(420,332,o),
(317,396,cs),
(210,463,o),
(200,481,o),
(200,520,cs),
(200,545,o),
(211,560,o),
(236,560,cs),
(261,560,o),
(272,545,o),
(272,520,cs),
(272,510,ls),
(272,480,o),
(282,470,o),
(312,470,cs),
(412,470,ls),
(442,470,o),
(452,480,o),
(452,510,cs),
(452,640,o),
(377,710,o),
(237,710,cs),
(97,710,o),
(20,640,o),
(20,520,cs),
(20,411,o),
(83,339,o),
(180,276,cs),
(240,237,o),
(280,217,o),
(280,180,cs),
(280,157,o),
(269,140,o),
(235,140,cs),
(202,140,o),
(190,157,o),
(190,180,cs),
(190,190,ls),
(190,220,o),
(180,230,o),
(150,230,cs),
(50,230,ls),
(20,230,o),
(10,220,o),
(10,190,cs)
);
}
);
width = 470;
},
{
layerId = m004;
shapes = (
{
closed = 1;
nodes = (
(10,53,o),
(76,0,o),
(194,-9,c),
(211,-19,o),
(219,-36,o),
(219,-50,cs),
(219,-70,o),
(191,-83,o),
(159,-83,cs),
(145,-83,o),
(139,-91,o),
(139,-103,cs),
(139,-154,ls),
(139,-164,o),
(145,-174,o),
(159,-174,cs),
(257,-174,o),
(311,-147,o),
(311,-92,cs),
(311,-38,o),
(265,-30,o),
(265,-10,cs),
(265,-9,l),
(385,-1,o),
(460,52,o),
(460,180,cs),
(460,283,o),
(420,332,o),
(317,396,cs),
(210,463,o),
(200,481,o),
(200,520,cs),
(200,545,o),
(211,560,o),
(236,560,cs),
(261,560,o),
(272,545,o),
(272,520,cs),
(272,510,ls),
(272,480,o),
(282,470,o),
(312,470,cs),
(412,470,ls),
(442,470,o),
(452,480,o),
(452,510,cs),
(452,640,o),
(377,710,o),
(237,710,cs),
(97,710,o),
(20,640,o),
(20,520,cs),
(20,411,o),
(83,339,o),
(180,276,cs),
(240,237,o),
(280,217,o),
(280,180,cs),
(280,157,o),
(269,140,o),
(235,140,cs),
(202,140,o),
(190,157,o),
(190,180,cs),
(190,190,ls),
(190,220,o),
(180,230,o),
(150,230,cs),
(50,230,ls),
(20,230,o),
(10,220,o),
(10,190,cs)
);
}
);
width = 470;
}
);
unicode = 350;
},
{
color = 5;
glyphname = Germandbls;
layers = (
{
layerId = m01;
shapes = (
{
closed = 1;
nodes = (
(160,0,ls),
(190,0,o),
(200,10,o),
(200,40,cs),
(200,540,ls),
(200,555,o),
(205,560,o),
(220,560,cs),
(290,560,ls),
(320,560,o),
(350,550,o),
(350,510,cs),
(350,480,ls),
(350,440,o),
(340,430,o),
(310,430,cs),
(300,430,ls),
(285,430,o),
(280,425,o),
(280,410,cs),
(280,310,ls),
(280,295,o),
(285,290,o),
(300,290,cs),
(310,290,ls),
(340,290,o),
(350,280,o),
(350,230,cs),
(350,200,ls),
(350,150,o),
(340,140,o),
(310,140,cs),
(267,140,ls),
(252,140,o),
(247,135,o),
(247,120,cs),
(247,20,ls),
(247,5,o),
(252,0,o),
(267,0,cs),
(350,0,ls),
(480,0,o),
(540,60,o),
(540,180,cs),
(540,210,ls),
(540,300,o),
(486,337,o),
(460,350,cs),
(455,353,o),
(450,355,o),
(450,360,cs),
(450,365,o),
(454,366,o),
(460,370,cs),
(483,385,o),
(520,420,o),
(520,490,cs),
(520,520,ls),
(520,650,o),
(420,700,o),
(290,700,cs),
(60,700,ls),
(30,700,o),
(20,690,o),
(20,660,cs),
(20,40,ls),
(20,10,o),
(31,0,o),
(59,0,cs)
);
}
);
width = 550;
},
{
layerId = "6ABCF30A-460E-4EED-802C-9E4699B7E7F6";
shapes = (
{
closed = 1;
nodes = (
(160,0,ls),
(190,0,o),
(200,10,o),
(200,40,cs),
(200,540,ls),
(200,555,o),
(205,560,o),
(220,560,cs),
(290,560,ls),
(320,560,o),
(350,550,o),
(350,510,cs),
(350,480,ls),
(350,440,o),
(340,430,o),
(310,430,cs),
(300,430,ls),
(285,430,o),
(280,425,o),
(280,410,cs),
(280,310,ls),
(280,295,o),
(285,290,o),
(300,290,cs),
(310,290,ls),
(340,290,o),
(350,280,o),
(350,230,cs),
(350,200,ls),
(350,150,o),
(340,140,o),
(310,140,cs),
(267,140,ls),
(252,140,o),
(247,135,o),
(247,120,cs),
(247,20,ls),
(247,5,o),
(252,0,o),
(267,0,cs),
(350,0,ls),
(480,0,o),
(540,60,o),
(540,180,cs),
(540,210,ls),
(540,300,o),
(486,337,o),
(460,350,cs),
(455,353,o),
(450,355,o),
(450,360,cs),
(450,365,o),
(454,366,o),
(460,370,cs),
(483,385,o),
(520,420,o),
(520,490,cs),
(520,520,ls),
(520,650,o),
(420,700,o),
(290,700,cs),
(60,700,ls),
(30,700,o),
(20,690,o),
(20,660,cs),
(20,40,ls),
(20,10,o),
(31,0,o),
(59,0,cs)
);
}
);
width = 550;
},
{
layerId = m003;
shapes = (
{
closed = 1;
nodes = (
(160,0,ls),
(190,0,o),
(200,10,o),
(200,40,cs),
(200,540,ls),
(200,555,o),
(205,560,o),
(220,560,cs),
(290,560,ls),
(320,560,o),
(350,550,o),
(350,510,cs),
(350,480,ls),
(350,440,o),
(340,430,o),
(310,430,cs),
(300,430,ls),
(285,430,o),
(280,425,o),
(280,410,cs),
(280,310,ls),
(280,295,o),
(285,290,o),
(300,290,cs),
(310,290,ls),
(340,290,o),
(350,280,o),
(350,230,cs),
(350,200,ls),
(350,150,o),
(340,140,o),
(310,140,cs),
(267,140,ls),
(252,140,o),
(247,135,o),
(247,120,cs),
(247,20,ls),
(247,5,o),
(252,0,o),
(267,0,cs),
(350,0,ls),
(480,0,o),
(540,60,o),
(540,180,cs),
(540,210,ls),
(540,300,o),
(486,337,o),
(460,350,cs),
(455,353,o),
(450,355,o),
(450,360,cs),
(450,365,o),
(454,366,o),
(460,370,cs),
(483,385,o),
(520,420,o),
(520,490,cs),
(520,520,ls),
(520,650,o),
(420,700,o),
(290,700,cs),
(60,700,ls),
(30,700,o),
(20,690,o),
(20,660,cs),
(20,40,ls),
(20,10,o),
(31,0,o),
(59,0,cs)
);
}
);
width = 550;
},
{
layerId = m004;
shapes = (
{
closed = 1;
nodes = (
(160,0,ls),
(190,0,o),
(200,10,o),
(200,40,cs),
(200,540,ls),
(200,555,o),
(205,560,o),
(220,560,cs),
(290,560,ls),
(320,560,o),
(350,550,o),
(350,510,cs),
(350,480,ls),
(350,440,o),
(340,430,o),
(310,430,cs),
(300,430,ls),
(285,430,o),
(280,425,o),
(280,410,cs),
(280,310,ls),
(280,295,o),
(285,290,o),
(300,290,cs),
(310,290,ls),
(340,290,o),
(350,280,o),
(350,230,cs),
(350,200,ls),
(350,150,o),
(340,140,o),
(310,140,cs),
(267,140,ls),
(252,140,o),
(247,135,o),
(247,120,cs),
(247,20,ls),
(247,5,o),
(252,0,o),
(267,0,cs),
(350,0,ls),
(480,0,o),
(540,60,o),
(540,180,cs),
(540,210,ls),
(540,300,o),
(486,337,o),
(460,350,cs),
(455,353,o),
(450,355,o),
(450,360,cs),
(450,365,o),
(454,366,o),
(460,370,cs),
(483,385,o),
(520,420,o),
(520,490,cs),
(520,520,ls),
(520,650,o),
(420,700,o),
(290,700,cs),
(60,700,ls),
(30,700,o),
(20,690,o),
(20,660,cs),
(20,40,ls),
(20,10,o),
(31,0,o),
(59,0,cs)
);
}
);
width = 550;
}
);
unicode = 7838;
},
{
color = 5;
glyphname = T;
kernLeft = T;
kernRight = T;
layers = (
{
anchors = (
{
name = bottom;
pos = (220,0);
},
{
name = top;
pos = (220,700);
}
);
layerId = m01;
shapes = (
{
closed = 1;
nodes = (
(275,0,ls),
(305,0,o),
(315,10,o),
(315,40,cs),
(315,530,ls),
(315,545,o),
(320,550,o),
(335,550,cs),
(390,550,ls),
(420,550,o),
(430,560,o),
(430,590,cs),
(430,660,ls),
(430,690,o),
(420,700,o),
(390,700,cs),
(50,700,ls),
(19,700,o),
(10,690,o),
(10,660,cs),
(10,590,ls),
(10,565,o),
(20,550,o),
(50,550,cs),
(105,550,ls),
(120,550,o),
(125,545,o),
(125,530,cs),
(125,40,ls),
(125,10,o),
(135,0,o),
(165,0,cs)
);
}
);
width = 440;
},
{
anchors = (
{
name = bottom;
pos = (210,0);
},
{
name = top;
pos = (210,700);
}
);
layerId = "6ABCF30A-460E-4EED-802C-9E4699B7E7F6";
shapes = (
{
closed = 1;
nodes = (
(295,0,ls),
(325,0,o),
(335,10,o),
(335,40,cs),
(335,460,ls),
(335,475,o),
(340,480,o),
(355,480,cs),
(390,480,ls),
(420,480,o),
(430,490,o),
(430,520,cs),
(430,660,ls),
(430,690,o),
(420,700,o),
(390,700,cs),
(50,700,ls),
(19,700,o),
(10,690,o),
(10,660,cs),
(10,520,ls),
(10,495,o),
(20,480,o),
(50,480,cs),
(85,480,ls),
(100,480,o),
(105,475,o),
(105,460,cs),
(105,40,ls),
(105,10,o),
(115,0,o),
(145,0,cs)
);
}
);
width = 440;
},
{
anchors = (
{
name = bottom;
pos = (260,0);
},
{
name = top;
pos = (260,700);
}
);
layerId = m003;
shapes = (
{
closed = 1;
nodes = (
(310,0,ls),
(340,0,o),
(350,10,o),
(350,40,cs),
(350,530,ls),
(350,545,o),
(355,550,o),
(370,550,cs),
(470,550,ls),
(500,550,o),
(510,560,o),
(510,590,cs),
(510,660,ls),
(510,690,o),
(500,700,o),
(470,700,cs),
(50,700,ls),
(19,700,o),
(10,690,o),
(10,660,cs),
(10,590,ls),
(10,565,o),
(20,550,o),
(50,550,cs),
(150,550,ls),
(165,550,o),
(170,545,o),
(170,530,cs),
(170,40,ls),
(170,10,o),
(180,0,o),
(210,0,cs)
);
}
);
width = 520;
},
{
anchors = (
{
name = bottom;
pos = (190,0);
},
{
name = top;
pos = (190,700);
}
);
layerId = m004;
shapes = (
{
closed = 1;
nodes = (
(290,0,ls),
(320,0,o),
(330,10,o),
(330,40,cs),
(330,430,ls),
(330,445,o),
(335,450,o),
(350,450,cs),
(370,450,ls),
(400,450,o),
(410,460,o),
(410,490,cs),
(410,660,ls),
(410,690,o),
(400,700,o),
(370,700,cs),
(50,700,ls),
(19,700,o),
(10,690,o),
(10,660,cs),
(10,490,ls),
(10,465,o),
(20,450,o),
(50,450,cs),
(70,450,ls),
(85,450,o),
(90,445,o),
(90,430,cs),
(90,40,ls),
(90,10,o),
(100,0,o),
(130,0,cs)
);
}
);
width = 420;
}
);
unicode = 84;
},
{
color = 5;
glyphname = Tcedilla;
layers = (
{
layerId = m01;
shapes = (
{
closed = 1;
nodes = (
(182,0,o),
(200,-29,o),
(200,-50,cs),
(200,-70,o),
(172,-83,o),
(140,-83,cs),
(126,-83,o),
(120,-91,o),
(120,-103,cs),
(120,-154,ls),
(120,-164,o),
(126,-174,o),
(140,-174,cs),
(238,-174,o),
(292,-147,o),
(292,-92,cs),
(292,-38,o),
(226,-30,o),
(226,-10,cs),
(226,-4,o),
(230,0,o),
(240,0,cs),
(270,0,o),
(280,10,o),
(280,40,cs),
(280,530,ls),
(280,545,o),
(285,550,o),
(300,550,cs),
(330,550,ls),
(360,550,o),
(370,560,o),
(370,590,cs),
(370,660,ls),
(370,690,o),
(360,700,o),
(330,700,cs),
(50,700,ls),
(19,700,o),
(10,690,o),
(10,660,cs),
(10,590,ls),
(10,565,o),
(20,550,o),
(50,550,cs),
(80,550,ls),
(95,550,o),
(100,545,o),
(100,530,cs),
(100,40,ls),
(100,10,o),
(110,0,o),
(140,0,cs)
);
}
);
width = 380;
},
{
layerId = "6ABCF30A-460E-4EED-802C-9E4699B7E7F6";
shapes = (
{
closed = 1;
nodes = (
(182,0,o),
(200,-29,o),
(200,-50,cs),
(200,-70,o),
(172,-83,o),
(140,-83,cs),
(126,-83,o),
(120,-91,o),
(120,-103,cs),
(120,-154,ls),
(120,-164,o),
(126,-174,o),
(140,-174,cs),
(238,-174,o),
(292,-147,o),
(292,-92,cs),
(292,-38,o),
(226,-30,o),
(226,-10,cs),
(226,-4,o),
(230,0,o),
(240,0,cs),
(270,0,o),
(280,10,o),
(280,40,cs),
(280,530,ls),
(280,545,o),
(285,550,o),
(300,550,cs),
(330,550,ls),
(360,550,o),
(370,560,o),
(370,590,cs),
(370,660,ls),
(370,690,o),
(360,700,o),
(330,700,cs),
(50,700,ls),
(19,700,o),
(10,690,o),
(10,660,cs),
(10,590,ls),
(10,565,o),
(20,550,o),
(50,550,cs),
(80,550,ls),
(95,550,o),
(100,545,o),
(100,530,cs),
(100,40,ls),
(100,10,o),
(110,0,o),
(140,0,cs)
);
}
);
width = 380;
},
{
layerId = m003;
shapes = (
{
closed = 1;
nodes = (
(182,0,o),
(200,-29,o),
(200,-50,cs),
(200,-70,o),
(172,-83,o),
(140,-83,cs),
(126,-83,o),
(120,-91,o),
(120,-103,cs),
(120,-154,ls),
(120,-164,o),
(126,-174,o),
(140,-174,cs),
(238,-174,o),
(292,-147,o),
(292,-92,cs),
(292,-38,o),
(226,-30,o),
(226,-10,cs),
(226,-4,o),
(230,0,o),
(240,0,cs),
(270,0,o),
(280,10,o),
(280,40,cs),
(280,530,ls),
(280,545,o),
(285,550,o),
(300,550,cs),
(330,550,ls),
(360,550,o),
(370,560,o),
(370,590,cs),
(370,660,ls),
(370,690,o),
(360,700,o),
(330,700,cs),
(50,700,ls),
(19,700,o),
(10,690,o),
(10,660,cs),
(10,590,ls),
(10,565,o),
(20,550,o),
(50,550,cs),
(80,550,ls),
(95,550,o),
(100,545,o),
(100,530,cs),
(100,40,ls),
(100,10,o),
(110,0,o),
(140,0,cs)
);
}
);
width = 380;
},
{
layerId = m004;
shapes = (
{
closed = 1;
nodes = (
(182,0,o),
(200,-29,o),
(200,-50,cs),
(200,-70,o),
(172,-83,o),
(140,-83,cs),
(126,-83,o),
(120,-91,o),
(120,-103,cs),
(120,-154,ls),
(120,-164,o),
(126,-174,o),
(140,-174,cs),
(238,-174,o),
(292,-147,o),
(292,-92,cs),
(292,-38,o),
(226,-30,o),
(226,-10,cs),
(226,-4,o),
(230,0,o),
(240,0,cs),
(270,0,o),
(280,10,o),
(280,40,cs),
(280,530,ls),
(280,545,o),
(285,550,o),
(300,550,cs),
(330,550,ls),
(360,550,o),
(370,560,o),
(370,590,cs),
(370,660,ls),
(370,690,o),
(360,700,o),
(330,700,cs),
(50,700,ls),
(19,700,o),
(10,690,o),
(10,660,cs),
(10,590,ls),
(10,565,o),
(20,550,o),
(50,550,cs),
(80,550,ls),
(95,550,o),
(100,545,o),
(100,530,cs),
(100,40,ls),
(100,10,o),
(110,0,o),
(140,0,cs)
);
}
);
width = 380;
}
);
unicode = 354;
},
{
color = 5;
glyphname = U;
kernLeft = U;
kernRight = U;
layers = (
{
anchors = (
{
name = top;
pos = (243,700);
}
);
layerId = m01;
shapes = (
{
closed = 1;
nodes = (
(380,-10,o),
(455,60,o),
(455,200,cs),
(455,660,ls),
(455,690,o),
(445,700,o),
(415,700,cs),
(315,700,ls),
(285,700,o),
(275,690,o),
(275,660,cs),
(275,190,ls),
(275,150,o),
(260,140,o),
(240,140,cs),
(220,140,o),
(205,150,o),
(205,190,cs),
(205,660,ls),
(205,690,o),
(195,700,o),
(165,700,cs),
(65,700,ls),
(35,700,o),
(25,690,o),
(25,660,cs),
(25,200,ls),
(25,60,o),
(100,-10,o),
(240,-10,cs)
);
}
);
width = 480;
},
{
anchors = (
{
name = top;
pos = (238,700);
}
);
layerId = "6ABCF30A-460E-4EED-802C-9E4699B7E7F6";
shapes = (
{
closed = 1;
nodes = (
(380,-10,o),
(465,70,o),
(465,200,cs),
(465,660,ls),
(465,690,o),
(455,700,o),
(425,700,cs),
(295,700,ls),
(265,700,o),
(255,690,o),
(255,660,cs),
(255,160,ls),
(255,147,o),
(250,140,o),
(240,140,cs),
(230,140,o),
(225,147,o),
(225,160,cs),
(225,660,ls),
(225,690,o),
(215,700,o),
(185,700,cs),
(55,700,ls),
(25,700,o),
(15,690,o),
(15,660,cs),
(15,200,ls),
(15,70,o),
(100,-10,o),
(240,-10,cs)
);
}
);
width = 480;
},
{
anchors = (
{
name = top;
pos = (283,700);
}
);
layerId = m003;
shapes = (
{
closed = 1;
nodes = (
(463,-10,o),
(536,90,o),
(536,230,cs),
(536,660,ls),
(536,690,o),
(526,700,o),
(496,700,cs),
(398,700,ls),
(368,700,o),
(358,690,o),
(358,660,cs),
(358,220,ls),
(358,160,o),
(333,140,o),
(283,140,cs),
(233,140,o),
(208,160,o),
(208,220,cs),
(208,660,ls),
(208,690,o),
(198,700,o),
(168,700,cs),
(70,700,ls),
(40,700,o),
(30,690,o),
(30,660,cs),
(30,230,ls),
(30,90,o),
(103,-10,o),
(283,-10,cs)
);
}
);
width = 566;
},
{
anchors = (
{
name = top;
pos = (283,700);
}
);
layerId = m004;
shapes = (
{
closed = 1;
nodes = (
(423,-10,o),
(556,50,o),
(556,240,cs),
(556,660,ls),
(556,690,o),
(546,700,o),
(516,700,cs),
(338,700,ls),
(308,700,o),
(298,690,o),
(298,660,cs),
(298,160,ls),
(298,147,o),
(293,140,o),
(283,140,cs),
(273,140,o),
(268,147,o),
(268,160,cs),
(268,660,ls),
(268,690,o),
(258,700,o),
(228,700,cs),
(50,700,ls),
(20,700,o),
(10,690,o),
(10,660,cs),
(10,240,ls),
(10,50,o),
(143,-10,o),
(283,-10,cs)
);
}
);
width = 566;
}
);
unicode = 85;
},
{
color = 5;
glyphname = Uogonek;
layers = (
{
layerId = m01;
shapes = (
{
closed = 1;
nodes = (
(233,-30,o),
(187,-38,o),
(187,-92,cs),
(187,-147,o),
(241,-174,o),
(339,-174,cs),
(353,-174,o),
(359,-164,o),
(359,-154,cs),
(359,-103,ls),
(359,-91,o),
(353,-83,o),
(339,-83,cs),
(307,-83,o),
(279,-70,o),
(279,-50,cs),
(279,-24,o),
(314,-9,o),
(346,11,cs),
(408,50,o),
(448,104,o),
(448,200,cs),
(448,660,ls),
(448,690,o),
(438,700,o),
(408,700,cs),
(308,700,ls),
(278,700,o),
(268,690,o),
(268,660,cs),
(268,190,ls),
(268,150,o),
(253,140,o),
(233,140,cs),
(213,140,o),
(198,150,o),
(198,190,cs),
(198,660,ls),
(198,690,o),
(188,700,o),
(158,700,cs),
(58,700,ls),
(28,700,o),
(18,690,o),
(18,660,cs),
(18,200,ls),
(18,60,o),
(93,-10,o),
(233,-10,c)
);
}
);
width = 466;
},
{
layerId = "6ABCF30A-460E-4EED-802C-9E4699B7E7F6";
shapes = (
{
closed = 1;
nodes = (
(233,-30,o),
(187,-38,o),
(187,-92,cs),
(187,-147,o),
(241,-174,o),
(339,-174,cs),
(353,-174,o),
(359,-164,o),
(359,-154,cs),
(359,-103,ls),
(359,-91,o),
(353,-83,o),
(339,-83,cs),
(307,-83,o),
(279,-70,o),
(279,-50,cs),
(279,-24,o),
(314,-9,o),
(346,11,cs),
(408,50,o),
(448,104,o),
(448,200,cs),
(448,660,ls),
(448,690,o),
(438,700,o),
(408,700,cs),
(308,700,ls),
(278,700,o),
(268,690,o),
(268,660,cs),
(268,190,ls),
(268,150,o),
(253,140,o),
(233,140,cs),
(213,140,o),
(198,150,o),
(198,190,cs),
(198,660,ls),
(198,690,o),
(188,700,o),
(158,700,cs),
(58,700,ls),
(28,700,o),
(18,690,o),
(18,660,cs),
(18,200,ls),
(18,60,o),
(93,-10,o),
(233,-10,c)
);
}
);
width = 466;
},
{
layerId = m003;
shapes = (
{
closed = 1;
nodes = (
(233,-30,o),
(187,-38,o),
(187,-92,cs),
(187,-147,o),
(241,-174,o),
(339,-174,cs),
(353,-174,o),
(359,-164,o),
(359,-154,cs),
(359,-103,ls),
(359,-91,o),
(353,-83,o),
(339,-83,cs),
(307,-83,o),
(279,-70,o),
(279,-50,cs),
(279,-24,o),
(314,-9,o),
(346,11,cs),
(408,50,o),
(448,104,o),
(448,200,cs),
(448,660,ls),
(448,690,o),
(438,700,o),
(408,700,cs),
(308,700,ls),
(278,700,o),
(268,690,o),
(268,660,cs),
(268,190,ls),
(268,150,o),
(253,140,o),
(233,140,cs),
(213,140,o),
(198,150,o),
(198,190,cs),
(198,660,ls),
(198,690,o),
(188,700,o),
(158,700,cs),
(58,700,ls),
(28,700,o),
(18,690,o),
(18,660,cs),
(18,200,ls),
(18,60,o),
(93,-10,o),
(233,-10,c)
);
}
);
width = 466;
},
{
layerId = m004;
shapes = (
{
closed = 1;
nodes = (
(233,-30,o),
(187,-38,o),
(187,-92,cs),
(187,-147,o),
(241,-174,o),
(339,-174,cs),
(353,-174,o),
(359,-164,o),
(359,-154,cs),
(359,-103,ls),
(359,-91,o),
(353,-83,o),
(339,-83,cs),
(307,-83,o),
(279,-70,o),
(279,-50,cs),
(279,-24,o),
(314,-9,o),
(346,11,cs),
(408,50,o),
(448,104,o),
(448,200,cs),
(448,660,ls),
(448,690,o),
(438,700,o),
(408,700,cs),
(308,700,ls),
(278,700,o),
(268,690,o),
(268,660,cs),
(268,190,ls),
(268,150,o),
(253,140,o),
(233,140,cs),
(213,140,o),
(198,150,o),
(198,190,cs),
(198,660,ls),
(198,690,o),
(188,700,o),
(158,700,cs),
(58,700,ls),
(28,700,o),
(18,690,o),
(18,660,cs),
(18,200,ls),
(18,60,o),
(93,-10,o),
(233,-10,c)
);
}
);
width = 466;
}
);
unicode = 370;
},
{
color = 5;
glyphname = V;
kernLeft = V;
kernRight = V;
layers = (
{
layerId = m01;
shapes = (
{
closed = 1;
nodes = (
(234,150,o),
(231,157,o),
(230,170,cs),
(192,660,ls),
(190,691,o),
(182,700,o),
(162,700,cs),
(50,700,ls),
(20,700,o),
(10,690,o),
(10,660,cs),
(10,640,o),
(17,600,o),
(20,580,cs),
(100,40,ls),
(104,10,o),
(120,0,o),
(150,0,cs),
(330,0,ls),
(360,0,o),
(376,10,o),
(380,40,cs),
(460,580,ls),
(463,600,o),
(470,640,o),
(470,660,cs),
(470,690,o),
(460,700,o),
(430,700,cs),
(318,700,ls),
(298,700,o),
(290,691,o),
(288,660,cs),
(250,170,ls),
(249,157,o),
(246,150,o),
(240,150,cs)
);
}
);
width = 480;
},
{
associatedMasterId = m01;
layerId = "7786A122-C3EC-43E0-B566-6DF7C6BDD768";
name = "Sep 11, 22, 11:30";
shapes = (
{
closed = 1;
nodes = (
(328,700,ls),
(308,700,o),
(301,691,o),
(298,660,cs),
(290,580,ls),
(288,565,o),
(285,560,o),
(270,560,cs),
(230,560,ls),
(215,560,o),
(212,565,o),
(210,580,cs),
(202,660,ls),
(199,691,o),
(192,700,o),
(172,700,cs),
(60,700,ls),
(30,700,o),
(20,690,o),
(20,660,cs),
(20,640,o),
(27,600,o),
(30,580,cs),
(110,40,ls),
(114,10,o),
(130,0,o),
(160,0,cs),
(340,0,ls),
(370,0,o),
(386,10,o),
(390,40,cs),
(470,580,ls),
(473,600,o),
(480,640,o),
(480,660,cs),
(480,690,o),
(470,700,o),
(440,700,cs)
);
},
{
closed = 1;
nodes = (
(276,410,o),
(280,405,o),
(280,394,cs),
(280,387,o),
(279,380,o),
(278,369,cs),
(260,170,ls),
(259,157,o),
(256,150,o),
(250,150,cs),
(244,150,o),
(241,157,o),
(240,170,cs),
(222,369,ls),
(221,380,o),
(220,387,o),
(220,394,cs),
(220,405,o),
(225,410,o),
(240,410,cs),
(260,410,ls)
);
}
);
visible = 1;
width = 500;
},
{
layerId = "6ABCF30A-460E-4EED-802C-9E4699B7E7F6";
shapes = (
{
closed = 1;
nodes = (
(230,150,o),
(225,157,o),
(225,170,cs),
(225,660,ls),
(225,691,o),
(215,700,o),
(195,700,cs),
(50,700,ls),
(20,700,o),
(10,690,o),
(10,660,cs),
(10,640,o),
(13,600,o),
(15,580,cs),
(60,40,ls),
(62,10,o),
(80,0,o),
(110,0,cs),
(370,0,ls),
(400,0,o),
(418,10,o),
(420,40,cs),
(465,580,ls),
(467,600,o),
(470,640,o),
(470,660,cs),
(470,690,o),
(460,700,o),
(430,700,cs),
(285,700,ls),
(265,700,o),
(255,691,o),
(255,660,cs),
(255,170,ls),
(255,157,o),
(250,150,o),
(240,150,cs)
);
}
);
width = 480;
},
{
associatedMasterId = m01;
layerId = "1CC594B7-7B73-4FAA-9496-5220C426A6CB";
name = "Oct 1, 22, 11:36";
shapes = (
{
closed = 1;
nodes = (
(340,0,ls),
(365,0,o),
(376,11,o),
(380,40,cs),
(462,614,ls),
(467,647,o),
(470,660,o),
(470,670,cs),
(470,690,o),
(460,700,o),
(440,700,cs),
(335,700,ls),
(305,700,o),
(297,690,o),
(295,660,cs),
(255,170,ls),
(254,156,o),
(250,150,o),
(240,150,cs),
(230,150,o),
(226,155,o),
(225,170,cs),
(185,660,ls),
(183,690,o),
(175,700,o),
(145,700,cs),
(40,700,ls),
(20,700,o),
(10,690,o),
(10,670,cs),
(10,660,o),
(10,647,o),
(15,614,cs),
(100,40,ls),
(104,10,o),
(115,0,o),
(140,0,cs)
);
}
);
width = 480;
},
{
layerId = m003;
shapes = (
{
closed = 1;
nodes = (
(284,150,o),
(282,157,o),
(280,170,cs),
(192,660,ls),
(186,691,o),
(182,700,o),
(162,700,cs),
(50,700,ls),
(20,700,o),
(10,690,o),
(10,660,cs),
(10,640,o),
(15,600,o),
(20,580,cs),
(150,40,ls),
(157,10,o),
(170,0,o),
(200,0,cs),
(380,0,ls),
(410,0,o),
(423,10,o),
(430,40,cs),
(560,580,ls),
(565,600,o),
(570,640,o),
(570,660,cs),
(570,690,o),
(560,700,o),
(530,700,cs),
(418,700,ls),
(398,700,o),
(394,691,o),
(388,660,cs),
(300,170,ls),
(298,157,o),
(296,150,o),
(290,150,cs)
);
}
);
width = 580;
},
{
associatedMasterId = m003;
layerId = "5E29D43E-30A1-4784-BBB9-A11B9626442F";
name = "Sep 11, 22, 11:30";
shapes = (
{
closed = 1;
nodes = (
(328,700,ls),
(308,700,o),
(301,691,o),
(298,660,cs),
(290,580,ls),
(288,565,o),
(285,560,o),
(270,560,cs),
(230,560,ls),
(215,560,o),
(212,565,o),
(210,580,cs),
(202,660,ls),
(199,691,o),
(192,700,o),
(172,700,cs),
(60,700,ls),
(30,700,o),
(20,690,o),
(20,660,cs),
(20,640,o),
(27,600,o),
(30,580,cs),
(110,40,ls),
(114,10,o),
(130,0,o),
(160,0,cs),
(340,0,ls),
(370,0,o),
(386,10,o),
(390,40,cs),
(470,580,ls),
(473,600,o),
(480,640,o),
(480,660,cs),
(480,690,o),
(470,700,o),
(440,700,cs)
);
},
{
closed = 1;
nodes = (
(276,410,o),
(280,405,o),
(280,394,cs),
(280,387,o),
(279,380,o),
(278,369,cs),
(260,170,ls),
(259,157,o),
(256,150,o),
(250,150,cs),
(244,150,o),
(241,157,o),
(240,170,cs),
(222,369,ls),
(221,380,o),
(220,387,o),
(220,394,cs),
(220,405,o),
(225,410,o),
(240,410,cs),
(260,410,ls)
);
}
);
width = 500;
},
{
associatedMasterId = m003;
layerId = "289EE2BF-7908-4DA3-90C8-FBE0AC498F5A";
name = "Oct 1, 22, 11:36";
shapes = (
{
closed = 1;
nodes = (
(340,0,ls),
(365,0,o),
(376,11,o),
(380,40,cs),
(462,614,ls),
(467,647,o),
(470,660,o),
(470,670,cs),
(470,690,o),
(460,700,o),
(440,700,cs),
(335,700,ls),
(305,700,o),
(297,690,o),
(295,660,cs),
(255,170,ls),
(254,156,o),
(250,150,o),
(240,150,cs),
(230,150,o),
(226,155,o),
(225,170,cs),
(185,660,ls),
(183,690,o),
(175,700,o),
(145,700,cs),
(40,700,ls),
(20,700,o),
(10,690,o),
(10,670,cs),
(10,660,o),
(10,647,o),
(15,614,cs),
(100,40,ls),
(104,10,o),
(115,0,o),
(140,0,cs)
);
}
);
width = 480;
},
{
layerId = m004;
shapes = (
{
closed = 1;
nodes = (
(280,150,o),
(276,157,o),
(275,170,cs),
(255,660,ls),
(254,691,o),
(245,700,o),
(225,700,cs),
(50,700,ls),
(20,700,o),
(10,690,o),
(10,660,cs),
(10,640,o),
(13,600,o),
(15,580,cs),
(80,40,ls),
(84,10,o),
(100,0,o),
(130,0,cs),
(450,0,ls),
(480,0,o),
(496,10,o),
(500,40,cs),
(565,580,ls),
(567,600,o),
(570,640,o),
(570,660,cs),
(570,690,o),
(560,700,o),
(530,700,cs),
(355,700,ls),
(335,700,o),
(326,691,o),
(325,660,cs),
(305,170,ls),
(304,157,o),
(300,150,o),
(290,150,cs)
);
}
);
width = 580;
}
);
unicode = 86;
},
{
color = 5;
glyphname = W;
kernLeft = W;
kernRight = W;
layers = (
{
anchors = (
{
name = top;
pos = (334,700);
}
);
layerId = m01;
shapes = (
{
closed = 1;
nodes = (
(252,0,ls),
(277,0,o),
(290,15,o),
(292,40,cs),
(320,372,ls),
(321,384,o),
(325,390,o),
(330,390,cs),
(335,390,o),
(339,384,o),
(340,372,cs),
(368,40,ls),
(370,15,o),
(383,0,o),
(408,0,cs),
(525,0,ls),
(550,0,o),
(561,10,o),
(565,40,cs),
(642,614,ls),
(646,647,o),
(650,660,o),
(650,670,cs),
(650,690,o),
(640,700,o),
(620,700,cs),
(510,700,ls),
(480,700,o),
(472,690,o),
(470,660,cs),
(445,330,ls),
(444,316,o),
(440,310,o),
(430,310,cs),
(420,310,o),
(416,316,o),
(415,330,cs),
(390,660,ls),
(387,688,o),
(378,700,o),
(355,700,cs),
(315,700,ls),
(292,700,o),
(283,688,o),
(280,660,cs),
(255,330,ls),
(254,316,o),
(250,310,o),
(240,310,cs),
(230,310,o),
(226,315,o),
(225,330,cs),
(200,660,ls),
(198,691,o),
(190,700,o),
(160,700,cs),
(40,700,ls),
(20,700,o),
(10,690,o),
(10,670,cs),
(10,660,o),
(14,647,o),
(18,614,cs),
(95,40,ls),
(99,10,o),
(110,0,o),
(135,0,cs)
);
}
);
width = 660;
},
{
associatedMasterId = m01;
layerId = "7C45AC42-4E2C-4B8F-88D2-91308C780896";
name = test;
shapes = (
{
closed = 1;
nodes = (
(416,70,qs),
(424,36,o),
(444,5,o),
(464,0,o),
(487,0,qs),
(559,0,ls),
(577,0,o),
(601,10,o),
(614,36,o),
(620,56,o),
(624,80,qs),
(638,153,o),
(711,662,o),
(711,686,qs),
(711,699,o),
(704,710,o),
(692,710,qs),
(575,710,ls),
(544,710,o),
(542,670,q),
(499,234,l),
(497,229,o),
(494,229,qs),
(490,229,o),
(490,234,q),
(445,482,l),
(445,506,o),
(452,586,o),
(462,666,o),
(462,670,qs),
(462,673,o),
(463,682,o),
(463,684,qs),
(463,710,o),
(440,710,qs),
(436,710,o),
(358,708,o),
(354,708,qs),
(344,708,o),
(296,710,o),
(288,710,qs),
(264,710,o),
(264,684,qs),
(264,675,o),
(265,670,qs),
(266,660,o),
(277,592,o),
(291,502,o),
(294,483,q),
(294,473,o),
(263,241,o),
(262,234,q),
(260,229,o),
(257,229,qs),
(253,229,o),
(253,234,q),
(188,667,ls),
(185,690,o),
(171,710,o),
(153,710,qs),
(45,710,ls),
(29,710,o),
(20,700,o),
(20,684,qs),
(20,663,o),
(105,158,o),
(121,80,qs),
(126,57,o),
(133,34,o),
(150,9,o),
(176,0,o),
(197,0,qs),
(252,0,ls),
(274,0,o),
(296,5,o),
(321,37,o),
(330,70,qs),
(366,203,o),
(372,203,qs),
(384,203,o)
);
}
);
visible = 1;
width = 731;
},
{
associatedMasterId = m01;
layerId = "EE511CAD-2F41-4007-8E66-ECE47DB60691";
name = "Sep 11, 22, 11:53";
shapes = (
{
closed = 1;
nodes = (
(365,0,ls),
(391,0,o),
(399,11,o),
(405,40,cs),
(522,614,ls),
(529,647,o),
(530,660,o),
(530,670,cs),
(530,690,o),
(520,700,o),
(500,700,cs),
(385,700,ls),
(355,700,o),
(349,690,o),
(345,660,cs),
(285,190,ls),
(283,176,o),
(280,170,o),
(270,170,cs),
(260,170,o),
(257,175,o),
(255,190,cs),
(195,660,ls),
(191,690,o),
(185,700,o),
(155,700,cs),
(40,700,ls),
(20,700,o),
(10,690,o),
(10,670,cs),
(10,660,o),
(11,647,o),
(18,614,cs),
(135,40,ls),
(141,10,o),
(155,0,o),
(175,0,cs)
);
},
{
closed = 1;
nodes = (
(665,0,ls),
(691,0,o),
(699,11,o),
(705,40,cs),
(822,614,ls),
(829,647,o),
(830,660,o),
(830,670,cs),
(830,690,o),
(820,700,o),
(800,700,cs),
(685,700,ls),
(655,700,o),
(649,690,o),
(645,660,cs),
(585,190,ls),
(583,176,o),
(580,170,o),
(570,170,cs),
(560,170,o),
(557,175,o),
(555,190,cs),
(495,660,ls),
(491,690,o),
(485,700,o),
(455,700,cs),
(340,700,ls),
(320,700,o),
(310,690,o),
(310,670,cs),
(310,660,o),
(311,647,o),
(318,614,cs),
(435,40,ls),
(441,10,o),
(455,0,o),
(475,0,cs)
);
}
);
width = 840;
},
{
associatedMasterId = m01;
layerId = "E9AFD039-CCFC-4320-BDA3-4BE798D4E289";
name = "Sep 11, 22, 12:23";
shapes = (
{
closed = 1;
nodes = (
(665,0,ls),
(691,0,o),
(699,11,o),
(705,40,cs),
(822,614,ls),
(829,647,o),
(830,660,o),
(830,670,cs),
(830,690,o),
(820,700,o),
(800,700,cs),
(685,700,ls),
(655,700,o),
(649,690,o),
(645,660,cs),
(585,190,ls),
(583,176,o),
(580,170,o),
(570,170,cs),
(560,170,o),
(557,175,o),
(555,190,cs),
(495,660,ls),
(491,690,o),
(485,700,o),
(455,700,cs),
(340,700,ls),
(320,700,o),
(310,690,o),
(310,670,cs),
(310,660,o),
(311,647,o),
(318,614,cs),
(435,40,ls),
(441,10,o),
(455,0,o),
(475,0,cs)
);
}
);
width = 840;
},
{
associatedMasterId = m01;
layerId = "942703AD-F208-4858-A733-8F59736FB367";
name = "Sep 11, 22, 13:59";
shapes = (
{
closed = 1;
nodes = (
(332,0,ls),
(358,0,o),
(367,11,o),
(372,40,cs),
(392,162,ls),
(394,172,o),
(397,182,o),
(407,182,cs),
(417,182,o),
(420,172,o),
(422,162,cs),
(447,40,ls),
(453,9,o),
(467,0,o),
(487,0,cs),
(665,0,ls),
(691,0,o),
(699,11,o),
(705,40,cs),
(822,614,ls),
(829,647,o),
(830,660,o),
(830,670,cs),
(830,690,o),
(820,700,o),
(800,700,cs),
(685,700,ls),
(655,700,o),
(649,690,o),
(645,660,cs),
(585,190,ls),
(583,176,o),
(580,170,o),
(570,170,cs),
(560,170,o),
(557,175,o),
(555,190,cs),
(495,660,ls),
(491,690,o),
(485,700,o),
(455,700,cs),
(338,700,ls),
(320,700,o),
(310,690,o),
(310,670,cs),
(310,655,o),
(312,645,o),
(314,635,cs),
(327,551,ls),
(329,540,o),
(331,531,o),
(331,521,cs),
(331,511,o),
(330,501,o),
(327,480,cs),
(285,190,ls),
(283,176,o),
(280,170,o),
(270,170,cs),
(260,170,o),
(257,175,o),
(255,190,cs),
(195,660,ls),
(191,690,o),
(185,700,o),
(155,700,cs),
(40,700,ls),
(20,700,o),
(10,690,o),
(10,670,cs),
(10,660,o),
(11,647,o),
(18,614,cs),
(135,40,ls),
(141,10,o),
(155,0,o),
(175,0,cs)
);
}
);
width = 840;
},
{
associatedMasterId = m01;
layerId = "1DAB239B-0979-48B0-81A8-4CC6A1CEAA4B";
name = "Sep 11, 22, 21:12";
shapes = (
{
closed = 1;
nodes = (
(345,0,ls),
(371,0,o),
(382,12,o),
(385,40,cs),
(435,440,ls),
(436,449,o),
(440,460,o),
(450,460,cs),
(460,460,o),
(464,449,o),
(465,440,cs),
(515,40,ls),
(519,10,o),
(535,0,o),
(555,0,cs),
(735,0,ls),
(761,0,o),
(770,11,o),
(775,40,cs),
(882,614,ls),
(888,647,o),
(890,660,o),
(890,670,cs),
(890,690,o),
(880,700,o),
(860,700,cs),
(725,700,ls),
(695,700,o),
(689,690,o),
(685,660,cs),
(635,280,ls),
(633,266,o),
(630,260,o),
(620,260,cs),
(610,260,o),
(607,265,o),
(605,280,cs),
(555,660,ls),
(552,682,o),
(548,693,o),
(534,698,cs),
(530,699,o),
(525,700,o),
(520,700,cs),
(380,700,ls),
(375,700,o),
(370,699,o),
(366,698,cs),
(352,693,o),
(348,682,o),
(345,660,cs),
(295,280,ls),
(293,266,o),
(290,260,o),
(280,260,cs),
(270,260,o),
(267,265,o),
(265,280,cs),
(215,660,ls),
(211,690,o),
(205,700,o),
(175,700,cs),
(40,700,ls),
(20,700,o),
(10,690,o),
(10,670,cs),
(10,660,o),
(12,647,o),
(18,614,cs),
(125,40,ls),
(131,10,o),
(145,0,o),
(165,0,cs)
);
}
);
width = 900;
},
{
associatedMasterId = m01;
layerId = "D084AED3-A8A0-43CD-8DF3-37D084704489";
name = "Sep 11, 22, 21:19";
shapes = (
{
closed = 1;
nodes = (
(305,0,ls),
(331,0,o),
(340,11,o),
(345,40,cs),
(390,282,l),
(435,40,ls),
(441,10,o),
(455,0,o),
(475,0,cs),
(635,0,ls),
(661,0,o),
(669,11,o),
(675,40,cs),
(792,614,ls),
(799,647,o),
(800,660,o),
(800,670,cs),
(800,690,o),
(790,700,o),
(770,700,cs),
(645,700,ls),
(615,700,o),
(608,690,o),
(605,660,cs),
(555,190,ls),
(554,176,o),
(550,170,o),
(540,170,cs),
(530,170,o),
(528,174,o),
(525,190,cs),
(472,484,ls),
(465,523,o),
(457,530,o),
(440,530,cs),
(340,530,ls),
(323,530,o),
(315,523,o),
(308,484,cs),
(255,190,ls),
(252,176,o),
(250,170,o),
(240,170,cs),
(230,170,o),
(227,175,o),
(225,190,cs),
(175,660,ls),
(172,690,o),
(165,700,o),
(135,700,cs),
(10,700,ls),
(-10,700,o),
(-20,690,o),
(-20,670,cs),
(-20,660,o),
(-19,647,o),
(-12,614,cs),
(105,40,ls),
(111,10,o),
(125,0,o),
(145,0,cs)
);
}
);
width = 780;
},
{
anchors = (
{
name = top;
pos = (330,700);
}
);
layerId = "6ABCF30A-460E-4EED-802C-9E4699B7E7F6";
shapes = (
{
closed = 1;
nodes = (
(272,0,ls),
(297,0,o),
(312,15,o),
(312,40,cs),
(315,372,ls),
(315,384,o),
(320,390,o),
(330,390,cs),
(340,390,o),
(345,384,o),
(345,372,cs),
(348,40,ls),
(348,15,o),
(363,0,o),
(388,0,cs),
(565,0,ls),
(590,0,o),
(603,10,o),
(605,40,cs),
(646,614,ls),
(648,647,o),
(650,660,o),
(650,670,cs),
(650,690,o),
(640,700,o),
(620,700,cs),
(490,700,ls),
(460,700,o),
(450,690,o),
(450,660,cs),
(445,330,ls),
(445,316,o),
(440,310,o),
(430,310,cs),
(420,310,o),
(415,316,o),
(415,330,cs),
(420,660,ls),
(420,690,o),
(410,700,o),
(380,700,cs),
(290,700,ls),
(260,700,o),
(250,690,o),
(250,660,cs),
(250,330,ls),
(250,316,o),
(245,310,o),
(235,310,cs),
(225,310,o),
(220,315,o),
(220,330,cs),
(220,660,ls),
(220,691,o),
(210,700,o),
(180,700,cs),
(40,700,ls),
(20,700,o),
(10,690,o),
(10,670,cs),
(10,660,o),
(12,647,o),
(14,614,cs),
(55,40,ls),
(57,10,o),
(70,0,o),
(95,0,cs)
);
}
);
width = 660;
},
{
anchors = (
{
name = top;
pos = (384,700);
}
);
layerId = m003;
shapes = (
{
closed = 1;
nodes = (
(282,0,ls),
(307,0,o),
(318,15,o),
(322,40,cs),
(370,372,ls),
(372,384,o),
(375,390,o),
(380,390,cs),
(385,390,o),
(388,384,o),
(390,372,cs),
(438,40,ls),
(442,15,o),
(453,0,o),
(478,0,cs),
(605,0,ls),
(630,0,o),
(640,10,o),
(645,40,cs),
(742,614,ls),
(748,647,o),
(750,660,o),
(750,670,cs),
(750,690,o),
(740,700,o),
(720,700,cs),
(610,700,ls),
(580,700,o),
(575,690,o),
(570,660,cs),
(515,330,ls),
(513,316,o),
(510,310,o),
(500,310,cs),
(490,310,o),
(487,316,o),
(485,330,cs),
(440,660,ls),
(436,688,o),
(428,700,o),
(405,700,cs),
(365,700,ls),
(342,700,o),
(334,688,o),
(330,660,cs),
(285,330,ls),
(283,316,o),
(280,310,o),
(270,310,cs),
(260,310,o),
(258,315,o),
(255,330,cs),
(200,660,ls),
(195,691,o),
(190,700,o),
(160,700,cs),
(40,700,ls),
(20,700,o),
(10,690,o),
(10,670,cs),
(10,660,o),
(12,647,o),
(18,614,cs),
(115,40,ls),
(120,10,o),
(130,0,o),
(155,0,cs)
);
}
);
width = 760;
},
{
associatedMasterId = m003;
layerId = "024E7C4E-499C-414E-9796-F4F094FDA341";
name = test;
shapes = (
{
closed = 1;
nodes = (
(416,70,qs),
(424,36,o),
(444,5,o),
(464,0,o),
(487,0,qs),
(559,0,ls),
(577,0,o),
(601,10,o),
(614,36,o),
(620,56,o),
(624,80,qs),
(638,153,o),
(711,662,o),
(711,686,qs),
(711,699,o),
(704,710,o),
(692,710,qs),
(575,710,ls),
(544,710,o),
(542,670,q),
(499,234,l),
(497,229,o),
(494,229,qs),
(490,229,o),
(490,234,q),
(445,482,l),
(445,506,o),
(452,586,o),
(462,666,o),
(462,670,qs),
(462,673,o),
(463,682,o),
(463,684,qs),
(463,710,o),
(440,710,qs),
(436,710,o),
(358,708,o),
(354,708,qs),
(344,708,o),
(296,710,o),
(288,710,qs),
(264,710,o),
(264,684,qs),
(264,675,o),
(265,670,qs),
(266,660,o),
(277,592,o),
(291,502,o),
(294,483,q),
(294,473,o),
(263,241,o),
(262,234,q),
(260,229,o),
(257,229,qs),
(253,229,o),
(253,234,q),
(188,667,ls),
(185,690,o),
(171,710,o),
(153,710,qs),
(45,710,ls),
(29,710,o),
(20,700,o),
(20,684,qs),
(20,663,o),
(105,158,o),
(121,80,qs),
(126,57,o),
(133,34,o),
(150,9,o),
(176,0,o),
(197,0,qs),
(252,0,ls),
(274,0,o),
(296,5,o),
(321,37,o),
(330,70,qs),
(366,203,o),
(372,203,qs),
(384,203,o)
);
}
);
width = 731;
},
{
associatedMasterId = m003;
layerId = "E42547C1-08DC-46FF-AED6-6A0271E1F7D1";
name = "Sep 11, 22, 11:53";
shapes = (
{
closed = 1;
nodes = (
(365,0,ls),
(391,0,o),
(399,11,o),
(405,40,cs),
(522,614,ls),
(529,647,o),
(530,660,o),
(530,670,cs),
(530,690,o),
(520,700,o),
(500,700,cs),
(385,700,ls),
(355,700,o),
(349,690,o),
(345,660,cs),
(285,190,ls),
(283,176,o),
(280,170,o),
(270,170,cs),
(260,170,o),
(257,175,o),
(255,190,cs),
(195,660,ls),
(191,690,o),
(185,700,o),
(155,700,cs),
(40,700,ls),
(20,700,o),
(10,690,o),
(10,670,cs),
(10,660,o),
(11,647,o),
(18,614,cs),
(135,40,ls),
(141,10,o),
(155,0,o),
(175,0,cs)
);
},
{
closed = 1;
nodes = (
(665,0,ls),
(691,0,o),
(699,11,o),
(705,40,cs),
(822,614,ls),
(829,647,o),
(830,660,o),
(830,670,cs),
(830,690,o),
(820,700,o),
(800,700,cs),
(685,700,ls),
(655,700,o),
(649,690,o),
(645,660,cs),
(585,190,ls),
(583,176,o),
(580,170,o),
(570,170,cs),
(560,170,o),
(557,175,o),
(555,190,cs),
(495,660,ls),
(491,690,o),
(485,700,o),
(455,700,cs),
(340,700,ls),
(320,700,o),
(310,690,o),
(310,670,cs),
(310,660,o),
(311,647,o),
(318,614,cs),
(435,40,ls),
(441,10,o),
(455,0,o),
(475,0,cs)
);
}
);
width = 840;
},
{
associatedMasterId = m003;
layerId = "39436F2B-08C5-4F28-91E0-280DB68DF8FC";
name = "Sep 11, 22, 12:23";
shapes = (
{
closed = 1;
nodes = (
(665,0,ls),
(691,0,o),
(699,11,o),
(705,40,cs),
(822,614,ls),
(829,647,o),
(830,660,o),
(830,670,cs),
(830,690,o),
(820,700,o),
(800,700,cs),
(685,700,ls),
(655,700,o),
(649,690,o),
(645,660,cs),
(585,190,ls),
(583,176,o),
(580,170,o),
(570,170,cs),
(560,170,o),
(557,175,o),
(555,190,cs),
(495,660,ls),
(491,690,o),
(485,700,o),
(455,700,cs),
(340,700,ls),
(320,700,o),
(310,690,o),
(310,670,cs),
(310,660,o),
(311,647,o),
(318,614,cs),
(435,40,ls),
(441,10,o),
(455,0,o),
(475,0,cs)
);
}
);
width = 840;
},
{
associatedMasterId = m003;
layerId = "402A0A14-3D79-4915-975F-A3B2092D856C";
name = "Sep 11, 22, 13:59";
shapes = (
{
closed = 1;
nodes = (
(332,0,ls),
(358,0,o),
(367,11,o),
(372,40,cs),
(392,162,ls),
(394,172,o),
(397,182,o),
(407,182,cs),
(417,182,o),
(420,172,o),
(422,162,cs),
(447,40,ls),
(453,9,o),
(467,0,o),
(487,0,cs),
(665,0,ls),
(691,0,o),
(699,11,o),
(705,40,cs),
(822,614,ls),
(829,647,o),
(830,660,o),
(830,670,cs),
(830,690,o),
(820,700,o),
(800,700,cs),
(685,700,ls),
(655,700,o),
(649,690,o),
(645,660,cs),
(585,190,ls),
(583,176,o),
(580,170,o),
(570,170,cs),
(560,170,o),
(557,175,o),
(555,190,cs),
(495,660,ls),
(491,690,o),
(485,700,o),
(455,700,cs),
(338,700,ls),
(320,700,o),
(310,690,o),
(310,670,cs),
(310,655,o),
(312,645,o),
(314,635,cs),
(327,551,ls),
(329,540,o),
(331,531,o),
(331,521,cs),
(331,511,o),
(330,501,o),
(327,480,cs),
(285,190,ls),
(283,176,o),
(280,170,o),
(270,170,cs),
(260,170,o),
(257,175,o),
(255,190,cs),
(195,660,ls),
(191,690,o),
(185,700,o),
(155,700,cs),
(40,700,ls),
(20,700,o),
(10,690,o),
(10,670,cs),
(10,660,o),
(11,647,o),
(18,614,cs),
(135,40,ls),
(141,10,o),
(155,0,o),
(175,0,cs)
);
}
);
width = 840;
},
{
associatedMasterId = m003;
layerId = "63B1CFBB-F299-482A-96ED-5F8E2256760B";
name = "Sep 11, 22, 21:12";
shapes = (
{
closed = 1;
nodes = (
(345,0,ls),
(371,0,o),
(382,12,o),
(385,40,cs),
(435,440,ls),
(436,449,o),
(440,460,o),
(450,460,cs),
(460,460,o),
(464,449,o),
(465,440,cs),
(515,40,ls),
(519,10,o),
(535,0,o),
(555,0,cs),
(735,0,ls),
(761,0,o),
(770,11,o),
(775,40,cs),
(882,614,ls),
(888,647,o),
(890,660,o),
(890,670,cs),
(890,690,o),
(880,700,o),
(860,700,cs),
(725,700,ls),
(695,700,o),
(689,690,o),
(685,660,cs),
(635,280,ls),
(633,266,o),
(630,260,o),
(620,260,cs),
(610,260,o),
(607,265,o),
(605,280,cs),
(555,660,ls),
(552,682,o),
(548,693,o),
(534,698,cs),
(530,699,o),
(525,700,o),
(520,700,cs),
(380,700,ls),
(375,700,o),
(370,699,o),
(366,698,cs),
(352,693,o),
(348,682,o),
(345,660,cs),
(295,280,ls),
(293,266,o),
(290,260,o),
(280,260,cs),
(270,260,o),
(267,265,o),
(265,280,cs),
(215,660,ls),
(211,690,o),
(205,700,o),
(175,700,cs),
(40,700,ls),
(20,700,o),
(10,690,o),
(10,670,cs),
(10,660,o),
(12,647,o),
(18,614,cs),
(125,40,ls),
(131,10,o),
(145,0,o),
(165,0,cs)
);
}
);
width = 900;
},
{
associatedMasterId = m003;
layerId = "F8FF6700-1652-41B2-9CC8-C1CD3B32ACAB";
name = "Sep 11, 22, 21:19";
shapes = (
{
closed = 1;
nodes = (
(305,0,ls),
(331,0,o),
(340,11,o),
(345,40,cs),
(390,282,l),
(435,40,ls),
(441,10,o),
(455,0,o),
(475,0,cs),
(635,0,ls),
(661,0,o),
(669,11,o),
(675,40,cs),
(792,614,ls),
(799,647,o),
(800,660,o),
(800,670,cs),
(800,690,o),
(790,700,o),
(770,700,cs),
(645,700,ls),
(615,700,o),
(608,690,o),
(605,660,cs),
(555,190,ls),
(554,176,o),
(550,170,o),
(540,170,cs),
(530,170,o),
(528,174,o),
(525,190,cs),
(472,484,ls),
(465,523,o),
(457,530,o),
(440,530,cs),
(340,530,ls),
(323,530,o),
(315,523,o),
(308,484,cs),
(255,190,ls),
(252,176,o),
(250,170,o),
(240,170,cs),
(230,170,o),
(227,175,o),
(225,190,cs),
(175,660,ls),
(172,690,o),
(165,700,o),
(135,700,cs),
(10,700,ls),
(-10,700,o),
(-20,690,o),
(-20,670,cs),
(-20,660,o),
(-19,647,o),
(-12,614,cs),
(105,40,ls),
(111,10,o),
(125,0,o),
(145,0,cs)
);
}
);
width = 780;
},
{
anchors = (
{
name = top;
pos = (340,700);
}
);
layerId = m004;
shapes = (
{
closed = 1;
nodes = (
(322,0,ls),
(347,0,o),
(362,15,o),
(362,40,cs),
(365,372,ls),
(365,384,o),
(370,390,o),
(380,390,cs),
(390,390,o),
(395,384,o),
(395,372,cs),
(398,40,ls),
(398,15,o),
(413,0,o),
(438,0,cs),
(665,0,ls),
(690,0,o),
(703,10,o),
(705,40,cs),
(746,614,ls),
(748,647,o),
(750,660,o),
(750,670,cs),
(750,690,o),
(740,700,o),
(720,700,cs),
(560,700,ls),
(530,700,o),
(520,690,o),
(520,660,cs),
(515,330,ls),
(515,316,o),
(510,310,o),
(500,310,cs),
(490,310,o),
(485,316,o),
(485,330,cs),
(490,660,ls),
(490,690,o),
(480,700,o),
(450,700,cs),
(320,700,ls),
(290,700,o),
(280,690,o),
(280,660,cs),
(280,330,ls),
(280,316,o),
(275,310,o),
(265,310,cs),
(255,310,o),
(250,315,o),
(250,330,cs),
(250,660,ls),
(250,691,o),
(240,700,o),
(210,700,cs),
(40,700,ls),
(20,700,o),
(10,690,o),
(10,670,cs),
(10,660,o),
(12,647,o),
(14,614,cs),
(55,40,ls),
(57,10,o),
(70,0,o),
(95,0,cs)
);
}
);
width = 760;
}
);
unicode = 87;
},
{
color = 5;
glyphname = X;
kernLeft = X;
kernRight = X;
layers = (
{
layerId = m01;
shapes = (
{
closed = 1;
nodes = (
(150,0,ls),
(170,0,o),
(187,10,o),
(190,30,cs),
(218,228,ls),
(221,246,o),
(224,250,o),
(230,250,cs),
(236,250,o),
(239,246,o),
(242,227,cs),
(270,30,ls),
(273,10,o),
(280,0,o),
(300,0,cs),
(410,0,ls),
(430,0,o),
(440,10,o),
(440,30,cs),
(440,40,o),
(435,54,o),
(430,75,cs),
(375,322,ls),
(369,350,o),
(365,356,o),
(365,366,cs),
(365,376,o),
(368,382,o),
(375,410,cs),
(430,625,ls),
(435,646,o),
(440,660,o),
(440,670,cs),
(440,690,o),
(430,700,o),
(410,700,cs),
(300,700,ls),
(280,700,o),
(273,690,o),
(270,670,cs),
(242,505,ls),
(239,486,o),
(236,482,o),
(230,482,cs),
(224,482,o),
(221,486,o),
(218,504,cs),
(190,670,ls),
(187,690,o),
(170,700,o),
(150,700,cs),
(40,700,ls),
(20,700,o),
(10,690,o),
(10,670,cs),
(10,660,o),
(14,646,o),
(20,625,cs),
(85,410,ls),
(94,382,o),
(95,376,o),
(95,366,cs),
(95,356,o),
(92,350,o),
(85,322,cs),
(20,75,ls),
(14,54,o),
(10,40,o),
(10,30,cs),
(10,10,o),
(20,0,o),
(40,0,cs)
);
}
);
width = 450;
},
{
layerId = "6ABCF30A-460E-4EED-802C-9E4699B7E7F6";
shapes = (
{
closed = 1;
nodes = (
(180,0,ls),
(200,0,o),
(220,10,o),
(220,30,cs),
(218,228,ls),
(218,246,o),
(224,250,o),
(230,250,cs),
(236,250,o),
(242,246,o),
(242,227,cs),
(242,30,ls),
(242,10,o),
(252,0,o),
(272,0,cs),
(410,0,ls),
(430,0,o),
(440,10,o),
(440,30,cs),
(440,40,o),
(438,54,o),
(435,75,cs),
(405,322,ls),
(402,350,o),
(401,356,o),
(401,366,cs),
(401,376,o),
(401,382,o),
(405,410,cs),
(435,625,ls),
(438,646,o),
(440,660,o),
(440,670,cs),
(440,690,o),
(430,700,o),
(410,700,cs),
(272,700,ls),
(252,700,o),
(242,690,o),
(242,670,cs),
(242,505,ls),
(242,486,o),
(236,482,o),
(230,482,cs),
(224,482,o),
(218,486,o),
(218,504,cs),
(215,670,ls),
(215,690,o),
(195,700,o),
(175,700,cs),
(40,700,ls),
(20,700,o),
(10,690,o),
(10,670,cs),
(10,660,o),
(11,646,o),
(15,625,cs),
(55,410,ls),
(60,382,o),
(60,376,o),
(60,366,cs),
(60,356,o),
(60,350,o),
(55,322,cs),
(15,75,ls),
(12,54,o),
(10,40,o),
(10,30,cs),
(10,10,o),
(20,0,o),
(40,0,cs)
);
}
);
width = 450;
},
{
associatedMasterId = m01;
layerId = "FDD133D0-5002-4392-9AFF-727D1E4528CF";
name = "Oct 4, 22, 21:08";
shapes = (
{
closed = 1;
nodes = (
(10,473,l),
(190,473,l),
(190,700,l),
(10,700,l)
);
}
);
width = 450;
},
{
layerId = m003;
shapes = (
{
closed = 1;
nodes = (
(150,0,ls),
(170,0,o),
(182,10,o),
(190,30,cs),
(268,228,ls),
(275,246,o),
(274,250,o),
(280,250,cs),
(286,250,o),
(285,246,o),
(292,227,cs),
(370,30,ls),
(378,10,o),
(380,0,o),
(400,0,cs),
(510,0,ls),
(530,0,o),
(540,10,o),
(540,30,cs),
(540,40,o),
(539,54,o),
(530,75,cs),
(425,322,ls),
(414,349,o),
(415,356,o),
(415,366,cs),
(415,376,o),
(412,383,o),
(425,410,cs),
(530,625,ls),
(540,646,o),
(540,660,o),
(540,670,cs),
(540,690,o),
(530,700,o),
(510,700,cs),
(400,700,ls),
(380,700,o),
(379,689,o),
(370,670,cs),
(292,505,ls),
(283,486,o),
(286,482,o),
(280,482,cs),
(274,482,o),
(276,487,o),
(268,504,cs),
(190,670,ls),
(181,689,o),
(170,700,o),
(150,700,cs),
(40,700,ls),
(20,700,o),
(10,690,o),
(10,670,cs),
(10,660,o),
(9,646,o),
(20,625,cs),
(135,410,ls),
(149,384,o),
(145,376,o),
(145,366,cs),
(145,356,o),
(147,348,o),
(135,322,cs),
(20,75,ls),
(10,54,o),
(10,40,o),
(10,30,cs),
(10,10,o),
(20,0,o),
(40,0,cs)
);
}
);
width = 550;
},
{
associatedMasterId = m003;
layerId = "F18DFACA-DC53-462E-92AC-A726C8FDCABA";
name = "Oct 4, 22, 21:08";
shapes = (
{
closed = 1;
nodes = (
(10,473,l),
(190,473,l),
(190,700,l),
(10,700,l)
);
}
);
width = 450;
},
{
layerId = m004;
shapes = (
{
closed = 1;
nodes = (
(230,0,ls),
(250,0,o),
(270,10,o),
(270,30,cs),
(268,228,ls),
(268,246,o),
(274,250,o),
(280,250,cs),
(286,250,o),
(292,246,o),
(292,227,cs),
(292,30,ls),
(292,10,o),
(302,0,o),
(322,0,cs),
(510,0,ls),
(530,0,o),
(540,10,o),
(540,30,cs),
(540,40,o),
(538,54,o),
(535,75,cs),
(505,322,ls),
(502,350,o),
(501,356,o),
(501,366,cs),
(501,376,o),
(501,382,o),
(505,410,cs),
(535,625,ls),
(538,646,o),
(540,660,o),
(540,670,cs),
(540,690,o),
(530,700,o),
(510,700,cs),
(322,700,ls),
(302,700,o),
(292,690,o),
(292,670,cs),
(292,505,ls),
(292,486,o),
(286,482,o),
(280,482,cs),
(274,482,o),
(268,486,o),
(268,504,cs),
(265,670,ls),
(265,690,o),
(245,700,o),
(225,700,cs),
(40,700,ls),
(20,700,o),
(10,690,o),
(10,670,cs),
(10,660,o),
(11,646,o),
(15,625,cs),
(55,410,ls),
(60,382,o),
(60,376,o),
(60,366,cs),
(60,356,o),
(60,350,o),
(55,322,cs),
(15,75,ls),
(12,54,o),
(10,40,o),
(10,30,cs),
(10,10,o),
(20,0,o),
(40,0,cs)
);
}
);
width = 550;
}
);
unicode = 88;
},
{
color = 5;
glyphname = Y;
kernLeft = Y;
kernRight = Y;
layers = (
{
anchors = (
{
name = top;
pos = (245,700);
}
);
layerId = m01;
shapes = (
{
closed = 1;
nodes = (
(300,0,ls),
(330,0,o),
(340,10,o),
(340,40,cs),
(340,191,ls),
(340,203,o),
(342,217,o),
(345,228,cs),
(471,629,ls),
(475,642,o),
(480,654,o),
(480,670,cs),
(480,690,o),
(470,700,o),
(450,700,cs),
(340,700,ls),
(312,700,o),
(304,690,o),
(300,670,cs),
(260,467,ls),
(258,457,o),
(253,450,o),
(245,450,cs),
(236,450,o),
(232,457,o),
(230,467,cs),
(190,670,ls),
(186,690,o),
(178,700,o),
(150,700,cs),
(40,700,ls),
(20,700,o),
(10,687,o),
(10,670,cs),
(10,654,o),
(14,643,o),
(18,629,cs),
(145,228,ls),
(148,217,o),
(150,203,o),
(150,191,cs),
(150,40,ls),
(150,10,o),
(160,0,o),
(190,0,cs)
);
}
);
width = 490;
},
{
anchors = (
{
name = top;
pos = (245,700);
}
);
layerId = "6ABCF30A-460E-4EED-802C-9E4699B7E7F6";
shapes = (
{
closed = 1;
nodes = (
(320,0,ls),
(350,0,o),
(360,10,o),
(360,40,cs),
(360,161,ls),
(360,173,o),
(362,187,o),
(365,198,cs),
(474,607,ls),
(480,630,o),
(485,644,o),
(485,670,cs),
(485,690,o),
(475,700,o),
(455,700,cs),
(300,700,ls),
(272,700,o),
(260,690,o),
(260,670,cs),
(260,417,ls),
(260,407,o),
(253,400,o),
(245,400,cs),
(236,400,o),
(230,407,o),
(230,417,cs),
(230,670,ls),
(230,690,o),
(218,700,o),
(190,700,cs),
(35,700,ls),
(15,700,o),
(5,687,o),
(5,670,cs),
(5,644,o),
(11,630,o),
(17,606,cs),
(125,198,ls),
(128,187,o),
(130,173,o),
(130,161,cs),
(130,40,ls),
(130,10,o),
(140,0,o),
(170,0,cs)
);
}
);
width = 490;
},
{
anchors = (
{
name = top;
pos = (225,700);
}
);
layerId = m003;
shapes = (
{
closed = 1;
nodes = (
(300,0,ls),
(330,0,o),
(340,10,o),
(340,40,cs),
(340,281,ls),
(340,293,o),
(340,307,o),
(345,318,cs),
(481,629,ls),
(487,642,o),
(490,654,o),
(490,670,cs),
(490,690,o),
(480,700,o),
(460,700,cs),
(355,700,ls),
(327,700,o),
(322,689,o),
(315,670,cs),
(265,527,ls),
(262,517,o),
(258,510,o),
(250,510,cs),
(241,510,o),
(238,517,o),
(235,527,cs),
(185,670,ls),
(178,689,o),
(173,700,o),
(145,700,cs),
(40,700,ls),
(20,700,o),
(10,687,o),
(10,670,cs),
(10,654,o),
(13,642,o),
(19,629,cs),
(155,318,ls),
(160,307,o),
(160,293,o),
(160,281,cs),
(160,40,ls),
(160,10,o),
(170,0,o),
(200,0,cs)
);
}
);
width = 500;
},
{
anchors = (
{
name = top;
pos = (225,700);
}
);
layerId = m004;
shapes = (
{
closed = 1;
nodes = (
(320,0,ls),
(350,0,o),
(360,10,o),
(360,40,cs),
(360,271,ls),
(360,283,o),
(361,297,o),
(365,308,cs),
(485,629,ls),
(490,642,o),
(490,654,o),
(490,670,cs),
(490,690,o),
(480,700,o),
(460,700,cs),
(306,700,ls),
(278,700,o),
(266,690,o),
(266,670,cs),
(265,530,ls),
(265,520,o),
(258,513,o),
(250,513,cs),
(241,513,o),
(235,520,o),
(235,530,cs),
(232,670,ls),
(232,690,o),
(220,700,o),
(192,700,cs),
(40,700,ls),
(20,700,o),
(10,687,o),
(10,670,cs),
(10,654,o),
(14,642,o),
(19,629,cs),
(135,308,ls),
(139,297,o),
(140,283,o),
(140,271,cs),
(140,40,ls),
(140,10,o),
(150,0,o),
(180,0,cs)
);
}
);
width = 500;
},
{
anchors = (
{
name = top;
pos = (235,700);
}
);
associatedMasterId = "6ABCF30A-460E-4EED-802C-9E4699B7E7F6";
layerId = "F7EEA256-E164-4997-951A-A26FEAF90166";
name = "Feb 23, 23 at 18:09";
shapes = (
{
closed = 1;
nodes = (
(305,0,ls),
(335,0,o),
(345,10,o),
(345,40,cs),
(345,241,ls),
(345,253,o),
(347,267,o),
(350,278,cs),
(444,592,ls),
(448,604,o),
(451,617,o),
(455,629,cs),
(459,642,o),
(460,654,o),
(460,670,cs),
(460,690,o),
(450,700,o),
(430,700,cs),
(291,700,ls),
(263,700,o),
(251,690,o),
(251,670,cs),
(250,470,ls),
(250,460,o),
(243,453,o),
(235,453,cs),
(226,453,o),
(220,460,o),
(220,470,cs),
(217,670,ls),
(217,690,o),
(205,700,o),
(177,700,cs),
(40,700,ls),
(20,700,o),
(10,687,o),
(10,670,cs),
(10,654,o),
(15,642,o),
(19,629,cs),
(22,620,o),
(24,612,o),
(27,603,cs),
(120,278,ls),
(123,267,o),
(125,253,o),
(125,241,cs),
(125,40,ls),
(125,10,o),
(135,0,o),
(165,0,cs)
);
}
);
width = 470;
}
);
unicode = 89;
},
{
color = 5;
glyphname = Z;
kernLeft = Z;
kernRight = Z;
layers = (
{
anchors = (
{
name = top;
pos = (225,700);
}
);
layerId = m01;
shapes = (
{
closed = 1;
nodes = (
(380,0,ls),
(410,0,o),
(420,10,o),
(420,40,cs),
(420,110,ls),
(420,140,o),
(410,150,o),
(379,150,cs),
(232,150,ls),
(221,150,o),
(214,158,o),
(214,167,cs),
(214,183,o),
(222,199,o),
(237,227,cs),
(380,493,ls),
(405,540,o),
(420,571,o),
(420,605,cs),
(420,660,ls),
(420,690,o),
(410,700,o),
(380,700,cs),
(51,700,ls),
(20,700,o),
(10,690,o),
(10,660,cs),
(10,590,ls),
(10,565,o),
(20,550,o),
(50,550,cs),
(188,550,ls),
(211,550,o),
(218,547,o),
(218,536,cs),
(218,521,o),
(208,507,o),
(201,494,cs),
(48,226,ls),
(28,190,o),
(10,153,o),
(10,118,cs),
(10,40,ls),
(10,10,o),
(20,0,o),
(50,0,cs)
);
}
);
width = 430;
},
{
anchors = (
{
name = top;
pos = (225,700);
}
);
layerId = "6ABCF30A-460E-4EED-802C-9E4699B7E7F6";
shapes = (
{
closed = 1;
nodes = (
(380,0,ls),
(410,0,o),
(420,10,o),
(420,40,cs),
(420,170,ls),
(420,200,o),
(410,210,o),
(379,210,cs),
(292,210,ls),
(281,210,o),
(274,218,o),
(274,227,cs),
(274,243,o),
(281,259,o),
(293,287,cs),
(384,493,ls),
(407,546,o),
(420,571,o),
(420,605,cs),
(420,660,ls),
(420,690,o),
(410,700,o),
(380,700,cs),
(51,700,ls),
(20,700,o),
(10,690,o),
(10,660,cs),
(10,530,ls),
(10,505,o),
(20,490,o),
(50,490,cs),
(128,490,ls),
(151,490,o),
(158,487,o),
(158,476,cs),
(158,461,o),
(150,447,o),
(144,434,cs),
(48,226,ls),
(30,187,o),
(10,153,o),
(10,118,cs),
(10,40,ls),
(10,10,o),
(20,0,o),
(50,0,cs)
);
}
);
width = 430;
},
{
anchors = (
{
name = top;
pos = (225,700);
}
);
layerId = m003;
shapes = (
{
closed = 1;
nodes = (
(450,0,ls),
(480,0,o),
(490,10,o),
(490,40,cs),
(490,110,ls),
(490,140,o),
(480,150,o),
(449,150,cs),
(232,150,ls),
(221,150,o),
(214,158,o),
(214,167,cs),
(214,183,o),
(216,201,o),
(237,227,cs),
(450,493,ls),
(483,534,o),
(490,541,o),
(490,575,cs),
(490,660,ls),
(490,690,o),
(480,700,o),
(450,700,cs),
(51,700,ls),
(20,700,o),
(10,690,o),
(10,660,cs),
(10,590,ls),
(10,565,o),
(20,550,o),
(50,550,cs),
(258,550,ls),
(281,550,o),
(288,547,o),
(288,536,cs),
(288,521,o),
(281,507,o),
(271,494,cs),
(48,226,ls),
(22,194,o),
(10,173,o),
(10,138,cs),
(10,40,ls),
(10,10,o),
(20,0,o),
(50,0,cs)
);
}
);
width = 500;
},
{
anchors = (
{
name = top;
pos = (225,700);
}
);
layerId = m004;
shapes = (
{
closed = 1;
nodes = (
(450,0,ls),
(480,0,o),
(490,10,o),
(490,40,cs),
(490,170,ls),
(490,200,o),
(480,210,o),
(449,210,cs),
(332,210,ls),
(321,210,o),
(314,218,o),
(314,227,cs),
(314,243,o),
(318,261,o),
(333,287,cs),
(454,493,ls),
(483,543,o),
(490,571,o),
(490,605,cs),
(490,660,ls),
(490,690,o),
(480,700,o),
(450,700,cs),
(51,700,ls),
(20,700,o),
(10,690,o),
(10,660,cs),
(10,530,ls),
(10,505,o),
(20,490,o),
(50,490,cs),
(158,490,ls),
(181,490,o),
(188,487,o),
(188,476,cs),
(188,461,o),
(182,447,o),
(174,434,cs),
(48,226,ls),
(25,188,o),
(10,153,o),
(10,118,cs),
(10,40,ls),
(10,10,o),
(20,0,o),
(50,0,cs)
);
}
);
width = 500;
}
);
unicode = 90;
},
{
color = 6;
glyphname = ij;
layers = (
{
anchors = (
{
name = top;
pos = (110,700);
}
);
layerId = m01;
shapes = (
{
closed = 1;
nodes = (
(160,200,ls),
(190,200,o),
(200,210,o),
(200,240,cs),
(200,660,ls),
(200,690,o),
(190,700,o),
(160,700,cs),
(60,700,ls),
(30,700,o),
(20,690,o),
(20,660,cs),
(20,240,ls),
(20,210,o),
(30,200,o),
(60,200,cs)
);
},
{
closed = 1;
nodes = (
(281,0,ls),
(421,0,o),
(430,60,o),
(430,200,cs),
(430,660,ls),
(430,690,o),
(420,700,o),
(390,700,cs),
(290,700,ls),
(260,700,o),
(250,690,o),
(250,660,cs),
(250,170,ls),
(250,155,o),
(245,150,o),
(230,150,cs),
(60,150,ls),
(30,150,o),
(20,140,o),
(20,110,cs),
(20,40,ls),
(20,10,o),
(30,0,o),
(60,0,cs)
);
}
);
width = 448;
},
{
anchors = (
{
name = top;
pos = (110,700);
}
);
layerId = "6ABCF30A-460E-4EED-802C-9E4699B7E7F6";
shapes = (
{
closed = 1;
nodes = (
(160,200,ls),
(190,200,o),
(200,210,o),
(200,240,cs),
(200,660,ls),
(200,690,o),
(190,700,o),
(160,700,cs),
(60,700,ls),
(30,700,o),
(20,690,o),
(20,660,cs),
(20,240,ls),
(20,210,o),
(30,200,o),
(60,200,cs)
);
},
{
closed = 1;
nodes = (
(281,0,ls),
(421,0,o),
(430,60,o),
(430,200,cs),
(430,660,ls),
(430,690,o),
(420,700,o),
(390,700,cs),
(290,700,ls),
(260,700,o),
(250,690,o),
(250,660,cs),
(250,170,ls),
(250,155,o),
(245,150,o),
(230,150,cs),
(60,150,ls),
(30,150,o),
(20,140,o),
(20,110,cs),
(20,40,ls),
(20,10,o),
(30,0,o),
(60,0,cs)
);
}
);
width = 448;
},
{
anchors = (
{
name = top;
pos = (110,700);
}
);
layerId = m003;
shapes = (
{
closed = 1;
nodes = (
(160,200,ls),
(190,200,o),
(200,210,o),
(200,240,cs),
(200,660,ls),
(200,690,o),
(190,700,o),
(160,700,cs),
(60,700,ls),
(30,700,o),
(20,690,o),
(20,660,cs),
(20,240,ls),
(20,210,o),
(30,200,o),
(60,200,cs)
);
},
{
closed = 1;
nodes = (
(281,0,ls),
(421,0,o),
(430,60,o),
(430,200,cs),
(430,660,ls),
(430,690,o),
(420,700,o),
(390,700,cs),
(290,700,ls),
(260,700,o),
(250,690,o),
(250,660,cs),
(250,170,ls),
(250,155,o),
(245,150,o),
(230,150,cs),
(60,150,ls),
(30,150,o),
(20,140,o),
(20,110,cs),
(20,40,ls),
(20,10,o),
(30,0,o),
(60,0,cs)
);
}
);
width = 448;
},
{
anchors = (
{
name = top;
pos = (110,700);
}
);
layerId = m004;
shapes = (
{
closed = 1;
nodes = (
(160,200,ls),
(190,200,o),
(200,210,o),
(200,240,cs),
(200,660,ls),
(200,690,o),
(190,700,o),
(160,700,cs),
(60,700,ls),
(30,700,o),
(20,690,o),
(20,660,cs),
(20,240,ls),
(20,210,o),
(30,200,o),
(60,200,cs)
);
},
{
closed = 1;
nodes = (
(281,0,ls),
(421,0,o),
(430,60,o),
(430,200,cs),
(430,660,ls),
(430,690,o),
(420,700,o),
(390,700,cs),
(290,700,ls),
(260,700,o),
(250,690,o),
(250,660,cs),
(250,170,ls),
(250,155,o),
(245,150,o),
(230,150,cs),
(60,150,ls),
(30,150,o),
(20,140,o),
(20,110,cs),
(20,40,ls),
(20,10,o),
(30,0,o),
(60,0,cs)
);
}
);
width = 448;
}
);
unicode = 307;
},
{
color = 5;
glyphname = zero;
kernLeft = zero;
kernRight = zero;
layers = (
{
layerId = m01;
shapes = (
{
closed = 1;
nodes = (
(377,-10,o),
(457,60,o),
(457,200,cs),
(457,500,ls),
(457,640,o),
(377,710,o),
(237,710,cs),
(97,710,o),
(17,640,o),
(17,500,cs),
(17,200,ls),
(17,60,o),
(97,-10,o),
(237,-10,cs)
);
},
{
closed = 1;
nodes = (
(207,140,o),
(197,160,o),
(197,190,cs),
(197,510,ls),
(197,540,o),
(207,560,o),
(237,560,cs),
(267,560,o),
(277,540,o),
(277,510,cs),
(277,190,ls),
(277,160,o),
(267,140,o),
(237,140,cs)
);
}
);
width = 474;
},
{
layerId = "6ABCF30A-460E-4EED-802C-9E4699B7E7F6";
shapes = (
{
closed = 1;
nodes = (
(377,-10,o),
(457,60,o),
(457,200,cs),
(457,500,ls),
(457,640,o),
(377,710,o),
(237,710,cs),
(97,710,o),
(17,640,o),
(17,500,cs),
(17,200,ls),
(17,60,o),
(97,-10,o),
(237,-10,cs)
);
},
{
closed = 1;
nodes = (
(207,140,o),
(197,160,o),
(197,190,cs),
(197,510,ls),
(197,540,o),
(207,560,o),
(237,560,cs),
(267,560,o),
(277,540,o),
(277,510,cs),
(277,190,ls),
(277,160,o),
(267,140,o),
(237,140,cs)
);
}
);
width = 474;
},
{
layerId = m003;
shapes = (
{
closed = 1;
nodes = (
(377,-10,o),
(457,60,o),
(457,200,cs),
(457,500,ls),
(457,640,o),
(377,710,o),
(237,710,cs),
(97,710,o),
(17,640,o),
(17,500,cs),
(17,200,ls),
(17,60,o),
(97,-10,o),
(237,-10,cs)
);
},
{
closed = 1;
nodes = (
(207,140,o),
(197,160,o),
(197,190,cs),
(197,510,ls),
(197,540,o),
(207,560,o),
(237,560,cs),
(267,560,o),
(277,540,o),
(277,510,cs),
(277,190,ls),
(277,160,o),
(267,140,o),
(237,140,cs)
);
}
);
width = 474;
},
{
layerId = m004;
shapes = (
{
closed = 1;
nodes = (
(377,-10,o),
(457,60,o),
(457,200,cs),
(457,500,ls),
(457,640,o),
(377,710,o),
(237,710,cs),
(97,710,o),
(17,640,o),
(17,500,cs),
(17,200,ls),
(17,60,o),
(97,-10,o),
(237,-10,cs)
);
},
{
closed = 1;
nodes = (
(207,140,o),
(197,160,o),
(197,190,cs),
(197,510,ls),
(197,540,o),
(207,560,o),
(237,560,cs),
(267,560,o),
(277,540,o),
(277,510,cs),
(277,190,ls),
(277,160,o),
(267,140,o),
(237,140,cs)
);
}
);
width = 474;
}
);
unicode = 48;
},
{
color = 5;
glyphname = one;
kernLeft = one;
kernRight = one;
layers = (
{
layerId = m01;
shapes = (
{
closed = 1;
nodes = (
(250,0,ls),
(280,0,o),
(290,10,o),
(290,40,cs),
(290,660,ls),
(290,690,o),
(280,700,o),
(250,700,cs),
(150,700,ls),
(120,700,o),
(110,690,o),
(110,660,cs),
(110,610,o),
(90,590,o),
(40,590,cs),
(20,590,o),
(10,580,o),
(10,560,cs),
(10,490,ls),
(10,470,o),
(20,460,o),
(40,460,cs),
(90,460,ls),
(105,460,o),
(110,456,o),
(110,440,cs),
(110,40,ls),
(110,10,o),
(120,0,o),
(150,0,cs)
);
}
);
width = 310;
},
{
layerId = "6ABCF30A-460E-4EED-802C-9E4699B7E7F6";
shapes = (
{
closed = 1;
nodes = (
(250,0,ls),
(280,0,o),
(290,10,o),
(290,40,cs),
(290,660,ls),
(290,690,o),
(280,700,o),
(250,700,cs),
(150,700,ls),
(120,700,o),
(110,690,o),
(110,660,cs),
(110,610,o),
(90,590,o),
(40,590,cs),
(20,590,o),
(10,580,o),
(10,560,cs),
(10,490,ls),
(10,470,o),
(20,460,o),
(40,460,cs),
(90,460,ls),
(105,460,o),
(110,455,o),
(110,440,cs),
(110,40,ls),
(110,10,o),
(120,0,o),
(150,0,cs)
);
}
);
width = 310;
},
{
layerId = m003;
shapes = (
{
closed = 1;
nodes = (
(250,0,ls),
(280,0,o),
(290,10,o),
(290,40,cs),
(290,660,ls),
(290,690,o),
(280,700,o),
(250,700,cs),
(150,700,ls),
(120,700,o),
(110,690,o),
(110,660,cs),
(110,610,o),
(90,590,o),
(40,590,cs),
(20,590,o),
(10,580,o),
(10,560,cs),
(10,490,ls),
(10,470,o),
(20,460,o),
(40,460,cs),
(90,460,ls),
(105,460,o),
(110,456,o),
(110,440,cs),
(110,40,ls),
(110,10,o),
(120,0,o),
(150,0,cs)
);
}
);
width = 310;
},
{
layerId = m004;
shapes = (
{
closed = 1;
nodes = (
(250,0,ls),
(280,0,o),
(290,10,o),
(290,40,cs),
(290,660,ls),
(290,690,o),
(280,700,o),
(250,700,cs),
(150,700,ls),
(120,700,o),
(110,690,o),
(110,660,cs),
(110,610,o),
(90,590,o),
(40,590,cs),
(20,590,o),
(10,580,o),
(10,560,cs),
(10,490,ls),
(10,470,o),
(20,460,o),
(40,460,cs),
(90,460,ls),
(105,460,o),
(110,455,o),
(110,440,cs),
(110,40,ls),
(110,10,o),
(120,0,o),
(150,0,cs)
);
}
);
width = 310;
}
);
unicode = 49;
},
{
color = 5;
glyphname = two;
kernLeft = two;
kernRight = two;
layers = (
{
layerId = m01;
shapes = (
{
closed = 1;
nodes = (
(410,0,ls),
(440,0,o),
(450,10,o),
(450,40,cs),
(450,110,ls),
(450,140,o),
(440,150,o),
(410,150,cs),
(218,150,ls),
(203,150,o),
(198,155,o),
(198,170,cs),
(198,192,o),
(222,224,o),
(284,267,cs),
(346,310,o),
(450,390,o),
(450,510,cs),
(450,640,o),
(375,710,o),
(235,710,cs),
(95,710,o),
(20,640,o),
(20,500,cs),
(20,470,o),
(30,460,o),
(60,460,cs),
(150,460,ls),
(180,460,o),
(190,470,o),
(190,500,cs),
(190,510,ls),
(190,540,o),
(205,560,o),
(230,560,cs),
(255,560,o),
(270,540,o),
(270,510,cs),
(270,446,o),
(236,416,o),
(164,366,cs),
(46,284,o),
(10,191,o),
(10,100,cs),
(10,40,ls),
(10,11,o),
(20,0,o),
(50,0,cs)
);
}
);
width = 460;
},
{
layerId = "6ABCF30A-460E-4EED-802C-9E4699B7E7F6";
shapes = (
{
closed = 1;
nodes = (
(410,0,ls),
(440,0,o),
(450,10,o),
(450,40,cs),
(450,110,ls),
(450,140,o),
(440,150,o),
(410,150,cs),
(218,150,ls),
(203,150,o),
(198,155,o),
(198,170,cs),
(198,192,o),
(222,224,o),
(284,267,cs),
(346,310,o),
(450,390,o),
(450,510,cs),
(450,640,o),
(370,710,o),
(230,710,cs),
(90,710,o),
(20,640,o),
(20,500,cs),
(20,470,o),
(30,460,o),
(60,460,cs),
(150,460,ls),
(180,460,o),
(190,470,o),
(190,500,cs),
(190,510,ls),
(190,540,o),
(205,560,o),
(230,560,cs),
(255,560,o),
(270,540,o),
(270,510,cs),
(270,446,o),
(236,416,o),
(164,366,cs),
(46,284,o),
(10,191,o),
(10,100,cs),
(10,40,ls),
(10,11,o),
(20,0,o),
(50,0,cs)
);
}
);
width = 460;
},
{
layerId = m003;
shapes = (
{
closed = 1;
nodes = (
(410,0,ls),
(440,0,o),
(450,10,o),
(450,40,cs),
(450,110,ls),
(450,140,o),
(440,150,o),
(410,150,cs),
(218,150,ls),
(203,150,o),
(198,155,o),
(198,170,cs),
(198,192,o),
(222,224,o),
(284,267,cs),
(346,310,o),
(450,390,o),
(450,510,cs),
(450,640,o),
(375,710,o),
(235,710,cs),
(95,710,o),
(20,640,o),
(20,500,cs),
(20,470,o),
(30,460,o),
(60,460,cs),
(150,460,ls),
(180,460,o),
(190,470,o),
(190,500,cs),
(190,510,ls),
(190,540,o),
(205,560,o),
(230,560,cs),
(255,560,o),
(270,540,o),
(270,510,cs),
(270,446,o),
(236,416,o),
(164,366,cs),
(46,284,o),
(10,191,o),
(10,100,cs),
(10,40,ls),
(10,11,o),
(20,0,o),
(50,0,cs)
);
}
);
width = 460;
},
{
layerId = m004;
shapes = (
{
closed = 1;
nodes = (
(410,0,ls),
(440,0,o),
(450,10,o),
(450,40,cs),
(450,110,ls),
(450,140,o),
(440,150,o),
(410,150,cs),
(218,150,ls),
(203,150,o),
(198,155,o),
(198,170,cs),
(198,192,o),
(222,224,o),
(284,267,cs),
(346,310,o),
(450,390,o),
(450,510,cs),
(450,640,o),
(370,710,o),
(230,710,cs),
(90,710,o),
(20,640,o),
(20,500,cs),
(20,470,o),
(30,460,o),
(60,460,cs),
(150,460,ls),
(180,460,o),
(190,470,o),
(190,500,cs),
(190,510,ls),
(190,540,o),
(205,560,o),
(230,560,cs),
(255,560,o),
(270,540,o),
(270,510,cs),
(270,446,o),
(236,416,o),
(164,366,cs),
(46,284,o),
(10,191,o),
(10,100,cs),
(10,40,ls),
(10,11,o),
(20,0,o),
(50,0,cs)
);
}
);
width = 460;
}
);
unicode = 50;
},
{
color = 5;
glyphname = three;
kernLeft = three;
kernRight = three;
layers = (
{
layerId = m01;
shapes = (
{
closed = 1;
nodes = (
(360,-10,o),
(450,40,o),
(450,190,cs),
(450,252,o),
(431,297,o),
(377,334,cs),
(364,343,o),
(361,344,o),
(361,349,cs),
(361,354,o),
(365,357,o),
(377,366,cs),
(405,387,o),
(440,440,o),
(440,510,cs),
(440,650,o),
(370,710,o),
(230,710,cs),
(90,710,o),
(20,640,o),
(20,500,cs),
(20,470,o),
(30,460,o),
(60,460,cs),
(150,460,ls),
(180,460,o),
(190,470,o),
(190,500,cs),
(190,510,ls),
(190,540,o),
(205,560,o),
(230,560,cs),
(255,560,o),
(270,540,o),
(270,510,cs),
(270,460,o),
(260,410,o),
(210,410,cs),
(200,410,ls),
(180,410,o),
(170,400,o),
(170,380,cs),
(170,320,ls),
(170,300,o),
(180,290,o),
(200,290,cs),
(210,290,ls),
(260,290,o),
(260,240,o),
(260,190,cs),
(260,160,o),
(250,140,o),
(220,140,cs),
(190,140,o),
(180,160,o),
(180,190,cs),
(180,200,ls),
(180,230,o),
(170,240,o),
(140,240,cs),
(50,240,ls),
(20,240,o),
(10,230,o),
(10,200,cs),
(10,60,o),
(80,-10,o),
(220,-10,cs)
);
}
);
width = 460;
},
{
layerId = "6ABCF30A-460E-4EED-802C-9E4699B7E7F6";
shapes = (
{
closed = 1;
nodes = (
(360,-10,o),
(450,40,o),
(450,190,cs),
(450,252,o),
(431,297,o),
(377,334,cs),
(364,343,o),
(361,344,o),
(361,349,cs),
(361,354,o),
(365,357,o),
(377,366,cs),
(405,387,o),
(440,440,o),
(440,510,cs),
(440,650,o),
(370,710,o),
(230,710,cs),
(90,710,o),
(20,640,o),
(20,500,cs),
(20,470,o),
(30,460,o),
(60,460,cs),
(150,460,ls),
(180,460,o),
(190,470,o),
(190,500,cs),
(190,510,ls),
(190,540,o),
(205,560,o),
(230,560,cs),
(255,560,o),
(270,540,o),
(270,510,cs),
(270,460,o),
(260,410,o),
(210,410,cs),
(200,410,ls),
(180,410,o),
(170,400,o),
(170,380,cs),
(170,320,ls),
(170,300,o),
(180,290,o),
(200,290,cs),
(210,290,ls),
(260,290,o),
(260,240,o),
(260,190,cs),
(260,160,o),
(250,140,o),
(220,140,cs),
(190,140,o),
(180,160,o),
(180,190,cs),
(180,200,ls),
(180,230,o),
(170,240,o),
(140,240,cs),
(50,240,ls),
(20,240,o),
(10,230,o),
(10,200,cs),
(10,60,o),
(80,-10,o),
(220,-10,cs)
);
}
);
width = 460;
},
{
layerId = m003;
shapes = (
{
closed = 1;
nodes = (
(360,-10,o),
(450,40,o),
(450,190,cs),
(450,252,o),
(431,297,o),
(377,334,cs),
(364,343,o),
(361,344,o),
(361,349,cs),
(361,354,o),
(365,357,o),
(377,366,cs),
(405,387,o),
(440,440,o),
(440,510,cs),
(440,650,o),
(370,710,o),
(230,710,cs),
(90,710,o),
(20,640,o),
(20,500,cs),
(20,470,o),
(30,460,o),
(60,460,cs),
(150,460,ls),
(180,460,o),
(190,470,o),
(190,500,cs),
(190,510,ls),
(190,540,o),
(205,560,o),
(230,560,cs),
(255,560,o),
(270,540,o),
(270,510,cs),
(270,460,o),
(260,410,o),
(210,410,cs),
(200,410,ls),
(180,410,o),
(170,400,o),
(170,380,cs),
(170,320,ls),
(170,300,o),
(180,290,o),
(200,290,cs),
(210,290,ls),
(260,290,o),
(260,240,o),
(260,190,cs),
(260,160,o),
(250,140,o),
(220,140,cs),
(190,140,o),
(180,160,o),
(180,190,cs),
(180,200,ls),
(180,230,o),
(170,240,o),
(140,240,cs),
(50,240,ls),
(20,240,o),
(10,230,o),
(10,200,cs),
(10,60,o),
(80,-10,o),
(220,-10,cs)
);
}
);
width = 460;
},
{
layerId = m004;
shapes = (
{
closed = 1;
nodes = (
(360,-10,o),
(450,40,o),
(450,190,cs),
(450,252,o),
(431,297,o),
(377,334,cs),
(364,343,o),
(361,344,o),
(361,349,cs),
(361,354,o),
(365,357,o),
(377,366,cs),
(405,387,o),
(440,440,o),
(440,510,cs),
(440,650,o),
(370,710,o),
(230,710,cs),
(90,710,o),
(20,640,o),
(20,500,cs),
(20,470,o),
(30,460,o),
(60,460,cs),
(150,460,ls),
(180,460,o),
(190,470,o),
(190,500,cs),
(190,510,ls),
(190,540,o),
(205,560,o),
(230,560,cs),
(255,560,o),
(270,540,o),
(270,510,cs),
(270,460,o),
(260,410,o),
(210,410,cs),
(200,410,ls),
(180,410,o),
(170,400,o),
(170,380,cs),
(170,320,ls),
(170,300,o),
(180,290,o),
(200,290,cs),
(210,290,ls),
(260,290,o),
(260,240,o),
(260,190,cs),
(260,160,o),
(250,140,o),
(220,140,cs),
(190,140,o),
(180,160,o),
(180,190,cs),
(180,200,ls),
(180,230,o),
(170,240,o),
(140,240,cs),
(50,240,ls),
(20,240,o),
(10,230,o),
(10,200,cs),
(10,60,o),
(80,-10,o),
(220,-10,cs)
);
}
);
width = 460;
}
);
unicode = 51;
},
{
color = 5;
glyphname = four;
kernLeft = four;
kernRight = four;
layers = (
{
layerId = m01;
shapes = (
{
closed = 1;
nodes = (
(374,0,ls),
(404,0,o),
(414,10,o),
(414,40,cs),
(414,90,ls),
(414,105,o),
(419,110,o),
(434,110,cs),
(444,110,ls),
(464,110,o),
(474,120,o),
(474,140,cs),
(474,210,ls),
(474,230,o),
(464,240,o),
(444,240,cs),
(434,240,ls),
(418,240,o),
(414,244,o),
(414,260,cs),
(414,660,ls),
(414,690,o),
(404,700,o),
(375,700,cs),
(263,700,ls),
(231,700,o),
(220,695,o),
(204,660,cs),
(24,269,ls),
(15,249,o),
(10,236,o),
(10,216,cs),
(10,150,ls),
(10,120,o),
(20,110,o),
(50,110,cs),
(214,110,ls),
(229,110,o),
(234,105,o),
(234,90,cs),
(234,40,ls),
(234,10,o),
(244,0,o),
(274,0,cs)
);
},
{
closed = 1;
nodes = (
(163,240,o),
(159,242,o),
(159,249,cs),
(159,254,o),
(162,261,o),
(167,274,cs),
(219,401,ls),
(222,409,o),
(225,411,o),
(228,411,cs),
(231,411,o),
(234,410,o),
(234,401,cs),
(234,260,ls),
(234,245,o),
(229,240,o),
(214,240,cs),
(170,240,ls)
);
}
);
width = 484;
},
{
layerId = "6ABCF30A-460E-4EED-802C-9E4699B7E7F6";
shapes = (
{
closed = 1;
nodes = (
(374,0,ls),
(404,0,o),
(414,10,o),
(414,40,cs),
(414,90,ls),
(414,105,o),
(419,110,o),
(434,110,cs),
(444,110,ls),
(464,110,o),
(474,120,o),
(474,140,cs),
(474,210,ls),
(474,230,o),
(464,240,o),
(444,240,cs),
(434,240,ls),
(418,240,o),
(414,244,o),
(414,260,cs),
(414,660,ls),
(414,690,o),
(404,700,o),
(375,700,cs),
(263,700,ls),
(231,700,o),
(220,695,o),
(204,660,cs),
(24,269,ls),
(15,249,o),
(10,236,o),
(10,216,cs),
(10,150,ls),
(10,120,o),
(20,110,o),
(50,110,cs),
(214,110,ls),
(229,110,o),
(234,105,o),
(234,90,cs),
(234,40,ls),
(234,10,o),
(244,0,o),
(274,0,cs)
);
},
{
closed = 1;
nodes = (
(163,240,o),
(159,242,o),
(159,249,cs),
(159,254,o),
(162,261,o),
(167,274,cs),
(219,401,ls),
(222,409,o),
(225,411,o),
(228,411,cs),
(231,411,o),
(234,410,o),
(234,401,cs),
(234,260,ls),
(234,245,o),
(229,240,o),
(214,240,cs),
(170,240,ls)
);
}
);
width = 484;
},
{
layerId = m003;
shapes = (
{
closed = 1;
nodes = (
(374,0,ls),
(404,0,o),
(414,10,o),
(414,40,cs),
(414,90,ls),
(414,105,o),
(419,110,o),
(434,110,cs),
(444,110,ls),
(464,110,o),
(474,120,o),
(474,140,cs),
(474,210,ls),
(474,230,o),
(464,240,o),
(444,240,cs),
(434,240,ls),
(418,240,o),
(414,244,o),
(414,260,cs),
(414,660,ls),
(414,690,o),
(404,700,o),
(375,700,cs),
(263,700,ls),
(231,700,o),
(220,695,o),
(204,660,cs),
(24,269,ls),
(15,249,o),
(10,236,o),
(10,216,cs),
(10,150,ls),
(10,120,o),
(20,110,o),
(50,110,cs),
(214,110,ls),
(229,110,o),
(234,105,o),
(234,90,cs),
(234,40,ls),
(234,10,o),
(244,0,o),
(274,0,cs)
);
},
{
closed = 1;
nodes = (
(163,240,o),
(159,242,o),
(159,249,cs),
(159,254,o),
(162,261,o),
(167,274,cs),
(219,401,ls),
(222,409,o),
(225,411,o),
(228,411,cs),
(231,411,o),
(234,410,o),
(234,401,cs),
(234,260,ls),
(234,245,o),
(229,240,o),
(214,240,cs),
(170,240,ls)
);
}
);
width = 484;
},
{
layerId = m004;
shapes = (
{
closed = 1;
nodes = (
(374,0,ls),
(404,0,o),
(414,10,o),
(414,40,cs),
(414,90,ls),
(414,105,o),
(419,110,o),
(434,110,cs),
(444,110,ls),
(464,110,o),
(474,120,o),
(474,140,cs),
(474,210,ls),
(474,230,o),
(464,240,o),
(444,240,cs),
(434,240,ls),
(418,240,o),
(414,244,o),
(414,260,cs),
(414,660,ls),
(414,690,o),
(404,700,o),
(375,700,cs),
(263,700,ls),
(231,700,o),
(220,695,o),
(204,660,cs),
(24,269,ls),
(15,249,o),
(10,236,o),
(10,216,cs),
(10,150,ls),
(10,120,o),
(20,110,o),
(50,110,cs),
(214,110,ls),
(229,110,o),
(234,105,o),
(234,90,cs),
(234,40,ls),
(234,10,o),
(244,0,o),
(274,0,cs)
);
},
{
closed = 1;
nodes = (
(163,240,o),
(159,242,o),
(159,249,cs),
(159,254,o),
(162,261,o),
(167,274,cs),
(219,401,ls),
(222,409,o),
(225,411,o),
(228,411,cs),
(231,411,o),
(234,410,o),
(234,401,cs),
(234,260,ls),
(234,245,o),
(229,240,o),
(214,240,cs),
(170,240,ls)
);
}
);
width = 484;
}
);
unicode = 52;
},
